<?xml version="1.0" standalone="no"?>
<!DOCTYPE svg PUBLIC "-//W3C//DTD SVG 20010904//EN"
 "http://www.w3.org/TR/2001/REC-SVG-20010904/DTD/svg10.dtd">
<svg version="1.0" xmlns="http://www.w3.org/2000/svg"
 width="437.000000pt" height="108.000000pt" viewBox="0 0 437.000000 108.000000"
 preserveAspectRatio="xMidYMid meet">

<g transform="translate(0.000000,108.000000) scale(0.100000,-0.100000)"
fill="#78568A" stroke="none">
<path d="M895 935 c-54 -53 -16 -145 58 -145 24 0 42 8 61 26 55 55 18 144
-59 144 -25 0 -44 -8 -60 -25z"/>
<path d="M468 800 c-10 -6 -20 -29 -24 -55 -7 -48 -20 -66 -30 -41 -9 22 -114
23 -114 1 0 -11 -11 -15 -38 -15 -21 0 -43 -5 -50 -12 -17 -17 -17 -539 0
-556 17 -17 869 -17 886 0 17 17 17 539 0 556 -8 8 -49 12 -119 12 l-107 0 -6
45 c-12 74 -14 75 -209 75 -95 0 -180 -5 -189 -10z m348 -82 c11 -69 28 -78
144 -78 l100 0 0 -240 0 -240 -405 0 -405 0 0 240 0 240 100 0 c116 0 133 9
144 78 l6 42 155 0 155 0 6 -42z"/>
<path d="M602 621 c-44 -12 -94 -47 -123 -89 -35 -51 -38 -142 -7 -201 28 -55
83 -100 130 -108 l36 -5 8 48 c12 68 9 151 -5 168 -16 19 -117 66 -141 66 -12
0 -20 7 -20 16 0 17 28 14 108 -12 50 -16 102 -18 102 -4 0 9 -16 12 -90 15
-14 0 -23 5 -20 10 3 6 37 9 77 9 64 -1 73 1 79 18 4 13 13 18 27 16 20 -3 22
-10 24 -64 3 -64 -17 -113 -35 -86 -15 22 -49 -18 -61 -73 -7 -27 -14 -57 -17
-66 -2 -9 5 -26 15 -38 l20 -23 43 23 c83 47 127 155 98 244 -14 43 -62 100
-99 120 -35 18 -108 26 -149 16z"/>
<path d="M1765 671 c-193 -89 -128 -381 85 -381 217 0 278 301 78 385 -50 20
-114 19 -163 -4z m153 -81 c72 -44 80 -133 16 -189 -29 -26 -43 -31 -84 -31
-43 0 -56 5 -86 33 -62 57 -56 136 15 184 42 28 95 30 139 3z"/>
<path d="M2495 671 c-144 -67 -159 -261 -27 -352 25 -16 52 -24 96 -27 78 -4
138 24 181 86 26 38 30 52 30 112 0 60 -4 74 -30 111 -57 81 -162 111 -250 70z
m153 -81 c19 -12 40 -37 49 -58 13 -32 14 -42 2 -77 -45 -130 -247 -103 -249
33 -1 96 112 154 198 102z"/>
<path d="M1232 643 c3 -37 4 -38 46 -41 l42 -3 0 -150 0 -149 35 0 35 0 0 150
0 150 39 0 c27 0 48 -7 66 -23 57 -49 22 -178 -77 -281 -26 -27 -45 -53 -40
-58 12 -12 103 36 140 73 76 75 104 198 63 281 -35 73 -73 88 -225 88 l-127 0
3 -37z"/>
<path d="M2100 640 l0 -40 43 0 44 0 -4 -77 c-6 -101 -26 -200 -51 -252 -15
-31 -17 -41 -7 -41 46 0 135 223 135 339 0 26 4 30 33 33 29 3 32 6 35 41 l3
37 -115 0 -116 0 0 -40z"/>
<path d="M2945 663 c-148 -78 -151 -273 -6 -350 71 -37 180 -27 220 21 13 15
12 20 -7 39 -21 20 -23 20 -57 4 -44 -21 -78 -22 -118 -2 -47 23 -72 63 -72
113 0 37 5 48 37 78 34 31 43 34 98 34 l60 0 0 -47 0 -47 40 39 c36 35 40 44
40 87 l0 48 -102 0 c-74 -1 -112 -5 -133 -17z"/>
<path d="M3222 643 c3 -33 7 -38 31 -41 26 -3 28 -6 20 -35 -15 -60 -8 -139
17 -189 23 -47 65 -96 75 -87 2 3 -2 27 -10 54 -8 26 -15 61 -15 77 0 28 0 28
65 28 l65 0 0 -75 0 -75 40 0 40 0 0 150 0 150 40 0 40 0 0 40 0 40 -206 0
-205 0 3 -37z m248 -78 l0 -35 -65 0 c-68 0 -71 3 -55 44 9 24 15 26 65 26
l55 0 0 -35z"/>
<path d="M3680 640 l0 -40 40 0 40 0 0 -150 0 -150 40 0 40 0 0 142 0 142 43
-42 43 -42 39 40 c21 22 43 40 47 40 4 0 8 -63 8 -140 l0 -140 35 0 35 0 0
149 0 150 43 3 c41 3 42 4 45 41 l3 37 -83 0 -82 0 -43 -42 -43 -42 -43 42
-43 42 -82 0 -82 0 0 -40z"/>
</g>
</svg>
