<?xml version="1.0" encoding="utf-8"?>
<svg contentscripttype="text/ecmascript" zoomAndPan="magnify" contentstyletype="text/css" viewBox="1.87 2.273 306.266 73.877" preserveAspectRatio="xMidYMid meet" version="1.2" xmlns="http://www.w3.org/2000/svg">
  <defs>
    <g/>
    <clipPath id="clip1">
      <path d="M 37.5 167.714844 L 105.75 167.714844 L 105.75 220.964844 L 37.5 220.964844 Z M 37.5 167.714844 "/>
    </clipPath>
    <clipPath id="clip2">
      <path d="M 58.074219 186.007812 L 82 186.007812 L 82 212.257812 L 58.074219 212.257812 Z M 58.074219 186.007812 "/>
    </clipPath>
  </defs>
  <g id="surface1" transform="matrix(1, 0, 0, 1, -32.263092, -147.690781)">
    <g clip-rule="nonzero" clip-path="url(#clip1)">
      <path style="stroke: none; fill-rule: nonzero; fill-opacity: 1; fill: rgb(255, 255, 255);" d="M 102.332031 176.714844 L 88.027344 176.714844 L 87.542969 173.328125 L 87.175781 171.042969 C 87.023438 170.125 86.53125 169.363281 85.761719 168.726562 C 84.972656 168.074219 84.128906 167.730469 83.199219 167.730469 L 59.941406 167.730469 C 59.011719 167.730469 58.15625 168.0625 57.375 168.726562 C 56.597656 169.386719 56.183594 170.164062 56.039062 171.042969 L 55.667969 173.328125 L 55.148438 176.714844 L 40.917969 176.714844 C 39.023438 176.714844 37.5 178.222656 37.5 180.027344 L 37.5 217.574219 C 37.5 219.453125 39.023438 220.960938 40.917969 220.960938 L 102.332031 220.960938 C 104.226562 220.960938 105.75 219.453125 105.75 217.574219 L 105.75 180.027344 C 105.75 178.222656 104.226562 176.714844 102.332031 176.714844 Z M 101.625 216.875 L 41.585938 216.875 L 41.585938 180.761719 L 55.148438 180.761719 C 57.191406 180.761719 58.957031 179.257812 59.234375 177.304688 L 59.71875 173.917969 L 60.089844 171.820312 L 83.125 171.820312 L 83.457031 173.917969 L 83.976562 177.304688 C 84.277344 179.253906 86.058594 180.761719 88.027344 180.761719 L 101.625 180.761719 Z M 101.625 216.875 "/>
    </g>
    <path style=" stroke:none;fill-rule:nonzero;fill:rgb(22.349548%,22.349548%,22.349548%);fill-opacity:1;" d="M 71.570312 181.832031 C 67.371094 181.832031 63.730469 183.339844 60.722656 186.320312 C 57.710938 189.304688 56.1875 192.910156 56.1875 197.070312 C 56.1875 201.230469 57.710938 204.835938 60.722656 207.820312 C 63.730469 210.800781 67.371094 212.210938 71.570312 212.273438 C 79.890625 212.394531 87.046875 205.242188 86.949219 197.070312 C 86.898438 192.875 85.425781 189.304688 82.417969 186.320312 C 79.410156 183.339844 75.804688 181.832031 71.570312 181.832031 Z M 79.519531 204.984375 C 77.328125 207.15625 74.691406 208.222656 71.570312 208.222656 C 68.484375 208.222656 65.847656 207.15625 63.65625 204.984375 C 61.464844 202.8125 60.386719 200.164062 60.386719 197.070312 C 60.386719 194.015625 61.464844 191.363281 63.65625 189.191406 C 65.847656 187.019531 68.484375 185.917969 71.570312 185.917969 C 74.691406 185.917969 77.328125 187.019531 79.519531 189.191406 C 81.710938 191.363281 82.828125 194.015625 82.828125 197.070312 C 82.828125 200.164062 81.710938 202.8125 79.519531 204.984375 Z M 79.519531 204.984375 "/>
    <path style="stroke: none; fill-rule: nonzero; fill-opacity: 1; fill: rgb(255, 255, 255);" d="M 71.563 181.457 C 70.527 181.457 69.504 181.559 68.488 181.758 C 67.477 181.961 66.492 182.262 65.535 182.656 C 64.578 183.051 63.672 183.535 62.813 184.109 C 61.953 184.684 61.156 185.34 60.426 186.07 C 59.695 186.801 59.043 187.598 58.469 188.457 C 57.891 189.316 57.406 190.223 57.012 191.18 C 56.617 192.137 56.316 193.121 56.117 194.133 C 55.914 195.148 55.813 196.172 55.813 197.207 C 55.813 198.242 55.914 199.266 56.117 200.281 C 56.316 201.293 56.617 202.277 57.012 203.234 C 57.406 204.188 57.891 205.098 58.469 205.957 C 59.043 206.816 59.695 207.613 60.426 208.344 C 61.156 209.074 61.953 209.727 62.813 210.301 C 63.672 210.875 64.578 211.363 65.535 211.758 C 66.492 212.152 67.477 212.453 68.488 212.652 C 69.504 212.855 70.527 212.957 71.563 212.957 C 72.598 212.957 73.621 212.855 74.637 212.652 C 75.648 212.453 76.633 212.152 77.59 211.758 C 78.547 211.363 79.453 210.875 80.313 210.301 C 81.172 209.727 81.969 209.074 82.699 208.344 C 83.43 207.613 84.082 206.816 84.66 205.957 C 85.234 205.098 85.719 204.188 86.113 203.234 C 86.508 202.277 86.809 201.293 87.012 200.281 C 87.211 199.266 87.313 198.242 87.313 197.207 C 87.313 196.172 87.211 195.148 87.012 194.133 C 86.809 193.121 86.508 192.137 86.113 191.18 C 85.719 190.223 85.234 189.316 84.66 188.457 C 84.082 187.598 83.43 186.801 82.699 186.07 C 81.969 185.34 81.172 184.684 80.313 184.109 C 79.453 183.535 78.547 183.051 77.59 182.656 C 76.633 182.262 75.648 181.961 74.637 181.758 C 73.621 181.559 72.598 181.457 71.563 181.457 Z M 71.563 181.457" transform="matrix(0, 1, -1, 0, 268.770002, 125.643999)"/>
    <g clip-rule="nonzero" clip-path="url(#clip2)">
      <path style="stroke: none; fill-rule: nonzero; fill-opacity: 1; fill: rgb(40, 36, 44);" d="M 81.921875 192.488281 C 81.882812 192.386719 81.820312 192.296875 81.789062 192.195312 C 81.765625 192.121094 81.738281 192.042969 81.683594 191.984375 C 81.582031 191.875 81.5 191.683594 81.21875 191.414062 C 81.171875 191.371094 81.164062 191.308594 81.121094 191.265625 C 81.097656 191.234375 81.050781 191.238281 81.023438 191.214844 C 81.007812 191.203125 81.015625 191.183594 81.015625 191.167969 C 81.015625 191.113281 81.015625 191.054688 80.992188 191 C 80.972656 190.960938 80.957031 190.914062 80.925781 190.878906 C 80.847656 190.789062 80.863281 190.726562 80.714844 190.554688 C 80.511719 190.308594 80.480469 190.410156 80.5 190.273438 C 80.511719 190.21875 80.503906 190.042969 80.558594 190.007812 C 80.578125 189.988281 80.601562 190.015625 80.621094 190.019531 C 80.667969 190.050781 80.71875 190.035156 80.769531 190.039062 C 80.75 190.066406 80.734375 190.105469 80.761719 190.132812 C 80.808594 190.128906 80.847656 190.105469 80.890625 190.089844 C 80.9375 190.066406 80.964844 190.019531 81 189.980469 C 81.019531 189.957031 81.054688 189.953125 81.074219 189.925781 C 81.101562 189.878906 81.136719 189.84375 81.160156 189.796875 C 81.269531 189.496094 81.296875 189.617188 81.320312 189.386719 C 81.320312 189.375 81.363281 189.101562 81.445312 188.953125 C 81.480469 188.890625 81.492188 188.742188 81.511719 188.710938 C 81.53125 188.652344 81.566406 188.605469 81.582031 188.546875 C 81.597656 188.507812 81.613281 188.46875 81.628906 188.433594 C 81.664062 188.390625 81.644531 188.335938 81.660156 188.289062 C 81.6875 188.195312 81.65625 187.84375 81.636719 187.769531 C 81.617188 187.703125 81.625 187.632812 81.609375 187.566406 C 81.59375 187.511719 81.59375 187.457031 81.582031 187.402344 C 81.566406 187.359375 81.5625 187.3125 81.558594 187.269531 C 81.550781 187.195312 81.433594 186.929688 81.347656 186.820312 C 81.3125 186.769531 81.257812 186.730469 81.230469 186.671875 C 81.171875 186.601562 81.113281 186.527344 81.035156 186.476562 C 80.847656 186.335938 80.390625 186.195312 80.199219 186.144531 C 80.140625 186.136719 80.078125 186.144531 80.019531 186.125 C 79.972656 186.113281 79.929688 186.089844 79.882812 186.085938 C 79.691406 186.066406 79.660156 186.007812 79.324219 186.078125 C 79.226562 186.078125 79.132812 186.101562 79.035156 186.101562 C 78.625 186.109375 78.664062 186.15625 78.578125 186.191406 C 78.519531 186.199219 78.460938 186.195312 78.410156 186.230469 C 78.417969 186.230469 78.4375 186.234375 78.445312 186.234375 C 78.433594 186.25 78.417969 186.257812 78.398438 186.269531 C 78.359375 186.289062 78.328125 186.320312 78.292969 186.339844 C 78.246094 186.367188 78.132812 186.53125 78.179688 186.761719 C 78.191406 186.804688 78.238281 186.8125 78.277344 186.824219 C 78.277344 186.863281 78.269531 186.902344 78.261719 186.941406 C 78.230469 187.019531 78.109375 187.144531 78.101562 187.179688 C 78.09375 187.214844 78.050781 187.226562 78.042969 187.257812 C 78.035156 187.289062 78.003906 187.308594 77.988281 187.335938 C 77.960938 187.386719 77.929688 187.441406 77.917969 187.5 C 77.914062 187.542969 77.875 187.578125 77.878906 187.625 C 77.890625 187.804688 77.703125 187.800781 77.78125 188.015625 C 77.824219 188.199219 78.050781 188.234375 77.800781 188.300781 C 77.835938 188.324219 77.875 188.347656 77.917969 188.351562 C 77.925781 188.414062 77.90625 188.46875 77.90625 188.53125 C 77.902344 188.5625 77.875 188.585938 77.855469 188.613281 C 77.820312 188.648438 77.585938 189.132812 77.566406 189.179688 C 77.550781 189.222656 77.488281 189.171875 77.414062 189.167969 C 77.347656 189.164062 77.289062 189.1875 77.222656 189.199219 C 77.128906 189.214844 77.109375 188.925781 76.992188 188.949219 C 76.914062 188.960938 76.835938 188.941406 76.71875 189.070312 C 76.707031 189.082031 76.695312 189.097656 76.675781 189.101562 C 76.382812 189.027344 76.566406 188.882812 75.304688 188.875 C 75.136719 188.890625 74.96875 188.902344 74.804688 188.9375 C 74.75 188.941406 74.695312 188.933594 74.644531 188.945312 C 74.570312 188.949219 74.5 188.972656 74.425781 188.980469 C 74.253906 188.992188 74.0625 188.964844 73.882812 188.972656 C 73.59375 188.992188 73.3125 189.089844 72.863281 189 C 72.554688 188.957031 72.40625 188.859375 72.277344 188.816406 C 71.800781 188.621094 71.285156 188.71875 71.191406 188.695312 C 71.054688 188.667969 70.5625 188.550781 69.640625 188.625 C 69.632812 188.625 68.863281 188.644531 68.761719 188.664062 C 68.488281 188.699219 68.1875 188.644531 68.074219 188.609375 C 67.867188 188.535156 67.957031 188.613281 67.605469 188.597656 C 67.515625 188.585938 66.816406 188.40625 66.808594 188.40625 C 66.796875 188.402344 66.574219 188.308594 66.460938 188.378906 C 66.410156 188.414062 66.359375 188.382812 66.257812 188.457031 C 66.210938 188.492188 66.078125 188.433594 66.019531 188.554688 C 65.964844 188.640625 66.011719 188.761719 65.976562 188.796875 C 65.847656 188.949219 65.886719 189.011719 65.863281 189.097656 C 65.789062 189.402344 65.71875 189.582031 66.046875 189.546875 C 66.0625 189.542969 66.078125 189.554688 66.089844 189.5625 C 66.058594 189.617188 66.011719 189.671875 66.027344 189.738281 C 66.054688 189.859375 66.058594 189.917969 66.238281 189.914062 C 66.261719 189.910156 66.652344 189.902344 66.703125 189.894531 C 66.761719 189.882812 66.816406 189.851562 66.875 189.828125 C 67.050781 189.75 67.246094 189.722656 67.390625 189.574219 C 67.449219 189.511719 67.542969 189.496094 67.625 189.484375 C 67.792969 189.480469 68.109375 189.402344 68.609375 189.53125 C 68.652344 189.535156 69.234375 189.695312 69.292969 189.722656 C 69.980469 190.011719 69.644531 189.882812 70.089844 190.007812 C 70.199219 190.035156 70.308594 190.046875 70.414062 190.078125 C 70.671875 190.152344 70.835938 190.191406 71.007812 190.191406 C 71.171875 190.191406 71.371094 190.246094 71.40625 190.261719 C 71.804688 190.417969 71.765625 190.351562 72.261719 190.355469 C 72.472656 190.363281 72.679688 190.40625 72.890625 190.417969 C 73.089844 190.441406 73.289062 190.429688 73.488281 190.453125 C 73.855469 190.480469 73.839844 190.429688 74.148438 190.574219 C 74.21875 190.609375 74.296875 190.640625 74.363281 190.6875 C 74.460938 190.929688 74.394531 190.886719 74.78125 190.839844 C 74.816406 190.882812 74.863281 190.910156 74.902344 190.949219 C 74.90625 190.960938 75.007812 191.203125 74.984375 191.242188 C 74.914062 191.394531 74.832031 191.496094 74.792969 191.519531 C 74.773438 191.519531 74.75 191.515625 74.730469 191.523438 C 74.660156 191.554688 74.605469 191.617188 74.601562 191.691406 C 74.601562 191.757812 74.621094 191.820312 74.613281 191.886719 C 74.566406 191.902344 74.519531 191.921875 74.480469 191.953125 C 74.453125 191.996094 74.441406 192.042969 74.421875 192.089844 C 74.40625 192.109375 74.382812 192.117188 74.367188 192.128906 C 74.332031 192.152344 74.3125 192.191406 74.273438 192.207031 C 74.246094 192.210938 74.214844 192.199219 74.183594 192.199219 C 74.132812 192.207031 74.105469 192.261719 74.054688 192.273438 C 74.007812 192.285156 73.980469 192.328125 73.933594 192.34375 C 73.917969 192.34375 73.675781 192.289062 73.390625 192.292969 C 73.222656 192.292969 73.164062 192.476562 73.140625 192.523438 C 73.132812 192.539062 73.105469 192.546875 73.097656 192.527344 C 73.046875 192.425781 73.039062 192.261719 72.9375 192.253906 C 72.910156 192.253906 72.886719 192.234375 72.863281 192.230469 C 72.777344 192.226562 72.691406 192.253906 72.609375 192.253906 C 72.5 192.265625 72.390625 192.265625 72.277344 192.273438 C 72.246094 192.269531 72.25 192.320312 72.214844 192.324219 C 72.175781 192.332031 72.136719 192.328125 72.09375 192.324219 C 72.015625 192.304688 71.941406 192.335938 71.863281 192.347656 C 71.621094 192.378906 71.628906 192.421875 71.609375 192.460938 C 71.542969 192.460938 71.476562 192.457031 71.410156 192.453125 C 71.289062 192.445312 71.21875 192.539062 71.117188 192.433594 C 71.085938 192.402344 71.097656 192.347656 71.058594 192.324219 C 71.027344 192.316406 71 192.339844 70.972656 192.355469 C 70.941406 192.371094 70.941406 192.410156 70.929688 192.4375 C 70.914062 192.433594 70.894531 192.4375 70.886719 192.421875 C 70.855469 192.382812 70.84375 192.335938 70.832031 192.289062 C 70.78125 192.25 70.714844 192.269531 70.65625 192.265625 C 70.554688 192.253906 70.449219 192.257812 70.347656 192.273438 C 70.292969 192.265625 70.246094 192.242188 70.195312 192.226562 C 70.164062 192.214844 70.152344 192.179688 70.125 192.15625 C 70.097656 192.132812 69.972656 192.027344 69.9375 192.042969 C 69.882812 192.050781 69.859375 192.113281 69.808594 192.125 C 69.730469 192.136719 69.671875 192.070312 69.601562 192.050781 C 69.515625 192.011719 69.421875 192.003906 69.332031 191.980469 C 69.277344 191.964844 69.210938 191.980469 69.167969 191.9375 C 69.039062 191.820312 68.902344 191.820312 68.835938 191.800781 C 68.8125 191.792969 68.789062 191.816406 68.769531 191.800781 C 68.660156 191.734375 68.628906 191.695312 68.585938 191.703125 C 68.453125 191.730469 68.324219 191.691406 68.195312 191.65625 C 68.175781 191.648438 68.15625 191.664062 68.140625 191.675781 C 68.109375 191.664062 68.074219 191.65625 68.039062 191.652344 C 67.964844 191.644531 67.898438 191.601562 67.824219 191.601562 C 67.351562 191.601562 66.398438 191.195312 66.320312 191.175781 C 66.175781 191.148438 65.847656 191.007812 65.738281 190.941406 C 65.710938 190.921875 65.695312 190.894531 65.664062 190.878906 C 65.648438 190.871094 65.628906 190.878906 65.613281 190.871094 C 65.339844 190.730469 65.09375 190.417969 64.175781 190.265625 C 63.796875 190.207031 63.0625 190.214844 63.074219 190.207031 C 62.414062 190.179688 61.632812 190.203125 61.410156 190.113281 C 61.320312 190.082031 61.238281 190.03125 61.148438 190 C 61.113281 189.984375 61.078125 189.980469 61.046875 189.957031 C 61.03125 189.921875 61.027344 189.878906 60.996094 189.847656 C 60.894531 189.75 60.761719 189.773438 60.523438 189.671875 C 60.480469 189.65625 60.433594 189.648438 60.394531 189.621094 C 60.285156 189.496094 60.304688 189.46875 59.925781 189.472656 C 59.886719 189.472656 59.855469 189.503906 59.8125 189.503906 C 59.722656 189.5 59.632812 189.527344 59.539062 189.539062 C 59.507812 189.542969 59.476562 189.5625 59.445312 189.566406 C 59.421875 189.570312 59.394531 189.558594 59.371094 189.554688 C 59.316406 189.539062 59.257812 189.554688 59.203125 189.546875 C 59.15625 189.539062 59.109375 189.53125 59.058594 189.527344 C 59.015625 189.527344 58.972656 189.507812 58.925781 189.511719 C 58.890625 189.519531 58.855469 189.539062 58.8125 189.539062 C 58.765625 189.542969 58.71875 189.535156 58.671875 189.554688 C 58.644531 189.5625 58.625 189.582031 58.597656 189.585938 C 58.554688 189.582031 58.511719 189.5625 58.46875 189.570312 C 58.410156 189.578125 58.347656 189.535156 58.285156 189.566406 C 58.25 189.582031 58.210938 189.582031 58.179688 189.605469 C 58.152344 189.621094 58.152344 189.652344 58.148438 189.679688 C 58.136719 189.6875 58.121094 189.691406 58.109375 189.699219 C 58.078125 189.96875 58.148438 190.1875 58.234375 190.550781 C 58.257812 190.703125 58.289062 190.851562 58.335938 190.996094 C 58.453125 191.386719 58.46875 191.382812 58.605469 191.390625 C 58.660156 191.386719 58.722656 191.378906 58.761719 191.335938 C 58.796875 191.300781 58.847656 191.289062 58.882812 191.253906 C 58.90625 191.234375 58.925781 191.207031 58.957031 191.195312 C 58.996094 191.175781 59.042969 191.167969 59.085938 191.144531 C 59.28125 191.046875 59.351562 191.082031 59.4375 191.039062 C 59.527344 191 59.414062 191.039062 59.675781 191.027344 C 59.734375 191.007812 59.773438 190.949219 59.839844 190.957031 C 59.949219 190.964844 60.0625 190.9375 60.160156 190.988281 C 60.203125 191.007812 60.34375 191.015625 60.378906 191.015625 C 60.382812 191.070312 60.382812 191.128906 60.386719 191.1875 C 60.402344 191.1875 60.414062 191.1875 60.425781 191.183594 C 60.421875 191.128906 60.414062 191.070312 60.421875 191.015625 C 60.480469 191.003906 60.546875 191.015625 60.601562 190.984375 C 60.621094 190.976562 60.640625 190.964844 60.660156 190.96875 C 60.722656 190.976562 60.78125 190.980469 60.839844 190.996094 C 60.875 191.003906 60.894531 190.96875 60.925781 190.96875 C 61.230469 190.96875 61.207031 190.9375 61.371094 190.992188 C 61.777344 191.082031 61.355469 190.832031 62.925781 191.695312 C 64.132812 192.359375 64.324219 192.21875 64.457031 192.261719 C 64.414062 192.253906 64.367188 192.246094 64.324219 192.253906 C 64.441406 192.277344 64.5625 192.269531 64.683594 192.269531 C 64.804688 192.277344 65 192.378906 65.023438 192.453125 C 65.039062 192.503906 65.105469 192.5 65.136719 192.535156 C 65.859375 193.179688 66.480469 193.207031 66.6875 193.308594 C 66.691406 193.308594 67.023438 193.421875 67.039062 193.425781 C 67.078125 193.4375 67.109375 193.457031 67.144531 193.46875 C 67.292969 193.519531 67.425781 193.621094 67.554688 193.707031 C 68.148438 194.085938 67.945312 193.941406 68.132812 194.21875 C 68.144531 194.246094 68.179688 194.25 68.207031 194.261719 C 68.199219 194.394531 68.1875 194.304688 68.808594 194.550781 C 69.132812 194.648438 69.269531 194.757812 69.316406 194.789062 C 69.421875 194.871094 69.550781 194.921875 69.726562 195.074219 C 70.023438 195.324219 70.371094 195.503906 70.699219 195.804688 C 70.734375 195.839844 70.777344 195.871094 70.820312 195.902344 C 70.882812 195.957031 70.941406 196.019531 71 196.078125 C 71.285156 196.332031 71.335938 196.539062 71.402344 196.878906 C 71.417969 196.9375 71.425781 197 71.429688 197.0625 C 71.417969 197.296875 71.4375 197.527344 71.417969 197.757812 C 71.414062 197.902344 71.386719 198.042969 71.402344 198.183594 C 71.4375 198.457031 71.414062 198.730469 71.40625 199 C 71.398438 199.238281 71.417969 199.507812 71.347656 199.738281 C 71.292969 199.914062 71.269531 199.902344 71.269531 200.125 C 71.308594 200.148438 71.347656 200.175781 71.386719 200.207031 C 71.464844 200.277344 71.824219 200.441406 71.898438 200.5 C 71.914062 200.515625 71.917969 200.535156 71.921875 200.554688 C 71.902344 200.765625 71.960938 200.976562 71.992188 201.179688 C 72.027344 201.414062 72.097656 203.148438 72.097656 203.09375 C 72.097656 203.148438 72.089844 203.203125 72.09375 203.253906 C 72.09375 203.292969 72.125 203.34375 72.109375 203.382812 C 72.085938 203.46875 71.972656 203.558594 71.929688 203.648438 C 71.859375 203.792969 71.78125 204.160156 71.757812 204.214844 C 71.527344 204.808594 71.433594 205.246094 71.363281 205.78125 C 71.296875 206.269531 71.292969 206.160156 71.335938 206.644531 C 71.359375 206.894531 71.429688 207.140625 71.4375 207.394531 C 71.445312 207.644531 71.421875 207.902344 71.414062 208.152344 C 71.414062 208.125 71.414062 208.097656 71.414062 208.070312 C 71.34375 208.703125 71.359375 208.726562 71.1875 209.585938 C 71.15625 209.601562 71.121094 209.609375 71.085938 209.625 C 71.050781 209.640625 71.019531 209.664062 70.980469 209.667969 C 70.917969 209.679688 70.867188 209.671875 70.800781 209.839844 C 70.789062 209.871094 70.8125 209.902344 70.800781 209.933594 C 70.757812 210.050781 70.707031 210.164062 70.660156 210.28125 C 70.648438 210.300781 70.625 210.320312 70.617188 210.34375 C 70.601562 210.398438 70.582031 210.453125 70.582031 210.511719 C 70.578125 210.53125 70.558594 210.828125 70.558594 210.828125 C 70.554688 210.894531 70.574219 210.972656 70.523438 211.023438 C 70.523438 211.085938 70.507812 211.148438 70.484375 211.203125 C 70.433594 211.332031 70.53125 211.589844 70.621094 211.652344 C 70.699219 211.707031 70.949219 211.773438 71.269531 211.792969 C 72.3125 211.863281 71.992188 211.824219 72.210938 211.820312 C 72.234375 211.816406 72.457031 211.8125 72.527344 211.832031 C 72.964844 211.960938 72.773438 211.914062 72.953125 211.980469 C 73.003906 212.003906 73.058594 212.039062 73.117188 212.042969 C 73.421875 212.082031 73.351562 212.125 73.734375 212.136719 C 73.894531 212.136719 74.511719 212.257812 74.746094 212.101562 C 74.820312 212.046875 74.910156 212.015625 74.976562 211.949219 C 75 211.929688 75.03125 211.929688 75.054688 211.914062 C 75.164062 211.84375 75.25 211.71875 75.265625 211.589844 C 75.289062 211.421875 75.203125 211.441406 75.140625 211.394531 C 75.085938 211.351562 75.027344 211.320312 74.964844 211.292969 C 74.902344 211.261719 74.847656 211.21875 74.785156 211.199219 C 74.660156 211.15625 74.542969 211.097656 74.429688 211.039062 C 74.347656 210.996094 74.054688 210.878906 74.019531 210.855469 C 74.023438 210.835938 74.035156 210.824219 74.046875 210.808594 C 74.03125 210.792969 74.015625 210.773438 73.992188 210.769531 C 73.972656 210.769531 73.949219 210.777344 73.929688 210.777344 C 73.832031 210.734375 73.847656 210.710938 73.832031 210.679688 C 73.824219 210.65625 73.804688 210.640625 73.789062 210.621094 C 73.78125 210.59375 73.78125 210.566406 73.761719 210.546875 C 73.660156 210.449219 73.484375 210.492188 73.464844 210.382812 C 73.457031 210.332031 73.40625 210.308594 73.371094 210.277344 C 73.335938 210.246094 73.292969 210.234375 73.25 210.230469 C 73.21875 210.226562 73.210938 210.195312 73.191406 210.175781 C 73.148438 210.136719 73.113281 210.09375 73.074219 210.050781 C 73.136719 209.789062 73.195312 209.808594 73.15625 209.734375 C 73.125 209.777344 73.101562 209.824219 73.078125 209.871094 C 73.070312 209.890625 73.078125 209.925781 73.050781 209.929688 C 73.03125 209.785156 73.40625 209.414062 73.1875 209.3125 C 73.117188 209.269531 72.921875 209.386719 72.863281 209.664062 C 72.851562 209.660156 72.839844 209.660156 72.828125 209.65625 C 72.808594 209.625 72.804688 209.582031 72.785156 209.550781 C 72.695312 209.40625 72.675781 209.492188 72.625 209.453125 C 72.621094 209.398438 72.597656 209.347656 72.601562 209.292969 C 72.746094 207.554688 73.1875 207.3125 73.507812 205.585938 C 73.640625 204.875 73.59375 204.710938 73.832031 203.878906 C 73.863281 203.773438 73.90625 203.648438 73.875 203.535156 C 73.863281 203.496094 73.863281 203.449219 73.878906 203.410156 C 73.886719 203.386719 73.917969 203.375 73.929688 203.359375 C 74.082031 203.15625 74.105469 202.390625 74.445312 201.480469 C 74.5 201.324219 74.574219 201.179688 74.59375 201.019531 C 74.617188 200.964844 74.65625 200.921875 74.675781 200.867188 C 74.730469 200.746094 74.683594 200.605469 74.714844 200.476562 C 74.730469 200.425781 74.730469 200.371094 74.746094 200.320312 C 74.804688 200.113281 74.796875 200.023438 74.835938 199.8125 C 74.855469 199.761719 74.882812 199.554688 74.871094 199.511719 C 74.859375 199.46875 74.859375 199.339844 74.902344 199.234375 C 74.921875 199.183594 74.90625 199.128906 74.921875 199.074219 C 74.953125 198.949219 74.925781 198.898438 74.910156 198.757812 C 74.949219 198.738281 74.957031 198.695312 74.976562 198.660156 C 74.996094 198.613281 75.011719 198.550781 74.976562 198.503906 C 74.945312 198.464844 74.9375 198.410156 74.902344 198.371094 C 74.867188 198.335938 74.929688 198.234375 74.984375 198.214844 C 75.023438 198.222656 75.089844 198.304688 75.164062 198.347656 C 75.179688 198.359375 75.203125 198.355469 75.222656 198.351562 C 75.359375 198.273438 75.34375 198.117188 75.332031 198.089844 C 75.292969 197.957031 75.464844 197.964844 75.539062 197.890625 C 75.617188 197.820312 75.609375 197.753906 75.75 197.738281 C 75.917969 197.726562 75.894531 197.582031 75.960938 197.515625 C 76.085938 197.375 76.304688 197.324219 76.359375 197.320312 C 76.40625 197.316406 76.453125 197.300781 76.5 197.304688 C 76.574219 197.304688 76.648438 197.273438 76.714844 197.242188 C 76.746094 197.222656 76.765625 197.191406 76.792969 197.167969 C 76.878906 197.097656 77.167969 196.929688 77.269531 196.910156 C 77.625 196.769531 77.488281 196.792969 77.628906 196.722656 C 77.707031 196.683594 77.761719 196.617188 77.839844 196.578125 C 77.882812 196.554688 77.917969 196.515625 77.960938 196.492188 C 78.125 196.394531 78.1875 196.324219 78.234375 196.257812 C 78.269531 196.21875 78.296875 196.167969 78.347656 196.148438 C 78.382812 196.21875 78.386719 196.296875 78.414062 196.371094 C 78.429688 196.398438 78.449219 196.417969 78.460938 196.445312 C 78.484375 196.511719 78.460938 196.582031 78.480469 196.648438 C 78.5 196.707031 78.558594 196.761719 78.59375 196.8125 C 78.664062 196.914062 78.890625 197.238281 79.011719 197.457031 C 79.078125 197.578125 79.117188 197.777344 79.238281 197.859375 C 79.257812 197.871094 79.273438 197.886719 79.296875 197.890625 C 79.414062 197.894531 79.5 197.910156 79.613281 197.875 C 79.789062 197.820312 79.953125 197.738281 80.070312 197.597656 C 80.089844 197.570312 80.113281 197.539062 80.148438 197.535156 C 80.183594 197.484375 80.242188 197.449219 80.265625 197.390625 C 80.277344 197.347656 80.285156 197.300781 80.308594 197.265625 C 80.566406 196.894531 81.121094 195.75 81.105469 195.527344 C 81.101562 195.488281 81.125 195.453125 81.132812 195.414062 C 81.183594 195.160156 81.21875 195.367188 81.265625 195.019531 C 81.265625 195.03125 81.265625 195.042969 81.265625 195.054688 C 81.28125 195 81.304688 194.941406 81.335938 194.890625 C 81.339844 194.886719 81.425781 194.75 81.410156 194.753906 C 81.414062 194.753906 81.417969 194.75 81.421875 194.75 C 81.425781 194.714844 81.457031 194.683594 81.453125 194.644531 C 81.472656 194.636719 81.476562 194.617188 81.484375 194.597656 C 81.597656 194.289062 81.789062 193.953125 81.851562 193.664062 C 81.9375 193.28125 82.070312 192.867188 81.921875 192.488281 Z M 73.089844 209.425781 C 73.121094 209.378906 73.105469 209.371094 73.191406 209.367188 C 73.191406 209.421875 73.199219 209.484375 73.171875 209.535156 C 73.011719 209.863281 73.058594 209.71875 73.007812 209.859375 C 72.996094 209.863281 72.984375 209.867188 72.972656 209.871094 C 72.9375 209.769531 72.832031 209.539062 73.089844 209.425781 Z M 73.089844 209.425781 "/>
    </g>
    <path style="stroke: none; fill-rule: nonzero; fill-opacity: 1; fill: rgb(255, 255, 255);" d="M 93.917969 156.179688 C 93.476562 156.179688 93.035156 156.222656 92.601562 156.308594 C 92.167969 156.394531 91.746094 156.523438 91.335938 156.695312 C 90.925781 156.863281 90.539062 157.070312 90.167969 157.316406 C 89.800781 157.5625 89.460938 157.84375 89.144531 158.15625 C 88.832031 158.46875 88.554688 158.8125 88.304688 159.179688 C 88.058594 159.546875 87.851562 159.9375 87.683594 160.347656 C 87.511719 160.757812 87.386719 161.179688 87.296875 161.613281 C 87.210938 162.046875 87.167969 162.488281 87.167969 162.929688 C 87.167969 163.371094 87.210938 163.8125 87.296875 164.246094 C 87.386719 164.679688 87.511719 165.101562 87.683594 165.511719 C 87.851562 165.921875 88.058594 166.3125 88.304688 166.679688 C 88.554688 167.046875 88.832031 167.390625 89.144531 167.703125 C 89.460938 168.015625 89.800781 168.296875 90.167969 168.542969 C 90.539062 168.789062 90.925781 168.996094 91.335938 169.164062 C 91.746094 169.335938 92.167969 169.464844 92.601562 169.550781 C 93.035156 169.636719 93.476562 169.679688 93.917969 169.679688 C 94.363281 169.679688 94.800781 169.636719 95.234375 169.550781 C 95.671875 169.464844 96.09375 169.335938 96.503906 169.164062 C 96.910156 168.996094 97.300781 168.789062 97.667969 168.542969 C 98.039062 168.296875 98.378906 168.015625 98.691406 167.703125 C 99.003906 167.390625 99.285156 167.046875 99.53125 166.679688 C 99.777344 166.3125 99.984375 165.921875 100.15625 165.511719 C 100.324219 165.101562 100.453125 164.679688 100.539062 164.246094 C 100.625 163.8125 100.667969 163.371094 100.667969 162.929688 C 100.667969 162.488281 100.625 162.046875 100.539062 161.613281 C 100.453125 161.179688 100.324219 160.757812 100.15625 160.347656 C 99.984375 159.9375 99.777344 159.546875 99.53125 159.179688 C 99.285156 158.8125 99.003906 158.46875 98.691406 158.15625 C 98.378906 157.84375 98.039062 157.5625 97.667969 157.316406 C 97.300781 157.070312 96.910156 156.863281 96.503906 156.695312 C 96.09375 156.523438 95.671875 156.394531 95.234375 156.308594 C 94.800781 156.222656 94.363281 156.179688 93.917969 156.179688 Z M 93.917969 156.179688 "/>
    <path style="stroke: none; fill-rule: nonzero; fill-opacity: 1; fill: rgb(255, 255, 255);" d="M 79.335938 153.140625 C 79.015625 153.140625 78.699219 153.171875 78.386719 153.234375 C 78.070312 153.296875 77.765625 153.386719 77.472656 153.511719 C 77.175781 153.632812 76.894531 153.78125 76.628906 153.960938 C 76.363281 154.136719 76.117188 154.339844 75.890625 154.566406 C 75.664062 154.792969 75.460938 155.039062 75.28125 155.304688 C 75.105469 155.570312 74.957031 155.851562 74.832031 156.148438 C 74.710938 156.445312 74.617188 156.75 74.554688 157.0625 C 74.492188 157.375 74.460938 157.695312 74.460938 158.015625 C 74.460938 158.335938 74.492188 158.652344 74.554688 158.964844 C 74.617188 159.277344 74.710938 159.582031 74.832031 159.878906 C 74.957031 160.175781 75.105469 160.457031 75.28125 160.722656 C 75.460938 160.988281 75.664062 161.234375 75.890625 161.460938 C 76.117188 161.6875 76.363281 161.890625 76.628906 162.066406 C 76.894531 162.246094 77.175781 162.394531 77.472656 162.519531 C 77.765625 162.640625 78.070312 162.734375 78.386719 162.796875 C 78.699219 162.859375 79.015625 162.890625 79.335938 162.890625 C 79.65625 162.890625 79.972656 162.859375 80.289062 162.796875 C 80.601562 162.734375 80.90625 162.640625 81.203125 162.519531 C 81.496094 162.394531 81.777344 162.246094 82.046875 162.066406 C 82.3125 161.890625 82.558594 161.6875 82.785156 161.460938 C 83.011719 161.234375 83.210938 160.988281 83.390625 160.722656 C 83.566406 160.457031 83.71875 160.175781 83.839844 159.878906 C 83.964844 159.582031 84.054688 159.277344 84.117188 158.964844 C 84.179688 158.652344 84.210938 158.335938 84.210938 158.015625 C 84.210938 157.695312 84.179688 157.375 84.117188 157.0625 C 84.054688 156.75 83.964844 156.445312 83.839844 156.148438 C 83.71875 155.851562 83.566406 155.570312 83.390625 155.304688 C 83.210938 155.039062 83.011719 154.792969 82.785156 154.566406 C 82.558594 154.339844 82.3125 154.136719 82.046875 153.960938 C 81.777344 153.78125 81.496094 153.632812 81.203125 153.511719 C 80.90625 153.386719 80.601562 153.296875 80.289062 153.234375 C 79.972656 153.171875 79.65625 153.140625 79.335938 153.140625 Z M 79.335938 153.140625 "/>
    <g style="fill:rgb(22.349548%,22.349548%,22.349548%);fill-opacity:1;">
      <g transform="translate(113.159368, 206.043079)">
        <path style="stroke: none; fill: rgb(255, 255, 255);" d="M 7.953125 -22.71875 L 7.953125 0 L 13.632812 0 L 13.632812 -22.71875 L 16.246094 -22.71875 C 22.039062 -22.71875 23.570312 -18.742188 23.570312 -15.394531 C 23.570312 -6.871094 13.859375 3.011719 11.191406 3.75 L 12.722656 5.226562 C 19.3125 3.863281 29.421875 -2.839844 29.421875 -15.222656 C 29.421875 -24.140625 24.140625 -28.96875 16.246094 -28.96875 L 1.703125 -28.96875 L 1.703125 -22.71875 Z M 7.953125 -22.71875 "/>
      </g>
    </g>
    <g style="fill:rgb(22.349548%,22.349548%,22.349548%);fill-opacity:1;">
      <g transform="translate(144.280877, 206.043079)">
        <path style="stroke: none; fill: rgb(255, 255, 255);" d="M 1.703125 -14.199219 C 1.703125 -5.738281 8.578125 1.136719 17.039062 1.136719 C 25.503906 1.136719 32.375 -5.738281 32.375 -14.199219 C 32.375 -22.664062 25.503906 -29.535156 17.039062 -29.535156 C 8.578125 -29.535156 1.703125 -22.664062 1.703125 -14.199219 Z M 7.382812 -14.199219 C 7.382812 -19.199219 11.699219 -23.289062 17.039062 -23.289062 C 22.378906 -23.289062 26.695312 -19.199219 26.695312 -14.199219 C 26.695312 -9.203125 22.378906 -5.113281 17.039062 -5.113281 C 11.699219 -5.113281 7.382812 -9.203125 7.382812 -14.199219 Z M 7.382812 -14.199219 "/>
      </g>
    </g>
    <g style="fill:rgb(22.349548%,22.349548%,22.349548%);fill-opacity:1;">
      <g transform="translate(178.355513, 206.043079)">
        <path style="stroke: none; fill: rgb(255, 255, 255);" d="M 1.703125 -28.96875 L 1.703125 -22.71875 L 7.953125 -22.71875 L 7.953125 -19.9375 C 7.953125 -7.609375 4.941406 2.160156 2.042969 5.679688 L 4.203125 5.679688 C 9.882812 -0.625 13.632812 -10.28125 13.632812 -20.675781 L 13.632812 -22.71875 L 18.742188 -22.71875 L 18.742188 -28.96875 Z M 1.703125 -28.96875 "/>
      </g>
    </g>
    <g style="fill:rgb(22.349548%,22.349548%,22.349548%);fill-opacity:1;">
      <g transform="translate(198.800302, 206.043079)">
        <path style="stroke: none; fill: rgb(255, 255, 255);" d="M 1.703125 -14.199219 C 1.703125 -5.738281 8.578125 1.136719 17.039062 1.136719 C 25.503906 1.136719 32.375 -5.738281 32.375 -14.199219 C 32.375 -22.664062 25.503906 -29.535156 17.039062 -29.535156 C 8.578125 -29.535156 1.703125 -22.664062 1.703125 -14.199219 Z M 7.382812 -14.199219 C 7.382812 -19.199219 11.699219 -23.289062 17.039062 -23.289062 C 22.378906 -23.289062 26.695312 -19.199219 26.695312 -14.199219 C 26.695312 -9.203125 22.378906 -5.113281 17.039062 -5.113281 C 11.699219 -5.113281 7.382812 -9.203125 7.382812 -14.199219 Z M 7.382812 -14.199219 "/>
      </g>
    </g>
    <g style="fill:rgb(22.349548%,22.349548%,22.349548%);fill-opacity:1;">
      <g transform="translate(232.874938, 206.043079)">
        <path style="stroke: none; fill: rgb(255, 255, 255);" d="M 22.265625 -22.71875 L 22.265625 -15.335938 L 27.945312 -21.015625 L 27.945312 -28.96875 L 17.039062 -28.96875 C 8.691406 -28.96875 1.703125 -22.207031 1.703125 -14.199219 C 1.703125 -5.90625 8.746094 1.136719 17.039062 1.136719 C 20.960938 1.136719 24.878906 -0.339844 27.890625 -3.351562 L 23.855469 -7.382812 C 21.980469 -5.453125 19.480469 -4.542969 17.039062 -4.542969 C 11.8125 -4.542969 7.382812 -8.972656 7.382812 -14.199219 C 7.382812 -18.800781 11.8125 -22.71875 17.039062 -22.71875 Z M 22.265625 -22.71875 "/>
      </g>
    </g>
    <g style="fill:rgb(22.349548%,22.349548%,22.349548%);fill-opacity:1;">
      <g transform="translate(262.519873, 206.043079)">
        <path style="stroke: none; fill: rgb(255, 255, 255);" d="M 13.292969 0.566406 C 11.984375 -1.25 10.621094 -5.625 10.28125 -11.359375 L 20.449219 -11.359375 L 20.449219 0 L 26.128906 0 L 26.128906 -22.71875 L 32.375 -22.71875 L 32.375 -28.96875 L 1.703125 -28.96875 L 1.703125 -22.71875 L 6.363281 -22.71875 C 5.226562 -20.164062 4.542969 -17.4375 4.542969 -14.425781 C 4.542969 -8.578125 7.15625 -3.125 11.132812 0.566406 Z M 12.269531 -22.71875 L 20.449219 -22.71875 L 20.449219 -17.609375 L 10.453125 -17.609375 C 10.734375 -19.425781 11.304688 -21.015625 12.269531 -22.71875 Z M 12.269531 -22.71875 "/>
      </g>
    </g>
    <g style="fill:rgb(22.349548%,22.349548%,22.349548%);fill-opacity:1;">
      <g transform="translate(296.594508, 206.043079)">
        <path style="stroke: none; fill: rgb(255, 255, 255);" d="M 7.953125 -22.71875 L 7.953125 0 L 13.632812 0 L 13.632812 -21.585938 L 20.449219 -14.769531 L 27.265625 -21.585938 L 27.265625 0 L 32.945312 0 L 32.945312 -22.71875 L 39.191406 -22.71875 L 39.191406 -28.96875 L 27.265625 -28.96875 L 20.449219 -22.152344 L 13.632812 -28.96875 L 1.703125 -28.96875 L 1.703125 -22.71875 Z M 7.953125 -22.71875 "/>
      </g>
    </g>
    <path style="stroke: none; fill-rule: nonzero; fill-opacity: 1; fill: rgb(255, 255, 255);" d="M 45.238281 174.726562 L 53.480469 174.726562 L 53.480469 179.976562 L 45.238281 179.976562 Z M 45.238281 174.726562 "/>
  </g>
</svg>