<?xml version="1.0" standalone="no"?>
<!DOCTYPE svg PUBLIC "-//W3C//DTD SVG 20010904//EN"
 "http://www.w3.org/TR/2001/REC-SVG-20010904/DTD/svg10.dtd">
<svg version="1.0" xmlns="http://www.w3.org/2000/svg"
 width="500.000000pt" height="500.000000pt" viewBox="0 0 500.000000 500.000000"
 preserveAspectRatio="xMidYMid meet">

<g transform="translate(0.000000,500.000000) scale(0.100000,-0.100000)"
fill="#000000" stroke="none">
<path d="M3280 3671 c-66 -23 -140 -97 -158 -158 -38 -128 13 -256 127 -315
135 -71 307 -4 361 139 11 30 20 69 20 87 0 179 -181 307 -350 247z"/>
<path d="M2007 3236 c-41 -15 -73 -40 -89 -70 -8 -15 -48 -230 -48 -258 0 -5
-16 -8 -35 -8 -34 0 -35 1 -35 40 l0 40 -155 0 -155 0 0 -40 0 -40 -95 0
c-105 0 -139 -11 -174 -56 -21 -27 -21 -31 -21 -796 0 -849 -3 -810 64 -842
31 -14 144 -16 1230 -16 1317 0 1246 -3 1286 62 20 32 20 48 20 793 0 745 0
761 -20 793 -36 58 -58 62 -373 62 l-284 0 -12 93 c-19 143 -29 174 -67 206
-18 17 -50 35 -71 40 -61 17 -918 14 -966 -3z m941 -208 c6 -35 14 -85 18
-113 8 -64 37 -120 71 -142 24 -16 62 -19 318 -23 l290 -5 3 -697 2 -698
-1150 0 -1150 0 0 700 0 700 283 0 c264 0 284 1 315 20 51 31 68 71 88 201
l17 119 443 0 442 0 10 -62z"/>
<path d="M2390 2706 c-142 -30 -243 -87 -336 -189 -228 -253 -196 -647 71
-864 184 -149 438 -175 649 -66 102 53 215 167 261 264 85 179 85 359 -1 537
-47 98 -159 212 -254 259 -123 62 -271 84 -390 59z m472 -183 c27 -25 18 -114
-14 -134 -6 -4 -1 -21 16 -45 33 -48 33 -71 0 -153 -41 -105 -67 -123 -97 -72
l-17 29 -55 -30 c-60 -32 -56 -23 -95 -193 -12 -49 -30 -124 -41 -166 -21 -85
-24 -113 -9 -104 6 3 10 -2 10 -13 0 -11 16 -27 40 -41 72 -40 47 -58 -68 -45
-87 10 -96 20 -66 76 10 21 17 62 19 113 1 44 8 93 14 108 16 41 14 136 -3
143 -10 4 -12 22 -8 74 5 68 4 70 -27 97 -51 45 -133 90 -289 158 -53 24 -71
27 -122 22 l-60 -5 0 34 c0 19 3 34 8 35 4 0 20 2 36 4 16 2 42 -3 57 -11 15
-7 50 -14 76 -14 26 0 68 -9 92 -20 132 -60 329 -81 352 -38 15 27 1 35 -75
43 -34 3 -85 13 -114 22 -42 13 -60 14 -89 5 -43 -13 -64 -2 -56 29 3 10 8 21
12 23 3 2 62 0 131 -5 69 -5 165 -10 215 -11 l89 -3 8 35 c7 30 14 59 17 68 1
1 22 2 48 2 29 0 53 -6 65 -17z"/>
</g>
</svg>
