<?xml version="1.0" standalone="no"?>
<!DOCTYPE svg PUBLIC "-//W3C//DTD SVG 20010904//EN"
 "http://www.w3.org/TR/2001/REC-SVG-20010904/DTD/svg10.dtd">
<svg version="1.0" xmlns="http://www.w3.org/2000/svg"
 width="500.000000pt" height="500.000000pt" viewBox="0 0 500.000000 500.000000"
 preserveAspectRatio="xMidYMid meet">

<g transform="translate(0.000000,500.000000) scale(0.100000,-0.100000)"
fill="#000000" stroke="none">
<path d="M2658 4163 c7 -3 16 -2 19 1 4 3 -2 6 -13 5 -11 0 -14 -3 -6 -6z"/>
<path d="M2677 3902 c-10 -10 -17 -23 -17 -28 0 -4 7 2 16 14 18 26 31 28 56
5 20 -18 25 -4 6 15 -17 17 -42 15 -61 -6z"/>
<path d="M2218 3869 c-10 -5 -18 -17 -18 -26 0 -11 5 -9 19 8 l19 24 26 -24
c14 -14 26 -20 26 -14 0 12 -33 43 -46 43 -5 0 -17 -5 -26 -11z"/>
<path d="M2453 3863 c-44 -4 -54 -18 -31 -41 17 -17 69 -15 96 4 29 20 29 45
0 42 -13 -1 -42 -3 -65 -5z"/>
<path d="M1912 3233 c37 -2 100 -2 140 0 40 1 10 3 -67 3 -77 0 -110 -1 -73
-3z"/>
<path d="M1631 3094 c0 -11 3 -14 6 -6 3 7 2 16 -1 19 -3 4 -6 -2 -5 -13z"/>
<path d="M1880 2578 c24 -27 45 -48 47 -48 8 0 0 9 -44 50 l-48 45 45 -47z"/>
</g>
</svg>
