<?xml version="1.0" standalone="no"?>
<!DOCTYPE svg PUBLIC "-//W3C//DTD SVG 20010904//EN"
 "http://www.w3.org/TR/2001/REC-SVG-20010904/DTD/svg10.dtd">
<svg version="1.0" xmlns="http://www.w3.org/2000/svg"
 width="500.000000pt" height="500.000000pt" viewBox="0 0 500.000000 500.000000"
 preserveAspectRatio="xMidYMid meet">

<g transform="translate(0.000000,500.000000) scale(0.100000,-0.100000)"
fill="yellow" stroke="none">
<path d="M2416 4409 c-299 -39 -612 -157 -865 -326 -122 -82 -299 -244 -387
-354 -140 -176 -253 -384 -327 -605 -43 -128 -43 -129 -69 -120 -35 12 -75 0
-94 -29 -15 -23 -153 -721 -154 -777 0 -35 32 -68 64 -68 14 0 37 10 51 23 21
18 29 40 47 134 24 130 43 142 53 35 30 -312 122 -598 272 -842 159 -258 403
-482 658 -605 162 -78 421 -156 561 -169 l59 -5 -50 10 c-369 72 -594 164
-824 337 -311 234 -547 625 -630 1042 -20 103 -37 256 -30 274 2 5 27 8 56 7
85 -4 161 40 213 124 11 19 33 100 52 193 36 182 33 212 -22 269 -45 46 -109
61 -182 41 -68 -17 -67 -19 -37 78 183 592 618 1038 1205 1233 446 149 940
130 1318 -50 43 -20 54 -23 38 -9 -30 25 -206 93 -307 119 -190 47 -475 65
-669 40z m-1501 -1554 c17 -16 25 -35 25 -59 0 -44 -35 -218 -49 -244 -16 -31
-74 -47 -108 -30 -36 17 -40 60 -18 188 19 107 37 145 75 159 39 15 49 13 75
-14z"/>
<path d="M3420 4226 c0 -2 8 -10 18 -17 15 -13 16 -12 3 4 -13 16 -21 21 -21
13z"/>
<path d="M3513 4157 c15 -15 27 -29 27 -33 0 -5 -12 -22 -27 -38 -28 -31 -28
-31 7 1 l36 33 37 -31 c20 -17 37 -34 37 -37 0 -4 -45 -56 -100 -117 -56 -60
-121 -137 -146 -170 -51 -67 -44 -59 129 138 66 76 126 136 133 135 26 -6 215
-191 210 -205 -3 -8 -2 -12 2 -9 19 12 181 -183 286 -344 69 -104 136 -221
136 -236 0 -6 -15 -8 -33 -6 -81 9 -173 -45 -208 -123 -12 -28 -28 -43 -51
-52 l-33 -13 33 6 c18 3 32 1 32 -4 0 -33 -44 -213 -59 -242 -22 -43 -75 -77
-95 -61 -13 11 -4 97 25 226 6 28 12 64 15 80 2 17 15 90 29 164 14 73 25 150
25 171 0 61 -49 89 -97 55 -24 -17 -28 -33 -94 -375 -22 -118 -49 -233 -58
-255 -19 -44 -83 -105 -89 -86 -2 6 8 67 22 136 28 131 27 160 -6 208 -38 53
-121 74 -178 44 -22 -11 -28 -11 -38 0 -18 19 -66 16 -93 -5 -17 -15 -27 -42
-44 -128 -17 -92 -24 -109 -39 -109 -14 0 -29 20 -52 66 -25 49 -55 87 -116
144 -46 43 -82 82 -80 87 1 5 -2 7 -7 3 -14 -8 -103 49 -94 60 5 4 2 5 -5 1
-7 -4 -41 4 -76 18 -36 14 -70 26 -78 25 -7 0 10 -9 39 -19 90 -32 190 -90
250 -145 l58 -54 -35 -1 c-19 0 -48 -7 -63 -15 -25 -13 -30 -13 -44 0 -29 30
-95 10 -112 -34 -5 -14 -24 -100 -41 -191 -41 -213 -63 -260 -127 -260 -31 0
-30 26 6 225 19 105 26 166 20 181 -17 46 -77 55 -115 17 -14 -14 -31 -17 -81
-14 -53 2 -70 -1 -107 -23 -56 -33 -68 -60 -100 -226 -29 -146 -40 -169 -104
-214 -86 -61 -212 -40 -212 34 l0 28 58 -5 c70 -6 130 22 176 80 28 35 31 46
31 105 0 79 -18 111 -81 142 -70 35 -165 21 -222 -33 -39 -36 -59 -87 -82
-207 -12 -63 -28 -129 -35 -147 -16 -37 -58 -83 -76 -83 -16 0 -6 97 20 178
18 59 18 62 1 62 -15 0 -18 8 -17 48 1 54 -22 96 -64 118 -35 18 -116 18 -148
0 -15 -8 -40 -12 -63 -8 -49 6 -76 -16 -84 -70 -4 -21 -11 -41 -15 -44 -5 -3
-7 -9 -4 -14 6 -9 -12 -116 -25 -147 -7 -17 -19 -23 -52 -26 l-43 -4 47 -1 46
-2 -13 -57 c-10 -42 -22 -65 -44 -85 -36 -32 -44 -34 -64 -13 -13 12 -13 24
-1 87 8 40 22 116 31 168 9 52 20 97 23 100 4 3 -1 19 -10 35 -13 23 -25 31
-52 33 -22 2 -39 -3 -48 -12 -7 -9 -22 -17 -34 -17 -14 -1 -16 -3 -5 -6 13 -3
13 -16 -7 -116 -46 -234 -49 -264 -34 -310 10 -27 27 -50 50 -65 31 -21 43
-23 100 -18 36 3 81 7 100 9 86 7 101 28 127 171 l17 96 49 0 49 0 -6 -43
c-13 -83 36 -153 114 -163 l46 -6 16 -62 c9 -33 15 -62 14 -64 -2 -1 -40 -9
-86 -17 -99 -17 -124 -35 -117 -82 5 -29 2 -35 -24 -48 -16 -9 -29 -18 -29
-21 0 -2 10 1 23 8 20 11 217 39 226 32 3 -3 -12 -101 -34 -219 -74 -400 -77
-418 -66 -441 22 -48 109 -39 130 14 6 15 31 140 57 277 26 138 51 254 55 260
6 5 28 -9 57 -36 26 -25 69 -61 95 -80 47 -32 49 -36 44 -72 -4 -26 -20 -56
-53 -95 l-48 -57 45 42 44 42 -3 -44 c-11 -129 93 -212 243 -194 66 8 163 45
196 75 15 13 20 12 53 -7 46 -27 119 -23 163 9 17 12 33 19 37 15 3 -3 6 1 6
11 0 15 2 15 31 1 39 -21 119 -21 158 -2 19 9 45 13 68 10 33 -4 42 -1 69 29
17 18 29 38 27 43 -1 6 8 70 21 144 22 125 25 137 55 163 18 16 36 26 41 23 6
-3 7 0 5 8 -3 7 3 22 15 32 20 18 20 18 20 -8 0 -14 -5 -29 -10 -32 -6 -4 -8
-10 -5 -15 3 -4 -6 -63 -20 -131 -39 -190 -35 -219 29 -219 52 0 71 31 96 155
12 61 24 112 25 114 2 1 22 -7 44 -20 39 -21 41 -25 41 -69 0 -106 100 -157
221 -114 l47 17 148 -78 c162 -84 268 -150 298 -183 19 -21 18 -22 -24 -79
-112 -151 -337 -339 -503 -419 l-58 -28 -25 29 -26 30 22 -32 21 -32 -28 -14
c-50 -25 -176 -70 -273 -98 -52 -15 -88 -28 -79 -28 30 -2 213 57 322 103 298
125 567 353 717 609 12 20 20 37 17 37 -3 0 -16 -18 -28 -40 -13 -22 -25 -39
-28 -38 -4 2 -44 29 -91 60 -47 31 -152 91 -233 133 l-147 77 34 40 c42 48 62
89 77 155 14 61 6 99 -22 106 -42 11 -67 -9 -85 -67 -19 -59 -22 -62 -57 -45
-21 10 -21 9 -3 -5 10 -8 24 -17 30 -19 17 -6 -48 -82 -74 -85 -36 -6 -43 10
-30 72 6 31 14 56 18 56 4 0 8 17 8 38 1 20 5 64 8 97 6 50 4 65 -12 91 -49
78 -166 83 -264 12 -26 -19 -32 -4 -18 49 25 99 24 158 -6 358 l-6 40 109 1
c117 1 186 19 253 69 l33 25 32 -20 c50 -31 128 -27 192 10 29 17 57 39 63 50
10 19 11 19 45 -2 77 -45 220 -32 325 30 25 15 48 25 53 24 4 -1 7 3 7 9 0 5
14 27 30 48 30 37 70 134 70 169 0 27 -20 42 -56 42 -36 0 -47 -10 -64 -63 -6
-20 -16 -35 -21 -32 -5 4 -9 -5 -9 -18 0 -29 -55 -82 -106 -103 -19 -8 -56
-14 -84 -14 -59 0 -90 24 -90 69 0 28 1 28 44 24 76 -9 114 4 167 57 26 26 49
44 51 39 2 -5 4 21 5 57 4 79 -13 122 -61 159 -21 16 -54 60 -80 109 -144 263
-359 527 -591 725 -95 81 -202 163 -152 118z m739 -1051 c29 -43 -13 -101 -69
-94 -25 3 -28 7 -24 33 5 44 19 65 44 65 18 0 19 2 7 11 -11 8 -9 9 10 3 14
-4 28 -12 32 -18z m-736 -121 c3 -14 3 -33 -2 -42 -4 -10 -6 -22 -5 -28 5 -19
-32 -190 -45 -212 -17 -27 -51 -38 -69 -23 -18 15 -19 49 -3 141 9 56 16 73
32 79 17 7 18 9 4 9 -21 1 -23 18 -7 58 13 34 26 43 61 43 21 0 29 -6 34 -25z
m-488 -57 c17 -17 15 -47 -9 -177 -23 -120 -42 -155 -81 -149 -40 6 -43 28
-21 163 12 69 29 137 37 151 18 26 54 32 74 12z m208 -93 c20 -50 5 -100 -46
-150 -22 -21 -42 -36 -45 -33 -5 5 9 86 35 206 11 51 13 52 26 33 8 -11 22
-37 30 -56z m-721 5 c18 -19 18 -28 6 -123 -18 -148 -55 -216 -102 -187 -30
19 13 298 49 319 24 14 26 14 47 -9z m745 10 c0 -5 -4 -10 -10 -10 -5 0 -10 5
-10 10 0 6 5 10 10 10 6 0 10 -4 10 -10z m-1172 -62 c5 -7 13 -23 16 -35 10
-32 -32 -73 -75 -73 -31 0 -32 0 -26 41 8 63 57 101 85 67z m-490 -71 c7 -9 6
-36 -4 -92 -7 -44 -14 -83 -14 -87 0 -5 -22 -8 -50 -8 -56 0 -56 0 -37 85 11
45 15 50 42 54 29 4 29 4 6 10 l-25 7 24 22 c27 25 43 28 58 9z m162 -74 c0
-5 -9 -35 -20 -68 l-20 -60 5 59 c3 32 8 63 11 67 6 11 24 12 24 2z m1424
-182 c-20 -115 -16 -153 17 -165 14 -5 38 -6 53 -2 34 8 50 44 66 149 9 53 16
75 23 68 17 -17 21 -269 5 -321 l-14 -45 -61 -5 c-34 -3 -67 -10 -73 -16 -7
-7 -29 -9 -55 -7 -66 8 -78 -10 -106 -163 -17 -92 -29 -134 -43 -148 -14 -14
-15 -18 -4 -14 13 6 14 1 6 -35 -5 -23 -20 -56 -33 -73 -27 -36 -73 -53 -86
-32 -9 14 -1 78 11 92 5 5 6 14 3 22 -2 7 5 59 16 115 25 123 26 167 4 191
-22 25 -75 23 -98 -2 -16 -17 -26 -20 -62 -14 -60 9 -124 -11 -162 -50 -27
-28 -35 -50 -61 -169 -16 -76 -30 -140 -30 -142 0 -3 -15 -6 -32 -6 l-33 -2
34 -6 35 -6 -34 -38 c-34 -39 -83 -69 -132 -81 l-26 -6 16 51 c14 44 23 54 58
71 56 28 89 89 89 166 0 99 -60 155 -165 155 -98 0 -170 -54 -201 -151 l-14
-43 -50 33 c-27 18 -73 55 -103 83 l-54 50 14 55 13 54 76 12 c99 15 117 21
130 46 15 27 3 67 -23 77 -12 4 -71 0 -137 -10 -64 -10 -133 -20 -153 -23
l-37 -6 -16 52 c-21 73 -20 85 13 91 15 3 48 24 73 46 l46 40 44 -22 c84 -42
233 -23 324 42 l39 28 28 -20 c45 -33 117 -29 173 11 44 31 45 31 82 15 26
-10 53 -13 89 -9 l51 6 -15 -90 c-19 -115 -11 -140 46 -140 58 0 71 22 97 157
l22 118 54 -3 c60 -3 186 18 239 41 19 8 36 14 37 13 0 -1 -5 -39 -13 -85z
m-1464 2 c0 -35 -3 -44 -11 -36 -7 7 -9 25 -5 47 9 50 16 45 16 -11z m1790
-409 c11 -12 10 -32 -4 -108 -10 -50 -21 -98 -25 -105 -11 -18 -81 25 -81 49
0 52 25 126 50 152 33 32 42 34 60 12z m-249 -41 c-12 -22 -91 -100 -91 -90 0
4 7 24 15 44 17 40 41 62 68 63 14 0 16 -4 8 -17z m-500 -100 c8 -20 7 -51 -3
-113 -12 -76 -15 -85 -38 -91 -24 -7 -24 -7 -2 -8 12 -1 22 -7 22 -13 0 -25
-40 -78 -58 -78 -44 0 -59 64 -19 80 17 7 18 9 5 9 -10 1 -18 7 -18 14 0 14
18 129 26 170 12 59 67 78 85 30z m-437 -39 c21 -20 20 -63 -1 -86 -22 -24
-98 -26 -89 -2 3 9 6 24 6 35 0 20 42 69 59 69 5 0 17 -7 25 -16z m-44 -226
c27 0 50 -3 50 -6 0 -4 -7 -26 -17 -50 -15 -39 -19 -43 -42 -37 -40 10 -61 35
-61 72 0 20 4 32 10 28 5 -3 32 -6 60 -7z"/>
<path d="M2940 1780 c-8 -5 -10 -10 -5 -10 6 0 17 5 25 10 8 5 11 10 5 10 -5
0 -17 -5 -25 -10z"/>
<path d="M3460 1996 c0 -3 9 -10 20 -16 11 -6 20 -8 20 -6 0 3 -9 10 -20 16
-11 6 -20 8 -20 6z"/>
<path d="M3385 3948 l-100 -103 103 100 c56 55 102 101 102 102 0 8 -12 -4
-105 -99z"/>
<path d="M2858 3893 c-34 -39 -50 -93 -28 -93 6 0 10 6 10 14 0 7 9 25 21 40
30 39 71 35 106 -9 15 -19 31 -35 36 -35 17 0 5 32 -24 65 -25 28 -38 35 -68
35 -24 0 -44 -7 -53 -17z"/>
<path d="M1931 3814 c-21 -15 -51 -70 -51 -94 0 -21 18 -9 28 18 24 69 68 79
118 27 40 -43 60 -46 39 -6 -19 37 -61 71 -89 71 -12 0 -32 -7 -45 -16z"/>
<path d="M2485 3804 c-27 -7 -75 -14 -106 -14 -65 0 -87 -16 -69 -49 51 -97
270 -61 270 45 0 39 -11 42 -95 18z"/>
<path d="M3239 3793 l-24 -28 28 24 c25 23 32 31 24 31 -2 0 -14 -12 -28 -27z"/>
<path d="M3734 3717 c-49 -51 -104 -113 -123 -137 -26 -36 -23 -34 15 10 27
30 84 92 128 138 44 45 77 82 74 82 -3 0 -46 -42 -94 -93z"/>
<path d="M1380 3787 c0 -2 15 -16 33 -33 l32 -29 -29 33 c-28 30 -36 37 -36
29z"/>
<path d="M3189 3733 c-13 -16 -12 -17 4 -4 9 7 17 15 17 17 0 8 -8 3 -21 -13z"/>
<path d="M3159 3693 c-13 -16 -12 -17 4 -4 9 7 17 15 17 17 0 8 -8 3 -21 -13z"/>
<path d="M3319 3683 c-13 -16 -12 -17 4 -4 16 13 21 21 13 21 -2 0 -10 -8 -17
-17z"/>
<path d="M1595 3560 c66 -66 122 -120 125 -120 2 0 -49 54 -115 120 -66 66
-122 120 -125 120 -2 0 49 -54 115 -120z"/>
<path d="M3289 3643 c-13 -16 -12 -17 4 -4 9 7 17 15 17 17 0 8 -8 3 -21 -13z"/>
<path d="M3070 3560 c-6 -11 -8 -20 -6 -20 3 0 10 9 16 20 6 11 8 20 6 20 -3
0 -10 -9 -16 -20z"/>
<path d="M3220 3540 c-6 -11 -8 -20 -6 -20 3 0 10 9 16 20 6 11 8 20 6 20 -3
0 -10 -9 -16 -20z"/>
<path d="M3554 3508 l-19 -23 23 19 c12 11 22 21 22 23 0 8 -8 2 -26 -19z"/>
<path d="M3509 3453 l-24 -28 28 24 c25 23 32 31 24 31 -2 0 -14 -12 -28 -27z"/>
<path d="M2990 3420 c-6 -11 -8 -20 -6 -20 3 0 10 9 16 20 6 11 8 20 6 20 -3
0 -10 -9 -16 -20z"/>
<path d="M1838 3296 c179 -203 185 -211 167 -226 -12 -10 -22 -8 -53 12 -81
54 -92 60 -92 55 0 -3 23 -20 51 -38 28 -18 57 -38 64 -45 10 -10 21 -4 56 34
24 25 35 39 23 29 -11 -9 -23 -17 -26 -17 -3 0 -62 64 -131 143 -69 78 -138
153 -153 167 -15 14 27 -37 94 -114z"/>
<path d="M3449 3383 l-34 -38 38 34 c20 19 37 36 37 38 0 8 -8 0 -41 -34z"/>
<path d="M1480 3356 c0 -3 9 -10 20 -16 11 -6 20 -8 20 -6 0 3 -9 10 -20 16
-11 6 -20 8 -20 6z"/>
<path d="M1530 3326 c0 -3 9 -10 20 -16 11 -6 20 -8 20 -6 0 3 -9 10 -20 16
-11 6 -20 8 -20 6z"/>
<path d="M2533 3303 c9 -2 25 -2 35 0 9 3 1 5 -18 5 -19 0 -27 -2 -17 -5z"/>
<path d="M2428 3293 c6 -2 18 -2 25 0 6 3 1 5 -13 5 -14 0 -19 -2 -12 -5z"/>
<path d="M2633 3293 c9 -2 23 -2 30 0 6 3 -1 5 -18 5 -16 0 -22 -2 -12 -5z"/>
<path d="M3325 3248 l-50 -53 53 50 c48 46 57 55 49 55 -1 0 -25 -24 -52 -52z"/>
<path d="M1600 3286 c0 -3 14 -12 30 -21 17 -9 30 -13 30 -11 0 3 -13 12 -30
21 -16 9 -30 13 -30 11z"/>
<path d="M2688 3283 c6 -2 18 -2 25 0 6 3 1 5 -13 5 -14 0 -19 -2 -12 -5z"/>
<path d="M1690 3236 c0 -3 9 -10 20 -16 11 -6 20 -8 20 -6 0 3 -9 10 -20 16
-11 6 -20 8 -20 6z"/>
<path d="M1760 3196 c0 -3 9 -10 20 -16 11 -6 20 -8 20 -6 0 3 -9 10 -20 16
-11 6 -20 8 -20 6z"/>
<path d="M1810 3166 c0 -3 9 -10 20 -16 11 -6 20 -8 20 -6 0 3 -9 10 -20 16
-11 6 -20 8 -20 6z"/>
<path d="M1191 3004 c-28 -36 -26 -60 8 -95 35 -34 59 -36 95 -8 30 24 35 72
10 107 -23 33 -86 31 -113 -4z"/>
<path d="M4467 2705 c3 -27 7 -52 9 -54 7 -8 2 54 -6 79 -6 17 -7 9 -3 -25z"/>
<path d="M1308 2703 c6 -2 18 -2 25 0 6 3 1 5 -13 5 -14 0 -19 -2 -12 -5z"/>
<path d="M4482 2610 c0 -19 2 -27 5 -17 2 9 2 25 0 35 -3 9 -5 1 -5 -18z"/>
<path d="M4494 2390 c0 -193 -9 -280 -45 -442 -19 -85 -25 -98 -43 -99 -17 -1
-18 -2 -3 -6 21 -5 21 2 -3 -68 -11 -32 -18 -60 -16 -62 7 -7 55 148 81 262
33 145 51 370 39 500 -9 97 -9 94 -10 -85z"/>
<path d="M1578 2313 c6 -2 18 -2 25 0 6 3 1 5 -13 5 -14 0 -19 -2 -12 -5z"/>
<path d="M1488 2303 c6 -2 18 -2 25 0 6 3 1 5 -13 5 -14 0 -19 -2 -12 -5z"/>
<path d="M953 2273 c9 -2 25 -2 35 0 9 3 1 5 -18 5 -19 0 -27 -2 -17 -5z"/>
<path d="M838 2263 c7 -3 16 -2 19 1 4 3 -2 6 -13 5 -11 0 -14 -3 -6 -6z"/>
<path d="M3620 2172 c8 -5 26 -13 40 -16 17 -5 20 -4 10 2 -8 5 -26 13 -40 16
-17 5 -20 4 -10 -2z"/>
<path d="M3691 2146 c2 -2 97 -45 212 -95 114 -50 242 -109 286 -131 85 -44
155 -70 180 -69 9 0 -9 8 -39 18 -30 10 -109 45 -175 78 -163 82 -487 221
-464 199z"/>
<path d="M1328 1919 c-54 -27 -98 -51 -98 -54 0 -3 45 17 100 45 55 28 100 52
100 55 0 7 6 9 -102 -46z"/>
<path d="M3850 1787 c0 -9 339 -196 385 -213 64 -22 69 -27 56 -53 -7 -12 -9
-21 -6 -21 7 0 95 183 94 196 0 5 -16 -24 -34 -64 -31 -66 -37 -73 -57 -67
-42 12 -191 85 -272 134 -87 52 -166 94 -166 88z"/>
<path d="M1589 1753 c-13 -16 -12 -17 4 -4 9 7 17 15 17 17 0 8 -8 3 -21 -13z"/>
<path d="M1534 1708 l-19 -23 23 19 c21 18 27 26 19 26 -2 0 -12 -10 -23 -22z"/>
<path d="M1474 1658 l-19 -23 23 19 c21 18 27 26 19 26 -2 0 -12 -10 -23 -22z"/>
<path d="M1365 1558 l-40 -43 43 40 c39 36 47 45 39 45 -2 0 -21 -19 -42 -42z"/>
<path d="M1964 1568 c-30 -34 -47 -58 -42 -58 3 0 19 18 37 40 34 43 38 55 5
18z"/>
<path d="M3160 1550 c6 -11 13 -20 16 -20 2 0 0 9 -6 20 -6 11 -13 20 -16 20
-2 0 0 -9 6 -20z"/>
<path d="M1903 1488 c-15 -20 -25 -38 -20 -38 3 0 12 11 21 25 17 26 16 35 -1
13z"/>
<path d="M3210 1470 c6 -11 13 -20 16 -20 2 0 0 9 -6 20 -6 11 -13 20 -16 20
-2 0 0 -9 6 -20z"/>
<path d="M2901 1474 c-1 -5 10 -41 23 -80 14 -38 25 -64 25 -58 1 5 -10 41
-23 80 -14 38 -25 64 -25 58z"/>
<path d="M2631 1434 c0 -11 3 -14 6 -6 3 7 2 16 -1 19 -3 4 -6 -2 -5 -13z"/>
<path d="M3239 1425 c5 -11 17 -29 26 -40 l16 -20 -10 20 c-5 11 -17 29 -26
40 l-16 20 10 -20z"/>
<path d="M2781 1414 c0 -11 3 -14 6 -6 3 7 2 16 -1 19 -3 4 -6 -2 -5 -13z"/>
<path d="M1840 1390 c-6 -11 -8 -20 -6 -20 3 0 10 9 16 20 6 11 8 20 6 20 -3
0 -10 -9 -16 -20z"/>
<path d="M2197 1325 c-20 -41 -35 -75 -32 -75 7 0 77 141 73 146 -2 2 -21 -30
-41 -71z"/>
<path d="M2642 1380 c0 -14 2 -19 5 -12 2 6 2 18 0 25 -3 6 -5 1 -5 -13z"/>
<path d="M2792 1350 c0 -14 2 -19 5 -12 2 6 2 18 0 25 -3 6 -5 1 -5 -13z"/>
<path d="M3286 1348 c36 -60 87 -138 91 -138 3 0 -1 10 -9 23 -9 12 -30 46
-47 75 -18 28 -35 52 -37 52 -3 0 -2 -6 2 -12z"/>
<path d="M1795 1310 c-9 -16 -13 -30 -11 -30 3 0 12 14 21 30 9 17 13 30 11
30 -3 0 -12 -13 -21 -30z"/>
<path d="M2652 1310 c0 -14 2 -19 5 -12 2 6 2 18 0 25 -3 6 -5 1 -5 -13z"/>
<path d="M2951 1310 c0 -8 4 -24 9 -35 5 -13 9 -14 9 -5 0 8 -4 24 -9 35 -5
13 -9 14 -9 5z"/>
<path d="M2801 1284 c0 -11 3 -14 6 -6 3 7 2 16 -1 19 -3 4 -6 -2 -5 -13z"/>
<path d="M2662 1250 c0 -14 2 -19 5 -12 2 6 2 18 0 25 -3 6 -5 1 -5 -13z"/>
<path d="M1750 1230 c-6 -11 -8 -20 -6 -20 3 0 10 9 16 20 6 11 8 20 6 20 -3
0 -10 -9 -16 -20z"/>
<path d="M2971 1234 c0 -11 3 -14 6 -6 3 7 2 16 -1 19 -3 4 -6 -2 -5 -13z"/>
<path d="M2812 1220 c0 -14 2 -19 5 -12 2 6 2 18 0 25 -3 6 -5 1 -5 -13z"/>
<path d="M2672 1185 c0 -16 2 -22 5 -12 2 9 2 23 0 30 -3 6 -5 -1 -5 -18z"/>
<path d="M2981 1205 c0 -5 6 -32 13 -60 8 -27 14 -41 14 -30 0 21 -25 107 -27
90z"/>
<path d="M2120 1180 c-6 -11 -8 -20 -6 -20 3 0 10 9 16 20 6 11 8 20 6 20 -3
0 -10 -9 -16 -20z"/>
<path d="M3397 1169 c10 -17 24 -36 32 -42 8 -7 2 7 -14 31 -32 49 -45 57 -18
11z"/>
<path d="M2821 1154 c0 -11 3 -14 6 -6 3 7 2 16 -1 19 -3 4 -6 -2 -5 -13z"/>
<path d="M2682 1125 c0 -16 4 -43 8 -60 11 -42 11 -1 1 50 -7 34 -9 35 -9 10z"/>
<path d="M2080 1110 c-6 -11 -8 -20 -6 -20 3 0 10 9 16 20 6 11 8 20 6 20 -3
0 -10 -9 -16 -20z"/>
<path d="M2831 1094 c0 -11 3 -14 6 -6 3 7 2 16 -1 19 -3 4 -6 -2 -5 -13z"/>
<path d="M3011 1074 c0 -11 3 -14 6 -6 3 7 2 16 -1 19 -3 4 -6 -2 -5 -13z"/>
<path d="M2842 1040 c0 -14 2 -19 5 -12 2 6 2 18 0 25 -3 6 -5 1 -5 -13z"/>
<path d="M2030 1030 c-6 -11 -8 -20 -6 -20 3 0 10 9 16 20 6 11 8 20 6 20 -3
0 -10 -9 -16 -20z"/>
<path d="M3021 1034 c0 -11 3 -14 6 -6 3 7 2 16 -1 19 -3 4 -6 -2 -5 -13z"/>
<path d="M3480 1046 c0 -2 8 -10 18 -17 15 -13 16 -12 3 4 -13 16 -21 21 -21
13z"/>
<path d="M2702 1005 c0 -16 2 -22 5 -12 2 9 2 23 0 30 -3 6 -5 -1 -5 -18z"/>
<path d="M3030 1006 c0 -19 34 -137 62 -208 31 -81 36 -85 88 -68 21 7 18 8
-15 7 l-40 -2 -47 140 c-26 77 -47 136 -48 131z"/>
<path d="M1589 983 c-13 -16 -12 -17 4 -4 16 13 21 21 13 21 -2 0 -10 -8 -17
-17z"/>
<path d="M2000 980 c-6 -11 -8 -20 -6 -20 3 0 10 9 16 20 6 11 8 20 6 20 -3 0
-10 -9 -16 -20z"/>
<path d="M2851 984 c0 -11 3 -14 6 -6 3 7 2 16 -1 19 -3 4 -6 -2 -5 -13z"/>
<path d="M3530 976 c0 -2 8 -10 18 -17 15 -13 16 -12 3 4 -13 16 -21 21 -21
13z"/>
<path d="M2712 950 c0 -14 2 -19 5 -12 2 6 2 18 0 25 -3 6 -5 1 -5 -13z"/>
<path d="M2861 934 c0 -11 3 -14 6 -6 3 7 2 16 -1 19 -3 4 -6 -2 -5 -13z"/>
<path d="M1950 900 c-6 -11 -8 -20 -6 -20 3 0 10 9 16 20 6 11 8 20 6 20 -3 0
-10 -9 -16 -20z"/>
<path d="M2722 900 c0 -14 2 -19 5 -12 2 6 2 18 0 25 -3 6 -5 1 -5 -13z"/>
<path d="M2871 894 c0 -11 3 -14 6 -6 3 7 2 16 -1 19 -3 4 -6 -2 -5 -13z"/>
<path d="M2732 850 c0 -14 4 -38 8 -55 7 -27 8 -27 8 -5 0 14 -4 39 -8 55 -7
27 -8 27 -8 5z"/>
<path d="M2881 844 c0 -11 3 -14 6 -6 3 7 2 16 -1 19 -3 4 -6 -2 -5 -13z"/>
<path d="M1910 830 c-6 -11 -8 -20 -6 -20 3 0 10 9 16 20 6 11 8 20 6 20 -3 0
-10 -9 -16 -20z"/>
<path d="M2891 804 c0 -11 3 -14 6 -6 3 7 2 16 -1 19 -3 4 -6 -2 -5 -13z"/>
<path d="M2752 735 c0 -16 2 -22 5 -12 2 9 2 23 0 30 -3 6 -5 -1 -5 -18z"/>
<path d="M2911 734 c0 -11 3 -14 6 -6 3 7 2 16 -1 19 -3 4 -6 -2 -5 -13z"/>
<path d="M3073 713 c9 -2 23 -2 30 0 6 3 -1 5 -18 5 -16 0 -22 -2 -12 -5z"/>
<path d="M2914 699 c-3 -5 9 -9 25 -9 17 0 31 2 31 4 0 8 -51 13 -56 5z"/>
<path d="M3003 703 c9 -2 25 -2 35 0 9 3 1 5 -18 5 -19 0 -27 -2 -17 -5z"/>
<path d="M2308 693 c12 -2 30 -2 40 0 9 3 -1 5 -23 4 -22 0 -30 -2 -17 -4z"/>
<path d="M2755 690 c-3 -5 -1 -10 4 -10 6 0 11 5 11 10 0 6 -2 10 -4 10 -3 0
-8 -4 -11 -10z"/>
<path d="M2413 683 c15 -2 39 -2 55 0 15 2 2 4 -28 4 -30 0 -43 -2 -27 -4z"/>
<path d="M2813 683 c15 -2 37 -2 50 0 12 2 0 4 -28 4 -27 0 -38 -2 -22 -4z"/>
<path d="M2613 673 c15 -2 39 -2 55 0 15 2 2 4 -28 4 -30 0 -43 -2 -27 -4z"/>
</g>
</svg>
