<?xml version="1.0" standalone="no"?>
<!DOCTYPE svg PUBLIC "-//W3C//DTD SVG 20010904//EN"
 "http://www.w3.org/TR/2001/REC-SVG-20010904/DTD/svg10.dtd">
<svg version="1.0" xmlns="http://www.w3.org/2000/svg"
 width="500.000000pt" height="500.000000pt" viewBox="0 0 500.000000 500.000000"
 preserveAspectRatio="xMidYMid meet">

<g transform="translate(0.000000,500.000000) scale(0.100000,-0.100000)"
fill="black" stroke="transparent" fill-opacity="0.5">
<path d="M0 2500 l0 -2500 2500 0 2500 0 0 2500 0 2500 -2500 0 -2500 0 0
-2500z m2689 1640 c124 -35 201 -70 256 -119 22 -20 72 -57 110 -83 39 -26
107 -84 151 -130 126 -129 189 -233 246 -401 58 -171 50 -389 -20 -555 -36
-87 -114 -201 -188 -277 -73 -76 -194 -167 -212 -160 -7 3 -10 0 -7 -5 4 -6
-30 -28 -77 -50 -266 -124 -550 -119 -846 16 -42 20 -93 43 -112 51 -30 13
-100 59 -148 97 -196 154 -320 401 -335 666 -5 75 9 226 25 285 7 22 12 42 13
45 14 60 69 170 117 235 24 33 47 67 50 76 4 9 42 48 85 86 213 188 377 251
653 251 119 0 148 -3 239 -28z m-1779 -1942 c63 -33 85 -68 84 -134 0 -99 -56
-143 -189 -152 l-85 -5 0 -84 0 -84 -72 3 -73 3 -3 225 c-1 123 0 230 2 237 4
10 42 13 149 13 128 0 147 -2 187 -22z m288 -215 l-3 -238 -70 0 -70 0 -3 238
-2 237 75 0 75 0 -2 -237z m287 122 c44 -63 83 -114 88 -115 4 0 7 52 7 115
l0 115 55 0 55 0 0 -240 0 -240 -55 0 -56 0 -92 126 -92 125 -5 -123 -5 -123
-57 -3 -58 -3 0 241 0 240 68 0 67 0 80 -115z m653 68 l-3 -48 -110 -5 -110
-5 -3 -37 -3 -37 68 -3 68 -3 3 -52 3 -53 -70 0 -71 0 0 -40 0 -40 115 0 115
0 0 -55 0 -55 -187 2 -188 3 -3 238 -2 237 190 0 191 0 -3 -47z m451 -185 c45
-128 81 -236 81 -240 0 -5 -33 -8 -74 -8 l-74 0 -14 43 -15 42 -79 3 -79 3
-15 -43 -15 -43 -62 -3 c-35 -2 -63 1 -63 5 0 4 37 113 82 241 l83 232 81 0
81 0 82 -232z m482 205 c52 -33 73 -78 67 -143 -5 -45 -11 -59 -41 -86 -41
-38 -90 -54 -169 -54 l-57 0 -3 -82 -3 -83 -72 -3 -73 -3 0 241 0 242 158 -4
c142 -3 161 -5 193 -25z m459 5 c63 -33 85 -68 84 -134 0 -99 -56 -143 -189
-152 l-85 -5 0 -84 0 -84 -72 3 -73 3 -3 225 c-1 123 0 230 2 237 4 10 42 13
149 13 128 0 147 -2 187 -22z m290 -163 l0 -184 108 -3 107 -3 0 -50 0 -50
-180 0 -180 0 -3 238 -2 237 75 0 75 0 0 -185z m640 135 l0 -49 -107 -3 -108
-3 -3 -37 -3 -38 55 0 c80 0 86 -4 86 -61 l0 -49 -70 0 -70 0 0 -40 0 -39 113
-3 112 -3 3 -52 3 -53 -190 0 -191 0 0 240 0 240 185 0 185 0 0 -50z m-2576
-736 c10 -10 16 -33 16 -64 0 -60 -14 -70 -94 -70 l-56 0 -2 -197 -3 -198 -90
0 -90 0 -3 198 -2 197 -56 0 c-80 0 -94 10 -94 70 0 80 -1 80 245 80 181 0
216 -2 229 -16z m464 4 c16 -16 16 -110 0 -126 -8 -8 -50 -12 -125 -12 l-113
0 0 -30 0 -30 74 0 c58 0 75 -3 80 -16 10 -27 7 -99 -6 -112 -7 -7 -40 -12
-80 -12 l-68 0 0 -30 0 -30 120 0 c133 0 140 -3 140 -74 0 -69 10 -66 -225
-66 -212 0 -213 0 -219 23 -3 12 -6 129 -6 259 0 202 2 239 16 252 13 13 46
16 208 16 136 0 195 -3 204 -12z m395 0 c18 -14 187 -479 187 -516 0 -22 -2
-23 -92 -20 l-92 3 -15 48 -15 47 -71 0 -71 0 -21 -50 -21 -50 -71 0 c-54 0
-73 4 -77 15 -8 19 165 506 184 523 10 7 45 12 87 12 41 0 78 -5 88 -12z m459
0 c9 -7 30 -58 48 -112 l33 -100 31 103 c17 56 38 106 46 111 18 12 210 13
228 2 9 -7 12 -68 10 -273 l-3 -264 -86 -3 c-103 -3 -98 -10 -100 148 l-1 105
-41 -125 -42 -125 -60 0 -60 0 -42 125 -42 125 -1 -115 c0 -63 -4 -121 -9
-128 -5 -9 -28 -12 -77 -10 l-69 3 -3 259 c-2 182 1 263 9 272 15 19 208 20
231 2z"/>
<path d="M2240 4121 c-99 -24 -196 -56 -237 -79 -49 -29 -173 -125 -173 -135
0 -7 16 -27 36 -45 l36 -33 40 36 c107 98 261 174 423 211 102 24 294 24 380
1 32 -9 61 -15 62 -13 7 7 -105 46 -172 60 -39 8 -117 17 -175 19 -89 4 -123
0 -220 -22z"/>
<path d="M2677 3902 c-10 -10 -17 -23 -17 -28 0 -4 7 2 16 14 18 26 31 28 56
5 20 -18 25 -4 6 15 -17 17 -42 15 -61 -6z"/>
<path d="M1774 3852 l-22 -27 48 -27 c41 -23 50 -25 60 -13 7 9 9 22 5 32 -5
10 -7 22 -6 26 1 5 -3 6 -7 3 -5 -3 -17 3 -27 14 -23 25 -25 25 -51 -8z"/>
<path d="M2218 3869 c-10 -5 -18 -17 -18 -26 0 -11 5 -9 19 8 l19 24 26 -24
c14 -14 26 -20 26 -14 0 12 -33 43 -46 43 -5 0 -17 -5 -26 -11z"/>
<path d="M2453 3863 c-44 -4 -54 -18 -31 -41 17 -17 69 -15 96 4 29 20 29 45
0 42 -13 -1 -42 -3 -65 -5z"/>
<path d="M1678 3727 c-63 -97 -105 -200 -128 -309 -7 -35 -5 -38 15 -38 12 0
35 -3 51 -6 28 -5 29 -4 48 61 24 83 76 194 122 258 19 26 32 52 29 58 -5 8
-78 49 -87 49 -2 0 -24 -33 -50 -73z"/>
<path d="M2430 3571 c-105 -35 -195 -118 -249 -231 -34 -72 -36 -80 -37 -187
0 -62 3 -110 7 -108 4 3 9 -5 13 -18 9 -38 67 -117 97 -132 15 -8 37 -15 49
-15 12 0 19 -3 17 -7 -8 -13 114 -14 173 -2 107 22 212 94 252 173 28 54 49
186 42 253 -10 85 -79 189 -164 248 -29 20 -53 27 -106 30 -38 3 -80 1 -94 -4z"/>
<path d="M2741 3495 c18 -42 54 -85 70 -85 14 0 18 4 12 13 -10 18 -88 85 -82
72z"/>
<path d="M2810 3366 c0 -42 19 -64 59 -68 28 -2 37 0 30 8 -5 6 -6 14 -2 17 3
4 1 7 -6 7 -8 0 -11 6 -7 16 4 10 2 13 -6 8 -7 -5 -9 -2 -6 7 4 11 -3 16 -28
17 -24 2 -34 -2 -34 -12z"/>
<path d="M1540 3321 c0 -32 0 -32 48 -29 40 3 47 6 50 26 3 18 -1 22 -25 22
-15 0 -38 3 -50 6 -20 6 -23 3 -23 -25z"/>
<path d="M2906 3273 c-7 -8 -12 -9 -53 -11 -21 -2 -23 -7 -23 -59 0 -57 1 -58
41 -81 22 -13 43 -22 45 -19 6 5 8 166 2 172 -2 3 -8 2 -12 -2z"/>
<path d="M1542 3241 c-7 -17 -8 -99 -1 -105 2 -2 22 -1 44 3 l40 6 3 53 c2 37
-1 52 -10 54 -53 6 -70 4 -76 -11z"/>
<path d="M1912 3233 c37 -2 100 -2 140 0 40 1 10 3 -67 3 -77 0 -110 -1 -73
-3z"/>
<path d="M1572 3103 c-22 -4 -23 -8 -17 -46 6 -36 45 -158 70 -219 14 -34 58
-15 59 25 1 14 -3 23 -8 20 -5 -4 -7 3 -4 15 4 14 2 20 -5 15 -6 -4 -8 2 -5
15 4 12 2 22 -4 22 -6 0 -8 9 -5 20 3 11 1 20 -4 20 -4 0 -8 12 -8 28 0 85 -2
92 -24 91 -12 -1 -32 -4 -45 -6z"/>
<path d="M2807 3090 c-4 -15 6 -28 41 -54 43 -31 47 -33 50 -15 2 10 8 19 13
19 17 0 -1 20 -42 45 -47 30 -55 31 -62 5z"/>
<path d="M2780 3012 c0 -10 15 -26 35 -36 19 -10 32 -23 29 -27 -3 -5 2 -6 10
-3 29 11 24 32 -16 58 -47 31 -58 32 -58 8z"/>
<path d="M2712 2940 l-34 -39 27 -36 c15 -19 31 -35 35 -35 5 0 29 19 55 43
l47 42 -46 33 c-26 17 -48 32 -49 31 -1 0 -17 -18 -35 -39z"/>
<path d="M2608 2869 c-18 -10 -23 -44 -12 -72 4 -12 13 -13 46 -5 59 13 61 16
30 54 -29 36 -37 39 -64 23z"/>
<path d="M2340 2829 c0 -6 78 -39 92 -39 3 0 8 9 11 19 4 17 -2 20 -49 23 -30
1 -54 0 -54 -3z"/>
<path d="M2493 2833 c-19 -7 -16 -53 2 -53 10 0 15 10 15 30 0 17 -1 30 -2 29
-2 0 -9 -3 -15 -6z"/>
<path d="M1673 2794 c-17 -7 2 -56 33 -85 38 -36 50 -12 23 45 -22 44 -30 50
-56 40z"/>
<path d="M1756 2662 c-6 -10 88 -108 118 -124 12 -6 3 8 -20 34 -23 25 -49 57
-59 71 -18 28 -30 33 -39 19z"/>
<path d="M1880 2578 c24 -27 45 -48 47 -48 8 0 0 9 -44 50 l-48 45 45 -47z"/>
<path d="M727 2113 c-4 -3 -7 -26 -7 -50 l0 -43 48 0 c54 0 67 6 76 37 10 33
-24 63 -72 63 -21 0 -42 -3 -45 -7z"/>
<path d="M2404 2055 c-4 -11 -13 -35 -20 -54 -22 -53 -19 -61 25 -61 22 0 42
3 44 8 3 4 -6 34 -18 67 -19 49 -25 56 -31 40z"/>
<path d="M2870 2070 l0 -50 48 0 c53 0 72 12 72 46 0 35 -26 54 -76 54 l-44 0
0 -50z"/>
<path d="M3347 2113 c-4 -3 -7 -26 -7 -50 l0 -43 48 0 c54 0 67 6 76 37 10 33
-24 63 -72 63 -21 0 -42 -3 -45 -7z"/>
<path d="M1440 1375 l0 -44 73 -3 72 -3 3 -202 2 -203 65 0 65 0 2 203 3 202
73 3 72 3 0 44 0 45 -215 0 -215 0 0 -45z"/>
<path d="M1950 1170 l0 -250 195 0 195 0 0 45 0 45 -118 0 c-128 0 -142 5
-142 53 0 57 14 67 90 67 l70 0 0 40 0 40 -64 0 c-72 0 -96 14 -96 56 0 59 10
64 135 64 l115 0 0 45 0 45 -190 0 -190 0 0 -250z"/>
<path d="M2575 1403 c-22 -56 -165 -466 -165 -474 0 -6 23 -9 52 -7 52 3 53 3
68 46 9 24 23 48 31 53 17 10 149 12 165 1 6 -4 19 -28 29 -54 l18 -48 68 0
68 0 -60 173 c-34 94 -73 206 -87 247 l-27 75 -76 3 c-66 2 -78 0 -84 -15z
m103 -185 c33 -94 32 -98 -32 -98 -30 0 -58 5 -61 10 -4 6 3 36 15 68 11 31
23 63 25 70 10 28 32 8 53 -50z"/>
<path d="M2631 1205 c-6 -16 -14 -36 -16 -42 -3 -9 6 -13 25 -13 33 0 34 1 15
50 l-13 35 -11 -30z"/>
<path d="M2990 1170 l0 -250 50 0 50 0 2 168 c2 103 7 167 13 167 6 0 35 -74
65 -165 l56 -165 37 -3 c44 -4 39 -14 102 191 64 203 75 199 75 -23 l0 -170
65 0 65 0 0 250 0 250 -100 0 -100 0 -37 -120 c-21 -68 -42 -120 -49 -120 -7
0 -30 52 -51 118 l-40 117 -101 3 -102 3 0 -251z"/>
</g>
</svg>
