<?xml version="1.0" encoding="utf-8"?>
<svg contentscripttype="text/ecmascript" width="375pt" zoomAndPan="magnify" contentstyletype="text/css" viewBox="1.87 2.273 306.266 73.877" height="374.999991pt" preserveAspectRatio="xMidYMid meet" version="1.2" xmlns="http://www.w3.org/2000/svg">
  <defs>
    <g/>
    <clipPath id="clip1">
      <path d="M 37.5 167.714844 L 105.75 167.714844 L 105.75 220.964844 L 37.5 220.964844 Z M 37.5 167.714844 "/>
    </clipPath>
    <clipPath id="clip-0">
      <path d="M 58.074 186.008 L 82 186.008 L 82 212.258 L 58.074 212.258 Z M 58.074 186.008"/>
    </clipPath>
  </defs>
  <g id="surface1" transform="matrix(1, 0, 0, 1, -32.263092, -147.690781)">
    <g clip-rule="nonzero" clip-path="url(#clip1)">
      <path style="stroke: none; fill-rule: nonzero; fill-opacity: 1;" d="M 102.332031 176.714844 L 88.027344 176.714844 L 87.542969 173.328125 L 87.175781 171.042969 C 87.023438 170.125 86.53125 169.363281 85.761719 168.726562 C 84.972656 168.074219 84.128906 167.730469 83.199219 167.730469 L 59.941406 167.730469 C 59.011719 167.730469 58.15625 168.0625 57.375 168.726562 C 56.597656 169.386719 56.183594 170.164062 56.039062 171.042969 L 55.667969 173.328125 L 55.148438 176.714844 L 40.917969 176.714844 C 39.023438 176.714844 37.5 178.222656 37.5 180.027344 L 37.5 217.574219 C 37.5 219.453125 39.023438 220.960938 40.917969 220.960938 L 102.332031 220.960938 C 104.226562 220.960938 105.75 219.453125 105.75 217.574219 L 105.75 180.027344 C 105.75 178.222656 104.226562 176.714844 102.332031 176.714844 Z M 101.625 216.875 L 41.585938 216.875 L 41.585938 180.761719 L 55.148438 180.761719 C 57.191406 180.761719 58.957031 179.257812 59.234375 177.304688 L 59.71875 173.917969 L 60.089844 171.820312 L 83.125 171.820312 L 83.457031 173.917969 L 83.976562 177.304688 C 84.277344 179.253906 86.058594 180.761719 88.027344 180.761719 L 101.625 180.761719 Z M 101.625 216.875 "/>
    </g>
    <path style="stroke: none; fill-rule: nonzero; fill-opacity: 1;" d="M 93.917969 156.179688 C 93.476562 156.179688 93.035156 156.222656 92.601562 156.308594 C 92.167969 156.394531 91.746094 156.523438 91.335938 156.695312 C 90.925781 156.863281 90.539062 157.070312 90.167969 157.316406 C 89.800781 157.5625 89.460938 157.84375 89.144531 158.15625 C 88.832031 158.46875 88.554688 158.8125 88.304688 159.179688 C 88.058594 159.546875 87.851562 159.9375 87.683594 160.347656 C 87.511719 160.757812 87.386719 161.179688 87.296875 161.613281 C 87.210938 162.046875 87.167969 162.488281 87.167969 162.929688 C 87.167969 163.371094 87.210938 163.8125 87.296875 164.246094 C 87.386719 164.679688 87.511719 165.101562 87.683594 165.511719 C 87.851562 165.921875 88.058594 166.3125 88.304688 166.679688 C 88.554688 167.046875 88.832031 167.390625 89.144531 167.703125 C 89.460938 168.015625 89.800781 168.296875 90.167969 168.542969 C 90.539062 168.789062 90.925781 168.996094 91.335938 169.164062 C 91.746094 169.335938 92.167969 169.464844 92.601562 169.550781 C 93.035156 169.636719 93.476562 169.679688 93.917969 169.679688 C 94.363281 169.679688 94.800781 169.636719 95.234375 169.550781 C 95.671875 169.464844 96.09375 169.335938 96.503906 169.164062 C 96.910156 168.996094 97.300781 168.789062 97.667969 168.542969 C 98.039062 168.296875 98.378906 168.015625 98.691406 167.703125 C 99.003906 167.390625 99.285156 167.046875 99.53125 166.679688 C 99.777344 166.3125 99.984375 165.921875 100.15625 165.511719 C 100.324219 165.101562 100.453125 164.679688 100.539062 164.246094 C 100.625 163.8125 100.667969 163.371094 100.667969 162.929688 C 100.667969 162.488281 100.625 162.046875 100.539062 161.613281 C 100.453125 161.179688 100.324219 160.757812 100.15625 160.347656 C 99.984375 159.9375 99.777344 159.546875 99.53125 159.179688 C 99.285156 158.8125 99.003906 158.46875 98.691406 158.15625 C 98.378906 157.84375 98.039062 157.5625 97.667969 157.316406 C 97.300781 157.070312 96.910156 156.863281 96.503906 156.695312 C 96.09375 156.523438 95.671875 156.394531 95.234375 156.308594 C 94.800781 156.222656 94.363281 156.179688 93.917969 156.179688 Z M 93.917969 156.179688 "/>
    <path style="stroke: none; fill-rule: nonzero; fill-opacity: 1;" d="M 79.335938 153.140625 C 79.015625 153.140625 78.699219 153.171875 78.386719 153.234375 C 78.070312 153.296875 77.765625 153.386719 77.472656 153.511719 C 77.175781 153.632812 76.894531 153.78125 76.628906 153.960938 C 76.363281 154.136719 76.117188 154.339844 75.890625 154.566406 C 75.664062 154.792969 75.460938 155.039062 75.28125 155.304688 C 75.105469 155.570312 74.957031 155.851562 74.832031 156.148438 C 74.710938 156.445312 74.617188 156.75 74.554688 157.0625 C 74.492188 157.375 74.460938 157.695312 74.460938 158.015625 C 74.460938 158.335938 74.492188 158.652344 74.554688 158.964844 C 74.617188 159.277344 74.710938 159.582031 74.832031 159.878906 C 74.957031 160.175781 75.105469 160.457031 75.28125 160.722656 C 75.460938 160.988281 75.664062 161.234375 75.890625 161.460938 C 76.117188 161.6875 76.363281 161.890625 76.628906 162.066406 C 76.894531 162.246094 77.175781 162.394531 77.472656 162.519531 C 77.765625 162.640625 78.070312 162.734375 78.386719 162.796875 C 78.699219 162.859375 79.015625 162.890625 79.335938 162.890625 C 79.65625 162.890625 79.972656 162.859375 80.289062 162.796875 C 80.601562 162.734375 80.90625 162.640625 81.203125 162.519531 C 81.496094 162.394531 81.777344 162.246094 82.046875 162.066406 C 82.3125 161.890625 82.558594 161.6875 82.785156 161.460938 C 83.011719 161.234375 83.210938 160.988281 83.390625 160.722656 C 83.566406 160.457031 83.71875 160.175781 83.839844 159.878906 C 83.964844 159.582031 84.054688 159.277344 84.117188 158.964844 C 84.179688 158.652344 84.210938 158.335938 84.210938 158.015625 C 84.210938 157.695312 84.179688 157.375 84.117188 157.0625 C 84.054688 156.75 83.964844 156.445312 83.839844 156.148438 C 83.71875 155.851562 83.566406 155.570312 83.390625 155.304688 C 83.210938 155.039062 83.011719 154.792969 82.785156 154.566406 C 82.558594 154.339844 82.3125 154.136719 82.046875 153.960938 C 81.777344 153.78125 81.496094 153.632812 81.203125 153.511719 C 80.90625 153.386719 80.601562 153.296875 80.289062 153.234375 C 79.972656 153.171875 79.65625 153.140625 79.335938 153.140625 Z M 79.335938 153.140625 "/>
    <path style="fill-rule: evenodd; paint-order: stroke markers;" d="M 81.852 193.664 C 81.789 193.953 81.598 194.289 81.484 194.598 C 81.477 194.617 81.473 194.637 81.453 194.645 C 81.457 194.684 81.426 194.715 81.422 194.75 C 81.418 194.75 81.415 194.753 81.411 194.754 C 81.422 194.756 81.34 194.887 81.336 194.891 C 81.305 194.941 81.281 195 81.266 195.055 C 81.266 195.043 81.266 195.031 81.266 195.02 C 81.219 195.367 81.184 195.16 81.133 195.414 C 81.125 195.453 81.102 195.488 81.105 195.527 C 81.121 195.75 80.566 196.895 80.309 197.266 C 80.285 197.301 80.277 197.348 80.266 197.391 C 80.242 197.449 80.184 197.484 80.148 197.535 C 80.113 197.539 80.09 197.57 80.07 197.598 C 79.953 197.738 79.789 197.82 79.613 197.875 C 79.5 197.91 79.414 197.895 79.297 197.891 C 79.273 197.887 79.258 197.871 79.238 197.859 C 79.117 197.777 79.078 197.578 79.012 197.457 C 78.891 197.238 78.664 196.914 78.594 196.813 C 78.559 196.762 78.5 196.707 78.48 196.648 C 78.461 196.582 78.484 196.512 78.461 196.445 C 78.449 196.418 78.43 196.398 78.414 196.371 C 78.387 196.297 78.383 196.219 78.348 196.148 C 78.297 196.168 78.27 196.219 78.234 196.258 C 78.188 196.324 78.125 196.395 77.961 196.492 C 77.918 196.516 77.883 196.555 77.84 196.578 C 77.762 196.617 77.707 196.684 77.629 196.723 C 77.488 196.793 77.625 196.77 77.27 196.91 C 77.168 196.93 76.879 197.098 76.793 197.168 C 76.766 197.191 76.746 197.223 76.715 197.242 C 76.648 197.273 76.574 197.305 76.5 197.305 C 76.453 197.301 76.406 197.316 76.359 197.32 C 76.305 197.324 76.086 197.375 75.961 197.516 C 75.895 197.582 75.918 197.727 75.75 197.738 C 75.609 197.754 75.617 197.82 75.539 197.891 C 75.465 197.965 75.293 197.957 75.332 198.09 C 75.344 198.117 75.359 198.273 75.223 198.352 C 75.203 198.355 75.18 198.359 75.164 198.348 C 75.09 198.305 75.023 198.223 74.984 198.215 C 74.93 198.234 74.867 198.336 74.902 198.371 C 74.938 198.41 74.945 198.465 74.977 198.504 C 75.012 198.551 74.996 198.613 74.977 198.66 C 74.957 198.695 74.949 198.738 74.91 198.758 C 74.926 198.898 74.953 198.949 74.922 199.074 C 74.906 199.129 74.922 199.184 74.902 199.234 C 74.859 199.34 74.859 199.469 74.871 199.512 C 74.883 199.555 74.855 199.762 74.836 199.813 C 74.797 200.023 74.805 200.113 74.746 200.32 C 74.73 200.371 74.73 200.426 74.715 200.477 C 74.684 200.605 74.73 200.746 74.676 200.867 C 74.656 200.922 74.617 200.965 74.594 201.02 C 74.574 201.18 74.5 201.324 74.445 201.48 C 74.105 202.391 74.082 203.156 73.93 203.359 C 73.918 203.375 73.887 203.387 73.879 203.41 C 73.863 203.449 73.863 203.496 73.875 203.535 C 73.906 203.648 73.863 203.773 73.832 203.879 C 73.594 204.711 73.641 204.875 73.508 205.586 C 73.188 207.313 72.746 207.555 72.602 209.293 C 72.598 209.348 72.621 209.398 72.625 209.453 C 72.676 209.492 72.695 209.406 72.785 209.551 C 72.805 209.582 72.809 209.625 72.828 209.656 C 72.84 209.66 72.852 209.66 72.863 209.664 C 72.922 209.387 73.117 209.27 73.188 209.313 C 73.406 209.414 73.031 209.785 73.051 209.93 C 73.078 209.926 73.07 209.891 73.078 209.871 C 73.102 209.824 73.125 209.777 73.156 209.734 C 73.195 209.809 73.137 209.789 73.074 210.051 C 73.113 210.094 73.148 210.137 73.191 210.176 C 73.211 210.195 73.219 210.227 73.25 210.23 C 73.293 210.234 73.336 210.246 73.371 210.277 C 73.406 210.309 73.457 210.332 73.465 210.383 C 73.484 210.492 73.66 210.449 73.762 210.547 C 73.781 210.566 73.781 210.594 73.789 210.621 C 73.805 210.641 73.824 210.656 73.832 210.68 C 73.848 210.711 73.832 210.734 73.93 210.777 C 73.949 210.777 73.973 210.77 73.992 210.77 C 74.016 210.773 74.031 210.793 74.047 210.809 C 74.035 210.824 74.023 210.836 74.02 210.855 C 74.055 210.879 74.348 210.996 74.43 211.039 C 74.543 211.098 74.66 211.156 74.785 211.199 C 74.848 211.219 74.902 211.262 74.965 211.293 C 75.027 211.32 75.086 211.352 75.141 211.395 C 75.203 211.441 75.289 211.422 75.266 211.59 C 75.25 211.719 75.164 211.844 75.055 211.914 C 75.031 211.93 75 211.93 74.977 211.949 C 74.91 212.016 74.82 212.047 74.746 212.102 C 74.512 212.258 73.895 212.137 73.734 212.137 C 73.352 212.125 73.422 212.082 73.117 212.043 C 73.059 212.039 73.004 212.004 72.953 211.98 C 72.773 211.914 72.965 211.961 72.527 211.832 C 72.457 211.813 72.234 211.816 72.211 211.82 C 71.992 211.824 72.313 211.863 71.27 211.793 C 70.949 211.773 70.699 211.707 70.621 211.652 C 70.531 211.59 70.434 211.332 70.484 211.203 C 70.508 211.148 70.523 211.086 70.523 211.023 C 70.574 210.973 70.555 210.895 70.559 210.828 C 70.559 210.828 70.578 210.531 70.582 210.512 C 70.582 210.453 70.602 210.398 70.617 210.344 C 70.625 210.32 70.648 210.301 70.66 210.281 C 70.707 210.164 70.758 210.051 70.801 209.934 C 70.813 209.902 70.789 209.871 70.801 209.84 C 70.867 209.672 70.918 209.68 70.98 209.668 C 71.02 209.664 71.051 209.641 71.086 209.625 C 71.121 209.609 71.156 209.602 71.188 209.586 C 71.359 208.727 71.344 208.703 71.414 208.07 C 71.414 208.098 71.414 208.125 71.414 208.152 C 71.422 207.902 71.445 207.645 71.438 207.395 C 71.43 207.141 71.359 206.895 71.336 206.645 C 71.293 206.16 71.297 206.27 71.363 205.781 C 71.434 205.246 71.527 204.809 71.758 204.215 C 71.781 204.16 71.859 203.793 71.93 203.648 C 71.973 203.559 72.086 203.469 72.109 203.383 C 72.125 203.344 72.094 203.293 72.094 203.254 C 72.09 203.203 72.098 203.148 72.098 203.094 C 72.098 203.148 72.027 201.414 71.992 201.18 C 71.961 200.977 71.902 200.766 71.922 200.555 C 71.918 200.535 71.914 200.516 71.898 200.5 C 71.824 200.441 71.465 200.277 71.387 200.207 C 71.348 200.176 71.309 200.148 71.27 200.125 C 71.27 199.902 71.293 199.914 71.348 199.738 C 71.418 199.508 71.398 199.238 71.406 199 C 71.414 198.73 71.438 198.457 71.402 198.184 C 71.387 198.043 71.414 197.902 71.418 197.758 C 71.438 197.527 71.418 197.297 71.43 197.063 C 71.426 197 71.418 196.938 71.402 196.879 C 71.336 196.539 71.285 196.332 71 196.078 C 70.941 196.02 70.883 195.957 70.82 195.902 C 70.777 195.871 70.734 195.84 70.699 195.805 C 70.371 195.504 70.023 195.324 69.727 195.074 C 69.551 194.922 69.422 194.871 69.316 194.789 C 69.27 194.758 69.133 194.648 68.809 194.551 C 68.188 194.305 68.199 194.395 68.207 194.262 C 68.18 194.25 68.145 194.246 68.133 194.219 C 67.945 193.941 68.148 194.086 67.555 193.707 C 67.426 193.621 67.293 193.52 67.145 193.469 C 67.109 193.457 67.078 193.438 67.039 193.426 C 67.023 193.422 66.691 193.309 66.688 193.309 C 66.48 193.207 65.859 193.18 65.137 192.535 C 65.105 192.5 65.039 192.504 65.023 192.453 C 65 192.379 64.805 192.277 64.684 192.27 C 64.563 192.27 64.441 192.277 64.324 192.254 C 64.367 192.246 64.414 192.254 64.457 192.262 C 64.324 192.219 64.133 192.359 62.926 191.695 C 61.355 190.832 61.777 191.082 61.371 190.992 C 61.207 190.938 61.23 190.969 60.926 190.969 C 60.895 190.969 60.875 191.004 60.84 190.996 C 60.781 190.98 60.723 190.977 60.66 190.969 C 60.641 190.965 60.621 190.977 60.602 190.984 C 60.547 191.016 60.48 191.004 60.422 191.016 C 60.414 191.07 60.422 191.129 60.426 191.184 C 60.414 191.188 60.402 191.188 60.387 191.188 C 60.383 191.129 60.383 191.07 60.379 191.016 C 60.344 191.016 60.203 191.008 60.16 190.988 C 60.063 190.938 59.949 190.965 59.84 190.957 C 59.773 190.949 59.734 191.008 59.676 191.027 C 59.414 191.039 59.527 191 59.438 191.039 C 59.352 191.082 59.281 191.047 59.086 191.145 C 59.043 191.168 58.996 191.176 58.957 191.195 C 58.926 191.207 58.906 191.234 58.883 191.254 C 58.848 191.289 58.797 191.301 58.762 191.336 C 58.723 191.379 58.66 191.387 58.605 191.391 C 58.469 191.383 58.453 191.387 58.336 190.996 C 58.289 190.852 58.258 190.703 58.234 190.551 C 58.148 190.188 58.078 189.969 58.109 189.699 C 58.121 189.691 58.137 189.688 58.148 189.68 C 58.152 189.652 58.152 189.621 58.18 189.605 C 58.211 189.582 58.25 189.582 58.285 189.566 C 58.348 189.535 58.41 189.578 58.469 189.57 C 58.512 189.563 58.555 189.582 58.598 189.586 C 58.625 189.582 58.645 189.563 58.672 189.555 C 58.719 189.535 58.766 189.543 58.813 189.539 C 58.855 189.539 58.891 189.52 58.926 189.512 C 58.973 189.508 59.016 189.527 59.059 189.527 C 59.109 189.531 59.156 189.539 59.203 189.547 C 59.258 189.555 59.316 189.539 59.371 189.555 C 59.395 189.559 59.422 189.57 59.445 189.566 C 59.477 189.563 59.508 189.543 59.539 189.539 C 59.633 189.527 59.723 189.5 59.813 189.504 C 59.855 189.504 59.887 189.473 59.926 189.473 C 60.305 189.469 60.285 189.496 60.395 189.621 C 60.434 189.648 60.48 189.656 60.523 189.672 C 60.762 189.773 60.895 189.75 60.996 189.848 C 61.027 189.879 61.031 189.922 61.047 189.957 C 61.078 189.98 61.113 189.984 61.148 190 C 61.238 190.031 61.32 190.082 61.41 190.113 C 61.633 190.203 62.414 190.18 63.074 190.207 C 63.063 190.215 63.797 190.207 64.176 190.266 C 65.094 190.418 65.34 190.73 65.613 190.871 C 65.629 190.879 65.648 190.871 65.664 190.879 C 65.695 190.895 65.711 190.922 65.738 190.941 C 65.848 191.008 66.176 191.148 66.32 191.176 C 66.398 191.195 67.352 191.602 67.824 191.602 C 67.898 191.602 67.965 191.645 68.039 191.652 C 68.074 191.656 68.109 191.664 68.141 191.676 C 68.156 191.664 68.176 191.648 68.195 191.656 C 68.324 191.691 68.453 191.73 68.586 191.703 C 68.629 191.695 68.66 191.734 68.77 191.801 C 68.789 191.816 68.813 191.793 68.836 191.801 C 68.902 191.82 69.039 191.82 69.168 191.938 C 69.211 191.98 69.277 191.965 69.332 191.98 C 69.422 192.004 69.516 192.012 69.602 192.051 C 69.672 192.07 69.73 192.137 69.809 192.125 C 69.859 192.113 69.883 192.051 69.938 192.043 C 69.973 192.027 70.098 192.133 70.125 192.156 C 70.152 192.18 70.164 192.215 70.195 192.227 C 70.246 192.242 70.293 192.266 70.348 192.273 C 70.449 192.258 70.555 192.254 70.656 192.266 C 70.715 192.27 70.781 192.25 70.832 192.289 C 70.844 192.336 70.855 192.383 70.887 192.422 C 70.895 192.438 70.914 192.434 70.93 192.438 C 70.941 192.41 70.941 192.371 70.973 192.355 C 71 192.34 71.027 192.316 71.059 192.324 C 71.098 192.348 71.086 192.402 71.117 192.434 C 71.219 192.539 71.289 192.445 71.41 192.453 C 71.477 192.457 71.543 192.461 71.609 192.461 C 71.629 192.422 71.621 192.379 71.863 192.348 C 71.941 192.336 72.016 192.305 72.094 192.324 C 72.137 192.328 72.176 192.332 72.215 192.324 C 72.25 192.32 72.246 192.27 72.277 192.273 C 72.391 192.266 72.5 192.266 72.609 192.254 C 72.691 192.254 72.777 192.227 72.863 192.23 C 72.887 192.234 72.91 192.254 72.938 192.254 C 73.039 192.262 73.047 192.426 73.098 192.527 C 73.105 192.547 73.133 192.539 73.141 192.523 C 73.164 192.477 73.223 192.293 73.391 192.293 C 73.676 192.289 73.918 192.344 73.934 192.344 C 73.98 192.328 74.008 192.285 74.055 192.273 C 74.105 192.262 74.133 192.207 74.184 192.199 C 74.215 192.199 74.246 192.211 74.273 192.207 C 74.313 192.191 74.332 192.152 74.367 192.129 C 74.383 192.117 74.406 192.109 74.422 192.09 C 74.441 192.043 74.453 191.996 74.48 191.953 C 74.52 191.922 74.566 191.902 74.613 191.887 C 74.621 191.82 74.602 191.758 74.602 191.691 C 74.605 191.617 74.66 191.555 74.73 191.523 C 74.75 191.516 74.773 191.52 74.793 191.52 C 74.832 191.496 74.914 191.395 74.984 191.242 C 75.008 191.203 74.906 190.961 74.902 190.949 C 74.863 190.91 74.816 190.883 74.781 190.84 C 74.395 190.887 74.461 190.93 74.363 190.688 C 74.297 190.641 74.219 190.609 74.148 190.574 C 73.84 190.43 73.855 190.48 73.488 190.453 C 73.289 190.43 73.09 190.441 72.891 190.418 C 72.68 190.406 72.473 190.363 72.262 190.355 C 71.766 190.352 71.805 190.418 71.406 190.262 C 71.371 190.246 71.172 190.191 71.008 190.191 C 70.836 190.191 70.672 190.152 70.414 190.078 C 70.309 190.047 70.199 190.035 70.09 190.008 C 69.645 189.883 69.98 190.012 69.293 189.723 C 69.234 189.695 68.652 189.535 68.609 189.531 C 68.109 189.402 67.793 189.48 67.625 189.484 C 67.543 189.496 67.449 189.512 67.391 189.574 C 67.246 189.723 67.051 189.75 66.875 189.828 C 66.816 189.852 66.762 189.883 66.703 189.895 C 66.652 189.902 66.262 189.91 66.238 189.914 C 66.059 189.918 66.055 189.859 66.027 189.738 C 66.012 189.672 66.059 189.617 66.09 189.563 C 66.078 189.555 66.063 189.543 66.047 189.547 C 65.719 189.582 65.789 189.402 65.863 189.098 C 65.887 189.012 65.848 188.949 65.977 188.797 C 66.012 188.762 65.965 188.641 66.02 188.555 C 66.078 188.434 66.211 188.492 66.258 188.457 C 66.359 188.383 66.41 188.414 66.461 188.379 C 66.574 188.309 66.797 188.402 66.809 188.406 C 66.816 188.406 67.516 188.586 67.605 188.598 C 67.957 188.613 67.867 188.535 68.074 188.609 C 68.188 188.645 68.488 188.699 68.762 188.664 C 68.863 188.645 69.633 188.625 69.641 188.625 C 70.563 188.551 71.055 188.668 71.191 188.695 C 71.285 188.719 71.801 188.621 72.277 188.816 C 72.406 188.859 72.555 188.957 72.863 189 C 73.313 189.09 73.594 188.992 73.883 188.973 C 74.063 188.965 74.254 188.992 74.426 188.98 C 74.5 188.973 74.57 188.949 74.645 188.945 C 74.695 188.934 74.75 188.941 74.805 188.938 C 74.969 188.902 75.137 188.891 75.305 188.875 C 76.566 188.883 76.383 189.027 76.676 189.102 C 76.695 189.098 76.707 189.082 76.719 189.07 C 76.836 188.941 76.914 188.961 76.992 188.949 C 77.109 188.926 77.129 189.215 77.223 189.199 C 77.289 189.188 77.348 189.164 77.414 189.168 C 77.488 189.172 77.551 189.223 77.566 189.18 C 77.586 189.133 77.82 188.648 77.855 188.613 C 77.875 188.586 77.902 188.563 77.906 188.531 C 77.906 188.469 77.926 188.414 77.918 188.352 C 77.875 188.348 77.836 188.324 77.801 188.301 C 78.051 188.234 77.824 188.199 77.781 188.016 C 77.703 187.801 77.891 187.805 77.879 187.625 C 77.875 187.578 77.914 187.543 77.918 187.5 C 77.93 187.441 77.961 187.387 77.988 187.336 C 78.004 187.309 78.035 187.289 78.043 187.258 C 78.051 187.227 78.094 187.215 78.102 187.18 C 78.109 187.145 78.23 187.02 78.262 186.941 C 78.27 186.902 78.277 186.863 78.277 186.824 C 78.238 186.813 78.191 186.805 78.18 186.762 C 78.133 186.531 78.246 186.367 78.293 186.34 C 78.328 186.32 78.359 186.289 78.398 186.27 C 78.418 186.258 78.434 186.25 78.445 186.234 C 78.438 186.234 78.418 186.23 78.41 186.23 C 78.461 186.195 78.52 186.199 78.578 186.191 C 78.664 186.156 78.625 186.109 79.035 186.102 C 79.133 186.102 79.227 186.078 79.324 186.078 C 79.66 186.008 79.691 186.066 79.883 186.086 C 79.93 186.09 79.973 186.113 80.02 186.125 C 80.078 186.145 80.141 186.137 80.199 186.145 C 80.391 186.195 80.848 186.336 81.035 186.477 C 81.113 186.527 81.172 186.602 81.23 186.672 C 81.258 186.73 81.313 186.77 81.348 186.82 C 81.434 186.93 81.551 187.195 81.559 187.27 C 81.563 187.313 81.566 187.359 81.582 187.402 C 81.594 187.457 81.594 187.512 81.609 187.566 C 81.625 187.633 81.617 187.703 81.637 187.77 C 81.656 187.844 81.688 188.195 81.66 188.289 C 81.645 188.336 81.664 188.391 81.629 188.434 C 81.613 188.469 81.598 188.508 81.582 188.547 C 81.566 188.605 81.531 188.652 81.512 188.711 C 81.492 188.742 81.48 188.891 81.445 188.953 C 81.363 189.102 81.32 189.375 81.32 189.387 C 81.297 189.617 81.27 189.496 81.16 189.797 C 81.137 189.844 81.102 189.879 81.074 189.926 C 81.055 189.953 81.02 189.957 81 189.98 C 80.965 190.02 80.938 190.066 80.891 190.09 C 80.848 190.105 80.809 190.129 80.762 190.133 C 80.734 190.105 80.75 190.066 80.77 190.039 C 80.719 190.035 80.668 190.051 80.621 190.02 C 80.602 190.016 80.578 189.988 80.559 190.008 C 80.504 190.043 80.512 190.219 80.5 190.273 C 80.48 190.41 80.512 190.309 80.715 190.555 C 80.863 190.727 80.848 190.789 80.926 190.879 C 80.957 190.914 80.973 190.961 80.992 191 C 81.016 191.055 81.016 191.113 81.016 191.168 C 81.016 191.184 81.008 191.203 81.023 191.215 C 81.051 191.238 81.098 191.234 81.121 191.266 C 81.164 191.309 81.172 191.371 81.219 191.414 C 81.5 191.684 81.582 191.875 81.684 191.984 C 81.738 192.043 81.766 192.121 81.789 192.195 C 81.82 192.297 81.883 192.387 81.922 192.488 C 82.07 192.867 81.938 193.281 81.852 193.664 Z M 72.973 209.871 C 72.984 209.867 72.996 209.863 73.008 209.859 C 73.059 209.719 73.012 209.863 73.172 209.535 C 73.199 209.484 73.191 209.422 73.191 209.367 C 73.105 209.371 73.121 209.379 73.09 209.426 C 72.832 209.539 72.938 209.77 72.973 209.871 Z M 71.563 181.457 C 70.527 181.457 69.504 181.559 68.488 181.758 C 67.477 181.961 66.492 182.262 65.535 182.656 C 64.578 183.051 63.672 183.535 62.813 184.109 C 61.953 184.684 61.156 185.34 60.426 186.07 C 59.695 186.801 59.043 187.598 58.469 188.457 C 57.891 189.316 57.406 190.223 57.012 191.18 C 56.617 192.137 56.316 193.121 56.117 194.133 C 55.914 195.148 55.813 196.172 55.813 197.207 C 55.813 198.242 55.914 199.266 56.117 200.281 C 56.316 201.293 56.617 202.277 57.012 203.234 C 57.406 204.188 57.891 205.098 58.469 205.957 C 59.043 206.816 59.695 207.613 60.426 208.344 C 61.156 209.074 61.953 209.727 62.813 210.301 C 63.672 210.875 64.578 211.363 65.535 211.758 C 66.492 212.152 67.477 212.453 68.488 212.652 C 69.504 212.855 70.527 212.957 71.563 212.957 C 72.598 212.957 73.621 212.855 74.637 212.652 C 75.648 212.453 76.633 212.152 77.59 211.758 C 78.547 211.363 79.453 210.875 80.313 210.301 C 81.172 209.727 81.969 209.074 82.699 208.344 C 83.43 207.613 84.082 206.816 84.66 205.957 C 85.234 205.098 85.719 204.188 86.113 203.234 C 86.508 202.277 86.809 201.293 87.012 200.281 C 87.211 199.266 87.313 198.242 87.313 197.207 C 87.313 196.172 87.211 195.148 87.012 194.133 C 86.809 193.121 86.508 192.137 86.113 191.18 C 85.719 190.223 85.234 189.316 84.66 188.457 C 84.082 187.598 83.43 186.801 82.699 186.07 C 81.969 185.34 81.172 184.684 80.313 184.109 C 79.453 183.535 78.547 183.051 77.59 182.656 C 76.633 182.262 75.648 181.961 74.637 181.758 C 73.621 181.559 72.598 181.457 71.563 181.457 Z"/>
    <g style="fill:rgb(22.349548%,22.349548%,22.349548%);fill-opacity:1;">
      <g transform="translate(113.159368, 206.043079)">
        <path style="stroke: none; fill: rgb(0, 0, 0);" d="M 7.953125 -22.71875 L 7.953125 0 L 13.632812 0 L 13.632812 -22.71875 L 16.246094 -22.71875 C 22.039062 -22.71875 23.570312 -18.742188 23.570312 -15.394531 C 23.570312 -6.871094 13.859375 3.011719 11.191406 3.75 L 12.722656 5.226562 C 19.3125 3.863281 29.421875 -2.839844 29.421875 -15.222656 C 29.421875 -24.140625 24.140625 -28.96875 16.246094 -28.96875 L 1.703125 -28.96875 L 1.703125 -22.71875 Z M 7.953125 -22.71875 "/>
      </g>
    </g>
    <g style="fill:rgb(22.349548%,22.349548%,22.349548%);fill-opacity:1;">
      <g transform="translate(144.280877, 206.043079)">
        <path style="stroke: none; fill: rgb(0, 0, 0);" d="M 1.703125 -14.199219 C 1.703125 -5.738281 8.578125 1.136719 17.039062 1.136719 C 25.503906 1.136719 32.375 -5.738281 32.375 -14.199219 C 32.375 -22.664062 25.503906 -29.535156 17.039062 -29.535156 C 8.578125 -29.535156 1.703125 -22.664062 1.703125 -14.199219 Z M 7.382812 -14.199219 C 7.382812 -19.199219 11.699219 -23.289062 17.039062 -23.289062 C 22.378906 -23.289062 26.695312 -19.199219 26.695312 -14.199219 C 26.695312 -9.203125 22.378906 -5.113281 17.039062 -5.113281 C 11.699219 -5.113281 7.382812 -9.203125 7.382812 -14.199219 Z M 7.382812 -14.199219 "/>
      </g>
    </g>
    <g style="fill:rgb(22.349548%,22.349548%,22.349548%);fill-opacity:1;">
      <g transform="translate(178.355513, 206.043079)">
        <path style="stroke: none; fill: rgb(0, 0, 0);" d="M 1.703125 -28.96875 L 1.703125 -22.71875 L 7.953125 -22.71875 L 7.953125 -19.9375 C 7.953125 -7.609375 4.941406 2.160156 2.042969 5.679688 L 4.203125 5.679688 C 9.882812 -0.625 13.632812 -10.28125 13.632812 -20.675781 L 13.632812 -22.71875 L 18.742188 -22.71875 L 18.742188 -28.96875 Z M 1.703125 -28.96875 "/>
      </g>
    </g>
    <g style="fill:rgb(22.349548%,22.349548%,22.349548%);fill-opacity:1;">
      <g transform="translate(198.800302, 206.043079)">
        <path style="stroke: none; fill: rgb(0, 0, 0);" d="M 1.703125 -14.199219 C 1.703125 -5.738281 8.578125 1.136719 17.039062 1.136719 C 25.503906 1.136719 32.375 -5.738281 32.375 -14.199219 C 32.375 -22.664062 25.503906 -29.535156 17.039062 -29.535156 C 8.578125 -29.535156 1.703125 -22.664062 1.703125 -14.199219 Z M 7.382812 -14.199219 C 7.382812 -19.199219 11.699219 -23.289062 17.039062 -23.289062 C 22.378906 -23.289062 26.695312 -19.199219 26.695312 -14.199219 C 26.695312 -9.203125 22.378906 -5.113281 17.039062 -5.113281 C 11.699219 -5.113281 7.382812 -9.203125 7.382812 -14.199219 Z M 7.382812 -14.199219 "/>
      </g>
    </g>
    <g style="fill:rgb(22.349548%,22.349548%,22.349548%);fill-opacity:1;">
      <g transform="translate(232.874938, 206.043079)">
        <path style="stroke: none; fill: rgb(0, 0, 0);" d="M 22.265625 -22.71875 L 22.265625 -15.335938 L 27.945312 -21.015625 L 27.945312 -28.96875 L 17.039062 -28.96875 C 8.691406 -28.96875 1.703125 -22.207031 1.703125 -14.199219 C 1.703125 -5.90625 8.746094 1.136719 17.039062 1.136719 C 20.960938 1.136719 24.878906 -0.339844 27.890625 -3.351562 L 23.855469 -7.382812 C 21.980469 -5.453125 19.480469 -4.542969 17.039062 -4.542969 C 11.8125 -4.542969 7.382812 -8.972656 7.382812 -14.199219 C 7.382812 -18.800781 11.8125 -22.71875 17.039062 -22.71875 Z M 22.265625 -22.71875 "/>
      </g>
    </g>
    <g style="fill:rgb(22.349548%,22.349548%,22.349548%);fill-opacity:1;">
      <g transform="translate(262.519873, 206.043079)">
        <path style="stroke: none; fill: rgb(0, 0, 0);" d="M 13.292969 0.566406 C 11.984375 -1.25 10.621094 -5.625 10.28125 -11.359375 L 20.449219 -11.359375 L 20.449219 0 L 26.128906 0 L 26.128906 -22.71875 L 32.375 -22.71875 L 32.375 -28.96875 L 1.703125 -28.96875 L 1.703125 -22.71875 L 6.363281 -22.71875 C 5.226562 -20.164062 4.542969 -17.4375 4.542969 -14.425781 C 4.542969 -8.578125 7.15625 -3.125 11.132812 0.566406 Z M 12.269531 -22.71875 L 20.449219 -22.71875 L 20.449219 -17.609375 L 10.453125 -17.609375 C 10.734375 -19.425781 11.304688 -21.015625 12.269531 -22.71875 Z M 12.269531 -22.71875 "/>
      </g>
    </g>
    <g style="fill:rgb(22.349548%,22.349548%,22.349548%);fill-opacity:1;">
      <g transform="translate(296.594508, 206.043079)">
        <path style="stroke: none; fill: rgb(0, 0, 0);" d="M 7.953125 -22.71875 L 7.953125 0 L 13.632812 0 L 13.632812 -21.585938 L 20.449219 -14.769531 L 27.265625 -21.585938 L 27.265625 0 L 32.945312 0 L 32.945312 -22.71875 L 39.191406 -22.71875 L 39.191406 -28.96875 L 27.265625 -28.96875 L 20.449219 -22.152344 L 13.632812 -28.96875 L 1.703125 -28.96875 L 1.703125 -22.71875 Z M 7.953125 -22.71875 "/>
      </g>
    </g>
    <path style="stroke: none; fill-rule: nonzero; fill-opacity: 1;" d="M 45.238281 174.726562 L 53.480469 174.726562 L 53.480469 179.976562 L 45.238281 179.976562 Z M 45.238281 174.726562 "/>
    <g clip-rule="nonzero" style="filter: none; clip-path: url(#clip-0);"/>
  </g>
</svg>