<?xml version="1.0" encoding="utf-8"?>
<svg viewBox="0 0 209.546 207.8" xmlns="http://www.w3.org/2000/svg">
  <defs>
    <clipPath id="clip1">
      <path d="M 89.46875 131.3125 L 285.21875 131.3125 L 285.21875 285.8125 L 89.46875 285.8125 Z M 89.46875 131.3125 "/>
    </clipPath>
  </defs>
  <g id="surface1" transform="matrix(1, 0, 0, 1, -83.734886, -83.631363)">
    <g clip-rule="nonzero" clip-path="url(#clip1)">
      <path style="stroke: none; fill-rule: nonzero; fill-opacity: 1;" d="M 275.417969 157.425781 L 234.390625 157.425781 L 233.003906 147.605469 L 231.941406 140.980469 C 231.511719 138.3125 230.101562 136.101562 227.890625 134.253906 C 225.625 132.363281 223.203125 131.371094 220.539062 131.371094 L 153.832031 131.371094 C 151.167969 131.371094 148.71875 132.332031 146.480469 134.253906 C 144.242188 136.175781 143.054688 138.433594 142.644531 140.980469 L 141.578125 147.605469 L 140.085938 157.425781 L 99.273438 157.425781 C 93.839844 157.425781 89.46875 161.804688 89.46875 167.039062 L 89.46875 275.964844 C 89.46875 281.410156 93.839844 285.789062 99.273438 285.789062 L 275.414062 285.789062 C 280.847656 285.789062 285.21875 281.410156 285.21875 275.964844 L 285.21875 167.039062 C 285.21875 161.804688 280.847656 157.425781 275.414062 157.425781 Z M 273.394531 273.9375 L 101.195312 273.9375 L 101.195312 169.175781 L 140.089844 169.175781 C 145.949219 169.175781 151.007812 164.804688 151.808594 159.136719 L 153.195312 149.3125 L 154.261719 143.226562 L 220.324219 143.226562 L 221.285156 149.3125 L 222.777344 159.136719 C 223.636719 164.796875 228.742188 169.175781 234.394531 169.175781 L 273.390625 169.175781 L 273.390625 273.9375 Z M 273.394531 273.9375 "/>
    </g>
    <path style="stroke: none; fill-rule: nonzero; fill-opacity: 1;" d="M 252.589844 98.042969 C 251.941406 98.042969 251.289062 98.074219 250.644531 98.136719 C 249.996094 98.203125 249.351562 98.296875 248.714844 98.425781 C 248.074219 98.550781 247.445312 98.710938 246.820312 98.898438 C 246.199219 99.085938 245.585938 99.304688 244.984375 99.554688 C 244.382812 99.804688 243.796875 100.082031 243.222656 100.390625 C 242.648438 100.695312 242.089844 101.03125 241.546875 101.390625 C 241.007812 101.753906 240.484375 102.140625 239.980469 102.554688 C 239.480469 102.96875 238.996094 103.402344 238.535156 103.863281 C 238.078125 104.324219 237.640625 104.804688 237.226562 105.308594 C 236.8125 105.8125 236.425781 106.335938 236.066406 106.875 C 235.703125 107.417969 235.371094 107.972656 235.0625 108.546875 C 234.753906 109.121094 234.476562 109.710938 234.230469 110.3125 C 233.980469 110.914062 233.761719 111.523438 233.570312 112.148438 C 233.382812 112.769531 233.222656 113.402344 233.097656 114.039062 C 232.96875 114.679688 232.875 115.320312 232.8125 115.96875 C 232.746094 116.617188 232.714844 117.265625 232.714844 117.917969 C 232.714844 118.570312 232.746094 119.21875 232.8125 119.867188 C 232.875 120.511719 232.96875 121.15625 233.097656 121.796875 C 233.222656 122.433594 233.382812 123.0625 233.570312 123.6875 C 233.761719 124.308594 233.980469 124.921875 234.230469 125.523438 C 234.476562 126.125 234.753906 126.710938 235.0625 127.285156 C 235.371094 127.859375 235.703125 128.417969 236.066406 128.960938 C 236.425781 129.5 236.8125 130.023438 237.226562 130.527344 C 237.640625 131.03125 238.078125 131.511719 238.535156 131.972656 C 238.996094 132.433594 239.480469 132.867188 239.980469 133.28125 C 240.484375 133.695312 241.007812 134.082031 241.546875 134.441406 C 242.089844 134.804688 242.648438 135.140625 243.222656 135.445312 C 243.796875 135.753906 244.382812 136.03125 244.984375 136.28125 C 245.585938 136.527344 246.199219 136.746094 246.820312 136.9375 C 247.445312 137.125 248.074219 137.285156 248.714844 137.410156 C 249.351562 137.539062 249.996094 137.632812 250.644531 137.695312 C 251.289062 137.761719 251.941406 137.792969 252.589844 137.792969 C 253.242188 137.792969 253.890625 137.761719 254.539062 137.695312 C 255.1875 137.632812 255.828125 137.539062 256.46875 137.410156 C 257.105469 137.285156 257.738281 137.125 258.359375 136.9375 C 258.984375 136.746094 259.59375 136.527344 260.195312 136.28125 C 260.796875 136.03125 261.386719 135.753906 261.960938 135.445312 C 262.535156 135.140625 263.089844 134.804688 263.632812 134.441406 C 264.175781 134.082031 264.695312 133.695312 265.199219 133.28125 C 265.703125 132.867188 266.183594 132.433594 266.644531 131.972656 C 267.105469 131.511719 267.542969 131.03125 267.953125 130.527344 C 268.367188 130.023438 268.753906 129.5 269.117188 128.960938 C 269.476562 128.417969 269.8125 127.859375 270.117188 127.285156 C 270.425781 126.710938 270.703125 126.125 270.953125 125.523438 C 271.203125 124.921875 271.421875 124.308594 271.609375 123.6875 C 271.796875 123.0625 271.957031 122.433594 272.082031 121.796875 C 272.210938 121.15625 272.304688 120.511719 272.371094 119.867188 C 272.433594 119.21875 272.464844 118.570312 272.464844 117.917969 C 272.464844 117.265625 272.433594 116.617188 272.371094 115.96875 C 272.304688 115.320312 272.210938 114.679688 272.082031 114.039062 C 271.957031 113.402344 271.796875 112.769531 271.609375 112.148438 C 271.421875 111.523438 271.203125 110.914062 270.953125 110.3125 C 270.703125 109.710938 270.425781 109.121094 270.117188 108.546875 C 269.8125 107.972656 269.476562 107.417969 269.117188 106.875 C 268.753906 106.335938 268.367188 105.8125 267.953125 105.308594 C 267.542969 104.804688 267.105469 104.324219 266.644531 103.863281 C 266.183594 103.402344 265.703125 102.96875 265.199219 102.554688 C 264.695312 102.140625 264.175781 101.753906 263.632812 101.390625 C 263.089844 101.03125 262.535156 100.695312 261.960938 100.390625 C 261.386719 100.082031 260.796875 99.804688 260.195312 99.554688 C 259.59375 99.304688 258.984375 99.085938 258.359375 98.898438 C 257.738281 98.710938 257.105469 98.550781 256.46875 98.425781 C 255.828125 98.296875 255.1875 98.203125 254.539062 98.136719 C 253.890625 98.074219 253.242188 98.042969 252.589844 98.042969 Z M 252.589844 98.042969 "/>
    <path style="stroke: none; fill-rule: nonzero; fill-opacity: 1;" d="M 210.316406 89.273438 C 209.382812 89.273438 208.457031 89.363281 207.539062 89.546875 C 206.621094 89.730469 205.730469 90 204.863281 90.359375 C 204 90.714844 203.179688 91.15625 202.402344 91.675781 C 201.621094 92.195312 200.902344 92.785156 200.242188 93.445312 C 199.578125 94.109375 198.988281 94.828125 198.46875 95.605469 C 197.949219 96.382812 197.511719 97.207031 197.152344 98.070312 C 196.792969 98.933594 196.523438 99.824219 196.339844 100.742188 C 196.160156 101.660156 196.066406 102.585938 196.066406 103.523438 C 196.066406 104.460938 196.160156 105.386719 196.339844 106.304688 C 196.523438 107.222656 196.792969 108.113281 197.152344 108.976562 C 197.511719 109.839844 197.949219 110.664062 198.46875 111.441406 C 198.988281 112.21875 199.578125 112.9375 200.242188 113.601562 C 200.902344 114.261719 201.621094 114.851562 202.402344 115.371094 C 203.179688 115.890625 204 116.332031 204.863281 116.6875 C 205.730469 117.046875 206.621094 117.316406 207.539062 117.5 C 208.457031 117.683594 209.382812 117.773438 210.316406 117.773438 C 211.253906 117.773438 212.179688 117.683594 213.097656 117.5 C 214.015625 117.316406 214.90625 117.046875 215.769531 116.6875 C 216.636719 116.332031 217.457031 115.890625 218.234375 115.371094 C 219.011719 114.851562 219.730469 114.261719 220.394531 113.601562 C 221.054688 112.9375 221.644531 112.21875 222.164062 111.441406 C 222.6875 110.664062 223.125 109.839844 223.484375 108.976562 C 223.839844 108.113281 224.109375 107.222656 224.292969 106.304688 C 224.476562 105.386719 224.566406 104.460938 224.566406 103.523438 C 224.566406 102.585938 224.476562 101.660156 224.292969 100.742188 C 224.109375 99.824219 223.839844 98.933594 223.484375 98.070312 C 223.125 97.207031 222.6875 96.382812 222.164062 95.605469 C 221.644531 94.828125 221.054688 94.109375 220.394531 93.445312 C 219.730469 92.785156 219.011719 92.195312 218.234375 91.675781 C 217.457031 91.15625 216.636719 90.714844 215.769531 90.359375 C 214.90625 90 214.015625 89.730469 213.097656 89.546875 C 212.179688 89.363281 211.253906 89.273438 210.316406 89.273438 Z M 210.316406 89.273438 "/>
    <path style="stroke: none; fill-rule: nonzero; fill-opacity: 1;" d="M 111.777344 151.527344 L 135.023438 151.527344 L 135.023438 165.777344 L 111.777344 165.777344 Z M 111.777344 151.527344 "/>
    <path style="stroke: none; fill-rule: nonzero; fill-opacity: 1;" d="M 216.422 205.941 C 216.238 206.77 215.695 207.73 215.375 208.613 C 215.352 208.66 215.34 208.727 215.285 208.746 C 215.301 208.855 215.207 208.941 215.199 209.051 C 215.191 209.051 215.172 209.051 215.164 209.051 C 215.207 209.051 214.965 209.438 214.957 209.449 C 214.867 209.594 214.797 209.754 214.75 209.918 C 214.754 209.887 214.754 209.852 214.758 209.816 C 214.621 210.805 214.523 210.219 214.379 210.945 C 214.355 211.055 214.281 211.148 214.293 211.266 C 214.336 211.902 212.762 215.172 212.035 216.227 C 211.961 216.336 211.941 216.465 211.914 216.594 C 211.84 216.758 211.68 216.859 211.578 217.004 C 211.477 217.016 211.41 217.105 211.352 217.18 C 211.02 217.586 210.555 217.82 210.059 217.973 C 209.734 218.07 209.492 218.027 209.16 218.012 C 209.09 218.012 209.043 217.957 208.992 217.922 C 208.648 217.699 208.539 217.125 208.348 216.777 C 208 216.152 207.359 215.234 207.16 214.941 C 207.059 214.793 206.883 214.641 206.832 214.469 C 206.777 214.281 206.848 214.078 206.773 213.895 C 206.746 213.813 206.688 213.75 206.648 213.676 C 206.566 213.469 206.555 213.242 206.457 213.043 C 206.309 213.098 206.23 213.242 206.133 213.355 C 206.004 213.539 205.82 213.742 205.352 214.023 C 205.23 214.094 205.137 214.203 205.012 214.273 C 204.797 214.387 204.629 214.574 204.41 214.684 C 204.012 214.879 204.398 214.82 203.391 215.211 C 203.105 215.277 202.277 215.75 202.035 215.957 C 201.957 216.02 201.902 216.113 201.809 216.16 C 201.621 216.258 201.418 216.34 201.203 216.34 C 201.066 216.336 200.934 216.379 200.801 216.391 C 200.648 216.402 200.027 216.543 199.672 216.941 C 199.477 217.141 199.551 217.547 199.07 217.586 C 198.664 217.629 198.691 217.816 198.469 218.02 C 198.262 218.23 197.773 218.203 197.883 218.582 C 197.918 218.668 197.961 219.109 197.57 219.34 C 197.516 219.352 197.449 219.363 197.398 219.328 C 197.191 219.203 197.008 218.961 196.891 218.945 C 196.742 219.004 196.563 219.293 196.664 219.395 C 196.762 219.508 196.785 219.66 196.875 219.773 C 196.977 219.902 196.926 220.078 196.867 220.215 C 196.813 220.316 196.797 220.445 196.688 220.5 C 196.727 220.902 196.801 221.039 196.711 221.402 C 196.672 221.551 196.715 221.711 196.664 221.855 C 196.539 222.16 196.535 222.531 196.57 222.656 C 196.602 222.773 196.527 223.363 196.473 223.512 C 196.359 224.113 196.383 224.371 196.219 224.965 C 196.176 225.109 196.172 225.266 196.129 225.41 C 196.039 225.777 196.168 226.172 196.016 226.527 C 195.965 226.684 195.848 226.805 195.789 226.953 C 195.73 227.418 195.52 227.832 195.359 228.27 C 194.391 230.879 194.324 233.059 193.895 233.637 C 193.855 233.691 193.773 233.715 193.75 233.785 C 193.711 233.902 193.699 234.031 193.734 234.152 C 193.828 234.473 193.703 234.828 193.617 235.133 C 192.941 237.508 193.066 237.973 192.691 240 C 191.777 244.938 190.531 245.633 190.121 250.594 C 190.105 250.754 190.172 250.902 190.188 251.059 C 190.328 251.164 190.387 250.922 190.633 251.328 C 190.691 251.426 190.707 251.539 190.762 251.637 C 190.793 251.645 190.828 251.648 190.863 251.652 C 191.031 250.863 191.586 250.535 191.789 250.656 C 192.402 250.941 191.336 252.008 191.395 252.418 C 191.477 252.406 191.449 252.305 191.477 252.25 C 191.539 252.113 191.609 251.98 191.691 251.859 C 191.809 252.07 191.645 252.02 191.461 252.766 C 191.574 252.879 191.668 253.012 191.789 253.121 C 191.848 253.172 191.875 253.266 191.961 253.273 C 192.086 253.285 192.211 253.324 192.305 253.41 C 192.402 253.5 192.551 253.563 192.57 253.707 C 192.625 254.02 193.129 253.902 193.414 254.176 C 193.473 254.23 193.477 254.313 193.5 254.387 C 193.539 254.441 193.594 254.492 193.617 254.563 C 193.66 254.652 193.613 254.719 193.891 254.836 C 193.953 254.836 194.012 254.813 194.074 254.813 C 194.137 254.832 194.18 254.887 194.227 254.93 C 194.199 254.973 194.16 255.012 194.156 255.063 C 194.254 255.125 195.082 255.461 195.309 255.578 C 195.641 255.75 195.973 255.914 196.324 256.039 C 196.504 256.102 196.66 256.227 196.836 256.305 C 197.012 256.387 197.184 256.48 197.336 256.602 C 197.516 256.73 197.758 256.676 197.691 257.16 C 197.645 257.523 197.402 257.887 197.09 258.086 C 197.023 258.133 196.941 258.125 196.875 258.191 C 196.684 258.379 196.426 258.469 196.211 258.617 C 195.551 259.07 193.797 258.723 193.34 258.723 C 192.25 258.691 192.453 258.559 191.586 258.457 C 191.414 258.438 191.266 258.348 191.113 258.277 C 190.605 258.09 191.145 258.215 189.906 257.852 C 189.707 257.793 189.074 257.809 189.012 257.813 C 188.387 257.824 189.301 257.938 186.332 257.738 C 185.422 257.68 184.703 257.492 184.492 257.34 C 184.23 257.152 183.953 256.422 184.098 256.051 C 184.168 255.895 184.207 255.715 184.207 255.547 C 184.348 255.398 184.301 255.172 184.309 254.984 C 184.309 254.984 184.371 254.137 184.371 254.078 C 184.379 253.914 184.43 253.758 184.477 253.602 C 184.496 253.527 184.563 253.48 184.598 253.414 C 184.73 253.086 184.875 252.762 185 252.43 C 185.035 252.34 184.961 252.246 185 252.156 C 185.191 251.676 185.328 251.707 185.504 251.668 C 185.613 251.652 185.707 251.59 185.809 251.547 C 185.902 251.5 186.008 251.477 186.102 251.438 C 186.59 248.973 186.543 248.914 186.742 247.105 C 186.746 247.184 186.746 247.262 186.746 247.34 C 186.766 246.621 186.828 245.891 186.809 245.172 C 186.789 244.449 186.582 243.742 186.516 243.027 C 186.395 241.645 186.41 241.961 186.598 240.563 C 186.801 239.031 187.066 237.785 187.723 236.094 C 187.785 235.938 188.008 234.887 188.211 234.465 C 188.332 234.219 188.652 233.953 188.723 233.711 C 188.758 233.602 188.676 233.453 188.672 233.34 C 188.664 233.199 188.688 233.035 188.684 232.887 C 188.688 233.043 188.488 228.082 188.387 227.418 C 188.297 226.832 188.129 226.227 188.184 225.633 C 188.176 225.578 188.164 225.512 188.121 225.473 C 187.902 225.309 186.891 224.84 186.656 224.633 C 186.555 224.543 186.441 224.469 186.324 224.402 C 186.328 223.766 186.395 223.801 186.551 223.297 C 186.754 222.637 186.699 221.871 186.719 221.188 C 186.738 220.414 186.805 219.633 186.711 218.855 C 186.664 218.453 186.738 218.047 186.75 217.641 C 186.809 216.98 186.75 216.316 186.781 215.656 C 186.77 215.477 186.754 215.297 186.711 215.125 C 186.52 214.156 186.371 213.563 185.57 212.836 C 185.395 212.672 185.234 212.488 185.051 212.336 C 184.93 212.25 184.813 212.164 184.707 212.063 C 183.77 211.203 182.781 210.68 181.945 209.973 C 181.441 209.535 181.082 209.395 180.777 209.16 C 180.645 209.074 180.25 208.758 179.336 208.48 C 177.57 207.77 177.598 208.031 177.617 207.656 C 177.547 207.613 177.445 207.605 177.406 207.523 C 176.875 206.73 177.457 207.148 175.766 206.059 C 175.395 205.82 175.023 205.523 174.602 205.387 C 174.5 205.355 174.41 205.289 174.305 205.266 C 174.25 205.25 173.313 204.93 173.305 204.926 C 172.719 204.641 170.949 204.563 168.898 202.715 C 168.801 202.621 168.617 202.621 168.574 202.477 C 168.5 202.27 167.945 201.984 167.605 201.957 C 167.266 201.961 166.918 201.977 166.582 201.918 C 166.707 201.887 166.836 201.918 166.961 201.934 C 166.586 201.813 166.031 202.219 162.605 200.32 C 158.141 197.848 159.34 198.563 158.188 198.309 C 157.719 198.148 157.781 198.238 156.914 198.246 C 156.828 198.234 156.77 198.34 156.68 198.316 C 156.512 198.277 156.336 198.266 156.164 198.238 C 156.105 198.227 156.051 198.27 155.996 198.289 C 155.836 198.371 155.656 198.348 155.484 198.371 C 155.469 198.535 155.492 198.699 155.496 198.859 C 155.461 198.859 155.426 198.863 155.391 198.863 C 155.379 198.699 155.375 198.535 155.359 198.375 C 155.262 198.371 154.859 198.359 154.746 198.297 C 154.465 198.152 154.137 198.227 153.832 198.203 C 153.648 198.184 153.527 198.355 153.367 198.41 C 152.617 198.441 152.938 198.332 152.691 198.438 C 152.441 198.566 152.238 198.461 151.684 198.75 C 151.566 198.809 151.438 198.836 151.316 198.887 C 151.23 198.918 151.18 199.004 151.113 199.063 C 151.012 199.16 150.859 199.191 150.762 199.297 C 150.652 199.418 150.477 199.43 150.324 199.449 C 149.93 199.422 149.895 199.441 149.551 198.324 C 149.422 197.906 149.336 197.48 149.27 197.051 C 149.02 196.012 148.816 195.379 148.91 194.609 C 148.945 194.594 148.984 194.574 149.02 194.559 C 149.039 194.484 149.039 194.395 149.105 194.348 C 149.195 194.281 149.313 194.273 149.414 194.23 C 149.582 194.148 149.762 194.266 149.938 194.242 C 150.059 194.219 150.176 194.277 150.297 194.297 C 150.375 194.285 150.438 194.227 150.512 194.199 C 150.637 194.141 150.781 194.172 150.914 194.16 C 151.027 194.156 151.129 194.098 151.238 194.078 C 151.363 194.07 151.484 194.121 151.613 194.129 C 151.75 194.133 151.883 194.156 152.02 194.176 C 152.176 194.199 152.34 194.156 152.496 194.199 C 152.566 194.211 152.637 194.246 152.711 194.238 C 152.805 194.223 152.887 194.164 152.98 194.156 C 153.238 194.129 153.492 194.047 153.758 194.055 C 153.871 194.055 153.961 193.969 154.074 193.969 C 155.148 193.953 155.094 194.035 155.41 194.395 C 155.52 194.469 155.652 194.492 155.773 194.543 C 156.453 194.824 156.828 194.758 157.121 195.043 C 157.207 195.125 157.219 195.246 157.27 195.352 C 157.352 195.414 157.457 195.43 157.551 195.469 C 157.809 195.559 158.039 195.703 158.293 195.797 C 158.93 196.051 161.145 195.988 163.023 196.063 C 162.992 196.09 165.082 196.063 166.156 196.238 C 168.773 196.664 169.473 197.559 170.246 197.965 C 170.293 197.984 170.348 197.965 170.395 197.984 C 170.477 198.027 170.531 198.113 170.605 198.164 C 170.91 198.355 171.852 198.75 172.262 198.84 C 172.477 198.887 175.191 200.047 176.527 200.051 C 176.746 200.051 176.938 200.172 177.148 200.199 C 177.246 200.207 177.34 200.227 177.43 200.258 C 177.477 200.223 177.531 200.184 177.594 200.207 C 177.949 200.309 178.328 200.414 178.699 200.344 C 178.816 200.32 178.906 200.43 179.223 200.617 C 179.277 200.664 179.348 200.602 179.41 200.617 C 179.602 200.676 179.992 200.676 180.355 201.008 C 180.48 201.129 180.668 201.09 180.824 201.129 C 181.078 201.199 181.344 201.227 181.586 201.332 C 181.789 201.391 181.957 201.578 182.18 201.551 C 182.324 201.508 182.387 201.332 182.539 201.309 C 182.645 201.262 182.996 201.57 183.074 201.641 C 183.148 201.699 183.184 201.809 183.281 201.836 C 183.422 201.883 183.559 201.949 183.707 201.973 C 183.996 201.918 184.297 201.914 184.59 201.941 C 184.754 201.961 184.941 201.898 185.082 202.016 C 185.113 202.148 185.156 202.281 185.242 202.387 C 185.266 202.438 185.32 202.43 185.367 202.438 C 185.398 202.355 185.402 202.246 185.492 202.199 C 185.563 202.156 185.645 202.094 185.734 202.109 C 185.844 202.184 185.813 202.34 185.902 202.43 C 186.18 202.723 186.383 202.465 186.734 202.484 C 186.918 202.5 187.105 202.508 187.293 202.504 C 187.355 202.395 187.336 202.273 188.02 202.184 C 188.238 202.152 188.457 202.063 188.676 202.113 C 188.789 202.121 188.91 202.137 189.023 202.113 C 189.117 202.105 189.105 201.961 189.199 201.965 C 189.512 201.949 189.824 201.941 190.137 201.918 C 190.379 201.914 190.613 201.836 190.855 201.84 C 190.93 201.863 190.996 201.91 191.074 201.918 C 191.359 201.941 191.383 202.402 191.531 202.695 C 191.551 202.75 191.633 202.723 191.648 202.68 C 191.711 202.551 191.883 202.02 192.359 202.023 C 193.176 202.012 193.863 202.168 193.91 202.172 C 194.035 202.121 194.117 201.996 194.254 201.965 C 194.398 201.938 194.473 201.781 194.621 201.762 C 194.707 201.75 194.789 201.789 194.875 201.781 C 194.977 201.73 195.039 201.621 195.137 201.559 C 195.188 201.52 195.25 201.496 195.293 201.445 C 195.352 201.316 195.387 201.176 195.461 201.055 C 195.574 200.969 195.711 200.914 195.84 200.859 C 195.867 200.676 195.805 200.492 195.801 200.309 C 195.813 200.094 195.977 199.914 196.168 199.832 C 196.223 199.801 196.289 199.816 196.352 199.809 C 196.461 199.75 196.688 199.461 196.895 199.027 C 196.961 198.906 196.668 198.215 196.656 198.184 C 196.547 198.078 196.418 197.992 196.32 197.875 C 195.219 198.004 195.41 198.125 195.121 197.441 C 194.934 197.305 194.719 197.219 194.512 197.117 C 193.641 196.703 193.68 196.848 192.633 196.766 C 192.07 196.703 191.5 196.73 190.938 196.672 C 190.34 196.633 189.746 196.516 189.148 196.484 C 187.734 196.48 187.852 196.672 186.723 196.219 C 186.625 196.176 186.047 196.02 185.582 196.02 C 185.102 196.016 184.633 195.91 183.898 195.695 C 183.598 195.605 183.281 195.578 182.977 195.496 C 181.711 195.137 182.668 195.504 180.707 194.68 C 180.547 194.598 178.891 194.148 178.766 194.129 C 177.344 193.762 176.449 193.992 175.965 194.004 C 175.73 194.035 175.473 194.078 175.297 194.258 C 174.887 194.68 174.34 194.758 173.832 194.988 C 173.672 195.051 173.516 195.137 173.34 195.168 C 173.199 195.199 172.094 195.219 172.027 195.223 C 171.52 195.242 171.5 195.07 171.422 194.73 C 171.383 194.539 171.516 194.383 171.602 194.227 C 171.563 194.199 171.523 194.168 171.477 194.184 C 170.547 194.281 170.746 193.762 170.957 192.891 C 171.027 192.648 170.918 192.469 171.285 192.039 C 171.383 191.938 171.242 191.586 171.398 191.348 C 171.57 190.996 171.949 191.164 172.074 191.063 C 172.367 190.848 172.508 190.945 172.66 190.848 C 172.98 190.641 173.613 190.906 173.648 190.918 C 173.668 190.922 175.656 191.43 175.91 191.465 C 176.914 191.516 176.652 191.293 177.25 191.496 C 177.566 191.602 178.418 191.754 179.203 191.652 C 179.484 191.598 181.68 191.551 181.699 191.551 C 184.324 191.328 185.719 191.668 186.109 191.746 C 186.379 191.809 187.836 191.531 189.191 192.09 C 189.559 192.215 189.984 192.488 190.863 192.617 C 192.141 192.875 192.941 192.59 193.758 192.543 C 194.27 192.512 194.813 192.598 195.309 192.559 C 195.516 192.543 195.715 192.469 195.922 192.457 C 196.074 192.43 196.227 192.445 196.379 192.434 C 196.848 192.336 197.324 192.301 197.801 192.254 C 201.391 192.285 200.863 192.695 201.707 192.91 C 201.758 192.891 201.789 192.852 201.828 192.816 C 202.16 192.449 202.379 192.508 202.602 192.469 C 202.941 192.406 202.988 193.23 203.262 193.18 C 203.441 193.156 203.617 193.09 203.801 193.102 C 204.016 193.105 204.191 193.254 204.23 193.129 C 204.289 192.992 204.957 191.613 205.051 191.512 C 205.109 191.438 205.188 191.371 205.207 191.273 C 205.195 191.102 205.258 190.938 205.234 190.766 C 205.113 190.746 205.008 190.688 204.906 190.617 C 205.613 190.434 204.969 190.324 204.848 189.805 C 204.625 189.188 205.152 189.195 205.129 188.684 C 205.113 188.551 205.223 188.457 205.238 188.332 C 205.266 188.16 205.359 188.012 205.438 187.855 C 205.484 187.781 205.563 187.727 205.594 187.641 C 205.617 187.547 205.734 187.52 205.754 187.422 C 205.777 187.313 206.129 186.953 206.215 186.738 C 206.23 186.625 206.258 186.516 206.25 186.402 C 206.148 186.367 206.008 186.34 205.984 186.219 C 205.844 185.566 206.168 185.094 206.297 185.02 C 206.402 184.957 206.492 184.867 206.602 184.813 C 206.652 184.785 206.695 184.754 206.734 184.715 C 206.711 184.711 206.66 184.703 206.637 184.699 C 206.773 184.602 206.949 184.613 207.109 184.59 C 207.359 184.488 207.242 184.359 208.41 184.34 C 208.684 184.332 208.957 184.27 209.23 184.27 C 210.188 184.07 210.277 184.238 210.82 184.293 C 210.957 184.301 211.078 184.371 211.211 184.406 C 211.375 184.457 211.555 184.441 211.727 184.461 C 212.27 184.598 213.563 185.004 214.094 185.406 C 214.32 185.555 214.492 185.762 214.66 185.969 C 214.738 186.133 214.883 186.246 214.984 186.395 C 215.23 186.707 215.563 187.457 215.582 187.668 C 215.594 187.797 215.605 187.93 215.652 188.055 C 215.688 188.207 215.688 188.363 215.727 188.516 C 215.777 188.711 215.746 188.914 215.809 189.105 C 215.871 189.313 215.949 190.313 215.879 190.578 C 215.836 190.719 215.891 190.879 215.793 191 C 215.738 191.102 215.699 191.215 215.656 191.324 C 215.613 191.488 215.508 191.629 215.449 191.789 C 215.402 191.879 215.363 192.301 215.262 192.48 C 215.027 192.906 214.906 193.684 214.902 193.723 C 214.84 194.383 214.766 194.039 214.453 194.891 C 214.391 195.023 214.285 195.133 214.207 195.258 C 214.156 195.336 214.059 195.355 214 195.422 C 213.902 195.531 213.824 195.664 213.688 195.727 C 213.566 195.773 213.449 195.836 213.32 195.855 C 213.238 195.77 213.289 195.668 213.34 195.586 C 213.199 195.578 213.051 195.613 212.926 195.535 C 212.863 195.516 212.797 195.441 212.738 195.5 C 212.59 195.594 212.613 196.094 212.574 196.254 C 212.523 196.645 212.609 196.352 213.188 197.059 C 213.613 197.547 213.563 197.73 213.785 197.988 C 213.875 198.086 213.918 198.215 213.973 198.336 C 214.043 198.484 214.047 198.648 214.039 198.809 C 214.039 198.855 214.023 198.91 214.063 198.941 C 214.145 199.012 214.27 199.004 214.344 199.09 C 214.469 199.207 214.492 199.395 214.621 199.508 C 215.426 200.281 215.656 200.828 215.941 201.137 C 216.098 201.305 216.18 201.527 216.242 201.746 C 216.332 202.039 216.504 202.293 216.613 202.578 C 217.047 203.664 216.664 204.844 216.422 205.941 Z M 191.168 252.25 C 191.203 252.238 191.234 252.223 191.273 252.211 C 191.422 251.809 191.285 252.223 191.738 251.285 C 191.816 251.141 191.797 250.969 191.793 250.809 C 191.555 250.824 191.598 250.844 191.504 250.969 C 190.777 251.297 191.066 251.961 191.168 252.25 Z M 187.66 170.941 C 186.172 170.941 184.691 171.016 183.211 171.16 C 181.734 171.305 180.266 171.523 178.809 171.813 C 177.348 172.102 175.91 172.465 174.488 172.895 C 173.066 173.328 171.668 173.828 170.297 174.395 C 168.922 174.965 167.582 175.598 166.27 176.301 C 164.961 177 163.688 177.762 162.449 178.59 C 161.215 179.414 160.023 180.297 158.875 181.242 C 157.727 182.184 156.625 183.18 155.574 184.23 C 154.523 185.281 153.527 186.383 152.582 187.531 C 151.641 188.68 150.758 189.871 149.93 191.109 C 149.105 192.344 148.344 193.617 147.641 194.926 C 146.941 196.238 146.309 197.578 145.738 198.953 C 145.168 200.324 144.668 201.723 144.238 203.145 C 143.809 204.566 143.445 206.008 143.156 207.465 C 142.867 208.922 142.648 210.391 142.504 211.867 C 142.355 213.348 142.285 214.832 142.285 216.316 C 142.285 217.801 142.355 219.285 142.504 220.766 C 142.648 222.242 142.867 223.711 143.156 225.168 C 143.445 226.625 143.809 228.066 144.238 229.488 C 144.668 230.91 145.168 232.309 145.738 233.68 C 146.309 235.055 146.941 236.395 147.641 237.707 C 148.344 239.016 149.105 240.289 149.93 241.527 C 150.758 242.762 151.641 243.953 152.582 245.102 C 153.527 246.25 154.523 247.352 155.574 248.402 C 156.625 249.453 157.727 250.449 158.875 251.391 C 160.023 252.336 161.215 253.219 162.449 254.043 C 163.688 254.871 164.961 255.633 166.27 256.332 C 167.582 257.035 168.922 257.668 170.297 258.238 C 171.668 258.805 173.066 259.305 174.488 259.738 C 175.91 260.168 177.348 260.531 178.809 260.82 C 180.266 261.109 181.734 261.328 183.211 261.473 C 184.691 261.617 186.172 261.691 187.66 261.691 C 189.145 261.691 190.629 261.617 192.105 261.473 C 193.586 261.328 195.055 261.109 196.512 260.82 C 197.969 260.531 199.41 260.168 200.832 259.738 C 202.254 259.305 203.652 258.805 205.023 258.238 C 206.398 257.668 207.738 257.035 209.051 256.332 C 210.359 255.633 211.633 254.871 212.867 254.043 C 214.105 253.219 215.297 252.336 216.445 251.391 C 217.594 250.449 218.695 249.453 219.746 248.402 C 220.797 247.352 221.793 246.25 222.734 245.102 C 223.676 243.953 224.563 242.762 225.387 241.527 C 226.211 240.289 226.977 239.016 227.676 237.707 C 228.379 236.395 229.012 235.055 229.582 233.68 C 230.148 232.309 230.648 230.91 231.082 229.488 C 231.512 228.066 231.871 226.625 232.164 225.168 C 232.453 223.711 232.672 222.242 232.816 220.766 C 232.961 219.285 233.035 217.801 233.035 216.316 C 233.035 214.832 232.961 213.348 232.816 211.867 C 232.672 210.391 232.453 208.922 232.164 207.465 C 231.871 206.008 231.512 204.566 231.082 203.145 C 230.648 201.723 230.148 200.324 229.582 198.953 C 229.012 197.578 228.379 196.238 227.676 194.926 C 226.977 193.617 226.211 192.344 225.387 191.109 C 224.563 189.871 223.676 188.68 222.734 187.531 C 221.793 186.383 220.797 185.281 219.746 184.23 C 218.695 183.18 217.594 182.184 216.445 181.242 C 215.297 180.297 214.105 179.414 212.867 178.59 C 211.633 177.762 210.359 177 209.051 176.301 C 207.738 175.598 206.398 174.965 205.023 174.395 C 203.652 173.828 202.254 173.328 200.832 172.895 C 199.41 172.465 197.969 172.102 196.512 171.813 C 195.055 171.523 193.586 171.305 192.105 171.16 C 190.629 171.016 189.145 170.941 187.66 170.941 Z"/>
  </g>
</svg>