<?xml version="1.0" encoding="utf-8"?>
<svg contentscripttype="text/ecmascript" width="375pt" zoomAndPan="magnify" contentstyletype="text/css" viewBox="0 0 375 374.999991" height="374.999991pt" preserveAspectRatio="xMidYMid meet" version="1.2" xmlns="http://www.w3.org/2000/svg">
  <defs>
    <g/>
    <clipPath id="clip1">
      <path d="M 90.542969 82.910156 L 286.292969 82.910156 L 286.292969 237.410156 L 90.542969 237.410156 Z M 90.542969 82.910156 "/>
    </clipPath>
    <clipPath id="clip2">
      <path d="M 149.878906 135.667969 L 218 135.667969 L 218 210.667969 L 149.878906 210.667969 Z M 149.878906 135.667969 "/>
    </clipPath>
  </defs>
  <g id="surface1">
    <g clip-rule="nonzero" clip-path="url(#clip1)">
      <path style=" stroke:none;fill-rule:nonzero;fill:rgb(22.349548%,22.349548%,22.349548%);fill-opacity:1;" d="M 276.488281 109.023438 L 235.464844 109.023438 L 234.078125 99.199219 L 233.011719 92.578125 C 232.582031 89.910156 231.171875 87.699219 228.960938 85.851562 C 226.699219 83.960938 224.273438 82.96875 221.609375 82.96875 L 154.90625 82.96875 C 152.242188 82.96875 149.789062 83.925781 147.550781 85.851562 C 145.3125 87.773438 144.125 90.027344 143.714844 92.578125 L 142.648438 99.199219 L 141.15625 109.023438 L 100.34375 109.023438 C 94.910156 109.023438 90.539062 113.402344 90.539062 118.636719 L 90.539062 227.5625 C 90.539062 233.003906 94.910156 237.382812 100.34375 237.382812 L 276.484375 237.382812 C 281.921875 237.382812 286.289062 233.003906 286.289062 227.5625 L 286.289062 118.636719 C 286.289062 113.402344 281.921875 109.023438 276.484375 109.023438 Z M 274.464844 225.53125 L 102.265625 225.53125 L 102.265625 120.773438 L 141.160156 120.773438 C 147.019531 120.773438 152.082031 116.402344 152.878906 110.734375 L 154.265625 100.910156 L 155.332031 94.824219 L 221.398438 94.824219 L 222.355469 100.910156 L 223.847656 110.734375 C 224.707031 116.394531 229.816406 120.773438 235.464844 120.773438 L 274.464844 120.773438 Z M 274.464844 225.53125 "/>
    </g>
    <path style=" stroke:none;fill-rule:nonzero;fill:rgb(52.549744%,45.489502%,66.668701%);fill-opacity:1;" d="M 193.18 122.758 C 194.656 122.902 196.125 123.121 197.582 123.41 C 199.039 123.699 200.48 124.063 201.902 124.492 C 203.324 124.926 204.723 125.426 206.094 125.992 C 207.469 126.563 208.809 127.195 210.121 127.898 C 211.43 128.598 212.703 129.359 213.938 130.188 C 215.176 131.012 216.367 131.895 217.516 132.84 C 218.664 133.781 219.766 134.777 220.816 135.828 C 221.867 136.879 222.863 137.98 223.805 139.129 C 224.75 140.277 225.633 141.469 226.457 142.703 C 227.285 143.941 228.047 145.215 228.746 146.523 C 229.449 147.836 230.082 149.176 230.652 150.551 C 231.219 151.922 231.719 153.32 232.152 154.742 C 232.582 156.164 232.945 157.605 233.234 159.063 C 233.523 160.52 233.742 161.988 233.887 163.465 C 234.031 164.945 234.105 166.426 234.105 167.914 C 234.105 169.398 234.031 170.883 233.887 172.359 C 233.742 173.84 233.523 175.309 233.234 176.766 C 232.945 178.223 232.582 179.664 232.152 181.086 C 231.719 182.508 231.219 183.906 230.652 185.277 C 230.082 186.652 229.449 187.992 228.746 189.305 C 228.047 190.613 227.285 191.887 226.457 193.121 C 225.633 194.359 224.75 195.551 223.805 196.699 C 222.863 197.848 221.867 198.949 220.816 200 C 219.766 201.051 218.664 202.047 217.516 202.988 C 216.367 203.934 215.176 204.816 213.938 205.641 C 212.703 206.469 211.43 207.23 210.121 207.93 C 208.809 208.633 207.469 209.266 206.094 209.836 C 204.723 210.402 203.324 210.902 201.902 211.336 C 200.48 211.766 199.039 212.125 197.582 212.418 C 196.125 212.707 194.656 212.926 193.18 213.07 C 191.699 213.215 190.215 213.289 188.73 213.289 C 187.246 213.289 185.762 213.215 184.281 213.07 C 182.805 212.926 181.336 212.707 179.879 212.418 C 178.422 212.125 176.98 211.766 175.559 211.336 C 174.137 210.902 172.738 210.402 171.367 209.836 C 169.992 209.266 168.652 208.633 167.34 207.93 C 166.031 207.23 164.758 206.469 163.52 205.641 C 162.285 204.816 161.094 203.934 159.945 202.988 C 158.797 202.047 157.695 201.051 156.645 200 C 155.594 198.949 154.598 197.848 153.656 196.699 C 152.711 195.551 151.828 194.359 151.004 193.121 C 150.176 191.887 149.414 190.613 148.715 189.305 C 148.012 187.992 147.379 186.652 146.809 185.277 C 146.242 183.906 145.742 182.508 145.309 181.086 C 144.879 179.664 144.516 178.223 144.227 176.766 C 143.938 175.309 143.719 173.84 143.574 172.359 C 143.43 170.883 143.355 169.398 143.355 167.914 C 143.355 166.426 143.43 164.945 143.574 163.465 C 143.719 161.988 143.938 160.52 144.227 159.063 C 144.516 157.605 144.879 156.164 145.309 154.742 C 145.742 153.32 146.242 151.922 146.809 150.551 C 147.379 149.176 148.012 147.836 148.715 146.523 C 149.414 145.215 150.176 143.941 151.004 142.703 C 151.828 141.469 152.711 140.277 153.656 139.129 C 154.598 137.98 155.594 136.879 156.645 135.828 C 157.695 134.777 158.797 133.781 159.945 132.84 C 161.094 131.895 162.285 131.012 163.52 130.188 C 164.758 129.359 166.031 128.598 167.34 127.898 C 168.652 127.195 169.992 126.563 171.367 125.992 C 172.738 125.426 174.137 124.926 175.559 124.492 C 176.98 124.063 178.422 123.699 179.879 123.41 C 181.336 123.121 182.805 122.902 184.281 122.758 C 185.762 122.613 187.246 122.539 188.73 122.539 C 190.215 122.539 191.699 122.613 193.18 122.758 Z M 217.684 154.176 C 217.578 153.891 217.402 153.637 217.313 153.344 C 217.25 153.125 217.168 152.902 217.012 152.734 C 216.727 152.426 216.496 151.875 215.691 151.105 C 215.563 150.992 215.539 150.805 215.414 150.688 C 215.344 150.602 215.219 150.609 215.137 150.539 C 215.094 150.508 215.109 150.449 215.109 150.406 C 215.117 150.246 215.113 150.082 215.047 149.934 C 214.988 149.813 214.945 149.684 214.855 149.586 C 214.633 149.328 214.684 149.145 214.258 148.656 C 213.68 147.949 213.594 148.242 213.648 147.852 C 213.688 147.691 213.66 147.191 213.809 147.094 C 213.867 147.039 213.934 147.109 213.996 147.129 C 214.121 147.211 214.273 147.176 214.414 147.184 C 214.359 147.266 214.309 147.367 214.391 147.453 C 214.52 147.434 214.637 147.371 214.758 147.324 C 214.895 147.258 214.973 147.125 215.07 147.02 C 215.129 146.953 215.23 146.934 215.277 146.855 C 215.359 146.73 215.461 146.621 215.523 146.488 C 215.836 145.637 215.91 145.98 215.977 145.32 C 215.977 145.281 216.098 144.504 216.332 144.078 C 216.438 143.898 216.473 143.477 216.523 143.383 C 216.578 143.223 216.684 143.086 216.73 142.922 C 216.77 142.813 216.809 142.699 216.863 142.598 C 216.961 142.477 216.906 142.316 216.949 142.176 C 217.02 141.91 216.941 140.91 216.883 140.703 C 216.82 140.512 216.852 140.305 216.797 140.113 C 216.758 139.961 216.762 139.801 216.723 139.652 C 216.676 139.527 216.664 139.395 216.652 139.262 C 216.633 139.055 216.305 138.305 216.059 137.988 C 215.953 137.844 215.809 137.73 215.73 137.566 C 215.563 137.359 215.391 137.148 215.168 137.004 C 214.637 136.602 213.34 136.195 212.797 136.059 C 212.625 136.039 212.449 136.055 212.281 136.004 C 212.148 135.969 212.027 135.898 211.891 135.887 C 211.348 135.836 211.258 135.668 210.301 135.867 C 210.027 135.867 209.754 135.93 209.48 135.938 C 208.313 135.957 208.43 136.086 208.18 136.188 C 208.023 136.211 207.844 136.199 207.707 136.297 C 207.73 136.301 207.781 136.309 207.809 136.313 C 207.766 136.352 207.723 136.383 207.676 136.406 C 207.563 136.465 207.473 136.555 207.367 136.617 C 207.238 136.691 206.914 137.164 207.055 137.813 C 207.082 137.938 207.219 137.965 207.324 138 C 207.328 138.113 207.305 138.223 207.289 138.336 C 207.199 138.551 206.852 138.91 206.824 139.02 C 206.809 139.117 206.688 139.141 206.664 139.238 C 206.633 139.324 206.555 139.379 206.508 139.453 C 206.43 139.605 206.34 139.758 206.309 139.93 C 206.293 140.055 206.188 140.148 206.199 140.277 C 206.223 140.793 205.699 140.785 205.918 141.402 C 206.043 141.922 206.684 142.031 205.977 142.215 C 206.078 142.281 206.184 142.344 206.305 142.363 C 206.328 142.535 206.266 142.699 206.277 142.871 C 206.258 142.965 206.18 143.035 206.125 143.109 C 206.027 143.211 205.363 144.59 205.305 144.727 C 205.262 144.852 205.09 144.703 204.875 144.699 C 204.688 144.688 204.512 144.754 204.332 144.777 C 204.059 144.828 204.012 144 203.676 144.066 C 203.449 144.105 203.234 144.047 202.898 144.414 C 202.859 144.449 202.828 144.488 202.777 144.508 C 201.938 144.293 202.465 143.883 198.871 143.852 C 198.395 143.898 197.918 143.93 197.449 144.031 C 197.297 144.039 197.145 144.027 196.996 144.055 C 196.785 144.066 196.586 144.137 196.379 144.156 C 195.883 144.195 195.34 144.109 194.828 144.141 C 194.016 144.188 193.211 144.473 191.934 144.215 C 191.055 144.086 190.633 143.809 190.262 143.688 C 188.91 143.129 187.449 143.406 187.184 143.344 C 186.789 143.266 185.395 142.926 182.77 143.145 C 182.75 143.148 180.559 143.195 180.273 143.25 C 179.488 143.352 178.637 143.199 178.32 143.094 C 177.723 142.887 177.984 143.113 176.98 143.063 C 176.727 143.027 174.738 142.52 174.719 142.516 C 174.684 142.504 174.051 142.238 173.734 142.441 C 173.578 142.543 173.438 142.445 173.145 142.656 C 173.023 142.762 172.641 142.594 172.469 142.945 C 172.313 143.184 172.453 143.535 172.355 143.637 C 171.988 144.066 172.098 144.246 172.031 144.488 C 171.82 145.359 171.617 145.879 172.547 145.777 C 172.594 145.766 172.633 145.797 172.672 145.824 C 172.59 145.98 172.453 146.137 172.492 146.328 C 172.57 146.668 172.59 146.836 173.098 146.82 C 173.164 146.816 174.27 146.797 174.414 146.766 C 174.586 146.734 174.742 146.648 174.902 146.586 C 175.41 146.352 175.957 146.277 176.367 145.852 C 176.543 145.676 176.801 145.633 177.035 145.602 C 177.52 145.59 178.414 145.359 179.836 145.727 C 179.961 145.746 181.617 146.195 181.781 146.277 C 183.738 147.102 182.785 146.734 184.047 147.094 C 184.352 147.172 184.668 147.199 184.969 147.293 C 185.703 147.504 186.172 147.613 186.652 147.617 C 187.117 147.617 187.695 147.773 187.797 147.816 C 188.922 148.27 188.809 148.078 190.219 148.082 C 190.816 148.113 191.41 148.23 192.008 148.27 C 192.57 148.328 193.141 148.301 193.707 148.359 C 194.75 148.445 194.711 148.301 195.582 148.715 C 195.789 148.816 196.008 148.902 196.195 149.039 C 196.48 149.723 196.293 149.602 197.391 149.473 C 197.488 149.59 197.617 149.676 197.727 149.781 C 197.738 149.813 198.031 150.504 197.965 150.625 C 197.758 151.059 197.531 151.348 197.422 151.406 C 197.359 151.414 197.293 151.398 197.238 151.43 C 197.047 151.508 196.887 151.691 196.875 151.906 C 196.875 152.09 196.938 152.27 196.91 152.457 C 196.781 152.512 196.645 152.566 196.531 152.652 C 196.457 152.773 196.422 152.914 196.367 153.043 C 196.324 153.094 196.258 153.117 196.207 153.156 C 196.109 153.219 196.047 153.328 195.945 153.379 C 195.859 153.387 195.777 153.348 195.691 153.359 C 195.543 153.379 195.469 153.535 195.324 153.563 C 195.188 153.594 195.105 153.719 194.98 153.77 C 194.934 153.766 194.25 153.609 193.43 153.621 C 192.953 153.617 192.781 154.148 192.723 154.277 C 192.703 154.32 192.621 154.348 192.605 154.289 C 192.453 153.996 192.43 153.535 192.145 153.512 C 192.066 153.504 192.004 153.457 191.93 153.438 C 191.684 153.434 191.449 153.508 191.207 153.516 C 190.895 153.539 190.582 153.547 190.273 153.563 C 190.176 153.559 190.188 153.703 190.094 153.711 C 189.98 153.734 189.863 153.719 189.746 153.711 C 189.527 153.66 189.309 153.75 189.094 153.777 C 188.406 153.871 188.43 153.992 188.363 154.102 C 188.18 154.105 187.992 154.094 187.805 154.082 C 187.453 154.063 187.25 154.32 186.973 154.027 C 186.887 153.938 186.914 153.781 186.805 153.707 C 186.715 153.691 186.637 153.754 186.563 153.797 C 186.473 153.844 186.469 153.953 186.438 154.035 C 186.395 154.027 186.336 154.031 186.313 153.984 C 186.227 153.879 186.184 153.742 186.156 153.609 C 186.016 153.496 185.828 153.559 185.664 153.539 C 185.367 153.512 185.066 153.516 184.777 153.57 C 184.629 153.547 184.492 153.477 184.352 153.434 C 184.254 153.402 184.219 153.297 184.145 153.234 C 184.066 153.168 183.719 152.859 183.609 152.906 C 183.457 152.93 183.395 153.105 183.25 153.145 C 183.027 153.176 182.859 152.988 182.66 152.93 C 182.414 152.824 182.152 152.797 181.898 152.727 C 181.742 152.688 181.551 152.727 181.426 152.605 C 181.063 152.273 180.672 152.27 180.48 152.215 C 180.418 152.199 180.352 152.262 180.293 152.215 C 179.977 152.027 179.887 151.918 179.773 151.941 C 179.398 152.008 179.023 151.902 178.664 151.805 C 178.602 151.781 178.547 151.82 178.504 151.855 C 178.41 151.824 178.316 151.805 178.219 151.797 C 178.008 151.77 177.816 151.648 177.598 151.648 C 176.262 151.645 173.547 150.484 173.332 150.434 C 172.922 150.348 171.98 149.953 171.68 149.762 C 171.602 149.707 171.547 149.625 171.465 149.582 C 171.418 149.563 171.363 149.582 171.316 149.563 C 170.543 149.156 169.844 148.262 167.227 147.836 C 166.152 147.66 164.063 147.688 164.094 147.66 C 162.219 147.586 160 147.648 159.367 147.395 C 159.109 147.301 158.879 147.156 158.621 147.066 C 158.527 147.027 158.422 147.008 158.34 146.945 C 158.289 146.844 158.277 146.723 158.191 146.641 C 157.898 146.355 157.523 146.422 156.844 146.137 C 156.723 146.09 156.59 146.066 156.48 145.992 C 156.164 145.633 156.219 145.551 155.145 145.566 C 155.031 145.566 154.941 145.652 154.828 145.652 C 154.563 145.645 154.313 145.727 154.051 145.754 C 153.957 145.762 153.875 145.816 153.781 145.836 C 153.707 145.844 153.641 145.809 153.57 145.793 C 153.41 145.754 153.25 145.797 153.09 145.77 C 152.953 145.75 152.82 145.73 152.684 145.723 C 152.555 145.719 152.434 145.664 152.309 145.676 C 152.199 145.695 152.098 145.754 151.984 145.758 C 151.852 145.77 151.711 145.738 151.582 145.797 C 151.508 145.824 151.445 145.883 151.367 145.895 C 151.246 145.875 151.129 145.816 151.008 145.836 C 150.832 145.863 150.652 145.746 150.484 145.828 C 150.383 145.871 150.27 145.879 150.176 145.945 C 150.109 145.992 150.109 146.082 150.09 146.156 C 150.055 146.172 150.02 146.191 149.98 146.207 C 149.891 146.977 150.09 147.609 150.34 148.648 C 150.406 149.078 150.492 149.504 150.621 149.922 C 150.965 151.039 151 151.016 151.395 151.047 C 151.547 151.027 151.723 151.016 151.832 150.895 C 151.93 150.789 152.082 150.758 152.184 150.656 C 152.25 150.598 152.301 150.516 152.387 150.484 C 152.508 150.434 152.637 150.406 152.754 150.344 C 153.309 150.059 153.512 150.164 153.762 150.035 C 154.008 149.93 153.688 150.035 154.438 150.008 C 154.598 149.953 154.719 149.781 154.906 149.801 C 155.207 149.824 155.535 149.75 155.816 149.895 C 155.93 149.957 156.332 149.969 156.434 149.973 C 156.445 150.133 156.449 150.297 156.461 150.461 C 156.496 150.457 156.531 150.457 156.566 150.457 C 156.563 150.297 156.539 150.133 156.555 149.969 C 156.727 149.945 156.91 149.969 157.066 149.887 C 157.121 149.867 157.176 149.824 157.238 149.832 C 157.406 149.863 157.582 149.875 157.75 149.914 C 157.84 149.938 157.898 149.832 157.984 149.844 C 158.852 149.836 158.789 149.746 159.258 149.906 C 160.414 150.16 159.211 149.445 163.676 151.918 C 167.102 153.816 167.656 153.41 168.031 153.531 C 167.906 153.516 167.777 153.484 167.652 153.516 C 167.992 153.574 168.336 153.559 168.676 153.551 C 169.016 153.582 169.574 153.867 169.645 154.074 C 169.688 154.219 169.871 154.219 169.969 154.313 C 172.02 156.16 173.789 156.238 174.375 156.523 C 174.383 156.527 175.324 156.848 175.375 156.863 C 175.48 156.887 175.57 156.953 175.672 156.984 C 176.094 157.121 176.469 157.418 176.836 157.656 C 178.527 158.746 177.945 158.328 178.477 159.121 C 178.516 159.203 178.617 159.211 178.691 159.25 C 178.668 159.625 178.641 159.367 180.41 160.078 C 181.324 160.355 181.715 160.668 181.848 160.758 C 182.152 160.988 182.512 161.133 183.02 161.57 C 183.852 162.277 184.84 162.801 185.777 163.66 C 185.883 163.758 186.004 163.848 186.121 163.934 C 186.305 164.086 186.465 164.27 186.641 164.434 C 187.445 165.16 187.59 165.754 187.781 166.723 C 187.824 166.895 187.844 167.074 187.855 167.254 C 187.824 167.914 187.879 168.578 187.82 169.238 C 187.809 169.645 187.734 170.047 187.785 170.453 C 187.875 171.227 187.809 172.008 187.789 172.785 C 187.773 173.469 187.824 174.234 187.621 174.895 C 187.465 175.398 187.398 175.363 187.398 176 C 187.516 176.066 187.629 176.141 187.73 176.23 C 187.961 176.438 188.977 176.906 189.195 177.07 C 189.234 177.109 189.246 177.172 189.254 177.23 C 189.199 177.824 189.367 178.43 189.457 179.012 C 189.559 179.68 189.758 184.641 189.754 184.484 C 189.758 184.633 189.738 184.797 189.742 184.938 C 189.746 185.051 189.828 185.199 189.793 185.309 C 189.723 185.551 189.402 185.813 189.285 186.063 C 189.082 186.484 188.855 187.535 188.793 187.688 C 188.137 189.383 187.875 190.629 187.668 192.16 C 187.48 193.559 187.465 193.242 187.59 194.625 C 187.652 195.34 187.859 196.047 187.879 196.77 C 187.898 197.488 187.84 198.219 187.816 198.938 C 187.816 198.859 187.816 198.781 187.816 198.703 C 187.613 200.512 187.66 200.57 187.172 203.031 C 187.078 203.074 186.977 203.098 186.879 203.141 C 186.781 203.188 186.688 203.25 186.578 203.266 C 186.398 203.305 186.262 203.27 186.07 203.754 C 186.031 203.844 186.105 203.938 186.07 204.027 C 185.945 204.355 185.801 204.684 185.672 205.012 C 185.637 205.078 185.57 205.125 185.547 205.199 C 185.504 205.355 185.449 205.512 185.441 205.676 C 185.441 205.734 185.379 206.582 185.379 206.582 C 185.375 206.77 185.422 206.996 185.277 207.141 C 185.277 207.313 185.238 207.492 185.168 207.645 C 185.023 208.02 185.305 208.75 185.563 208.934 C 185.777 209.09 186.492 209.273 187.406 209.336 C 190.371 209.535 189.457 209.422 190.082 209.41 C 190.145 209.406 190.781 209.387 190.98 209.445 C 192.215 209.813 191.676 209.688 192.184 209.875 C 192.336 209.941 192.484 210.035 192.656 210.055 C 193.523 210.156 193.32 210.289 194.414 210.316 C 194.867 210.32 196.625 210.668 197.281 210.215 C 197.5 210.063 197.754 209.973 197.945 209.789 C 198.012 209.723 198.094 209.73 198.164 209.684 C 198.473 209.484 198.715 209.121 198.766 208.758 C 198.828 208.273 198.586 208.328 198.406 208.199 C 198.254 208.078 198.082 207.984 197.906 207.902 C 197.73 207.824 197.578 207.699 197.395 207.633 C 197.043 207.512 196.711 207.348 196.383 207.176 C 196.152 207.059 195.324 206.723 195.227 206.66 C 195.23 206.605 195.27 206.57 195.297 206.527 C 195.25 206.48 195.211 206.43 195.148 206.41 C 195.082 206.41 195.023 206.434 194.961 206.434 C 194.684 206.316 194.73 206.25 194.688 206.16 C 194.668 206.09 194.613 206.039 194.57 205.984 C 194.547 205.91 194.543 205.828 194.484 205.773 C 194.199 205.5 193.695 205.617 193.641 205.305 C 193.621 205.16 193.473 205.098 193.375 205.008 C 193.281 204.922 193.16 204.883 193.031 204.871 C 192.945 204.863 192.918 204.766 192.859 204.719 C 192.738 204.609 192.645 204.477 192.531 204.363 C 192.715 203.617 192.879 203.668 192.766 203.457 C 192.68 203.578 192.609 203.711 192.547 203.848 C 192.52 203.902 192.547 204.004 192.465 204.016 C 192.406 203.602 193.477 202.539 192.859 202.254 C 192.656 202.129 192.102 202.461 191.934 203.25 C 191.898 203.246 191.867 203.242 191.832 203.234 C 191.777 203.137 191.762 203.023 191.707 202.926 C 191.457 202.52 191.398 202.762 191.258 202.656 C 191.242 202.5 191.176 202.352 191.191 202.191 C 191.602 197.23 192.848 196.535 193.766 191.598 C 194.141 189.57 194.016 189.105 194.688 186.73 C 194.773 186.426 194.902 186.066 194.805 185.746 C 194.77 185.629 194.781 185.5 194.82 185.383 C 194.844 185.313 194.93 185.289 194.969 185.234 C 195.395 184.656 195.461 182.477 196.43 179.867 C 196.59 179.43 196.801 179.016 196.859 178.551 C 196.918 178.402 197.035 178.281 197.086 178.125 C 197.238 177.77 197.109 177.375 197.199 177.008 C 197.242 176.863 197.246 176.707 197.289 176.563 C 197.453 175.969 197.43 175.711 197.543 175.105 C 197.598 174.961 197.676 174.371 197.645 174.25 C 197.605 174.129 197.613 173.758 197.734 173.453 C 197.785 173.309 197.746 173.148 197.781 173 C 197.871 172.637 197.797 172.5 197.758 172.098 C 197.867 172.043 197.883 171.91 197.938 171.813 C 197.996 171.676 198.047 171.5 197.945 171.371 C 197.855 171.254 197.832 171.102 197.734 170.992 C 197.637 170.891 197.813 170.602 197.961 170.539 C 198.078 170.559 198.262 170.801 198.469 170.926 C 198.52 170.961 198.586 170.945 198.645 170.938 C 199.035 170.707 198.988 170.266 198.953 170.18 C 198.844 169.801 199.332 169.828 199.543 169.617 C 199.762 169.414 199.738 169.227 200.145 169.18 C 200.621 169.145 200.551 168.734 200.742 168.539 C 201.098 168.141 201.719 168 201.871 167.988 C 202.008 167.977 202.137 167.934 202.273 167.938 C 202.488 167.938 202.691 167.855 202.883 167.758 C 202.973 167.711 203.027 167.617 203.105 167.555 C 203.348 167.348 204.176 166.875 204.461 166.809 C 205.469 166.418 205.086 166.477 205.484 166.281 C 205.699 166.172 205.867 165.98 206.082 165.871 C 206.207 165.801 206.301 165.691 206.422 165.621 C 206.895 165.336 207.074 165.137 207.207 164.953 C 207.301 164.84 207.379 164.695 207.527 164.637 C 207.625 164.84 207.637 165.066 207.719 165.27 C 207.758 165.348 207.816 165.41 207.848 165.488 C 207.922 165.676 207.848 165.879 207.902 166.066 C 207.957 166.238 208.129 166.391 208.23 166.539 C 208.43 166.832 209.07 167.746 209.418 168.375 C 209.609 168.723 209.719 169.297 210.063 169.52 C 210.113 169.555 210.164 169.609 210.23 169.609 C 210.563 169.625 210.805 169.668 211.129 169.57 C 211.625 169.418 212.09 169.184 212.422 168.777 C 212.48 168.703 212.547 168.613 212.648 168.602 C 212.75 168.457 212.914 168.355 212.984 168.191 C 213.012 168.063 213.035 167.934 213.109 167.824 C 213.832 166.77 215.41 163.5 215.367 162.863 C 215.355 162.746 215.43 162.648 215.449 162.539 C 215.594 161.816 215.691 162.402 215.828 161.414 C 215.824 161.449 215.824 161.48 215.82 161.516 C 215.867 161.352 215.938 161.191 216.027 161.047 C 216.035 161.035 216.277 160.648 216.238 160.648 C 216.246 160.648 216.262 160.648 216.27 160.648 C 216.281 160.539 216.371 160.453 216.355 160.344 C 216.41 160.324 216.422 160.258 216.449 160.211 C 216.766 159.328 217.309 158.367 217.492 157.539 C 217.734 156.441 218.117 155.262 217.684 154.176 Z M 192.574 202.566 C 192.672 202.438 192.629 202.422 192.863 202.406 C 192.867 202.566 192.891 202.738 192.809 202.883 C 192.355 203.82 192.492 203.406 192.344 203.809 C 192.309 203.82 192.273 203.836 192.238 203.848 C 192.141 203.559 191.848 202.895 192.574 202.566 Z"/>
    <g clip-rule="nonzero" clip-path="url(#clip2)"/>
    <path style=" stroke:none;fill-rule:nonzero;fill:rgb(52.549744%,45.489502%,66.668701%);fill-opacity:1;" d="M 253.660156 49.640625 C 253.011719 49.640625 252.363281 49.671875 251.714844 49.734375 C 251.066406 49.800781 250.421875 49.894531 249.785156 50.023438 C 249.144531 50.148438 248.515625 50.308594 247.890625 50.496094 C 247.269531 50.683594 246.65625 50.902344 246.054688 51.152344 C 245.453125 51.402344 244.867188 51.679688 244.292969 51.988281 C 243.71875 52.292969 243.160156 52.628906 242.621094 52.988281 C 242.078125 53.351562 241.554688 53.738281 241.054688 54.152344 C 240.550781 54.5625 240.066406 55 239.609375 55.460938 C 239.148438 55.921875 238.710938 56.402344 238.296875 56.90625 C 237.886719 57.410156 237.496094 57.929688 237.136719 58.472656 C 236.773438 59.015625 236.441406 59.570312 236.132812 60.144531 C 235.828125 60.71875 235.546875 61.308594 235.300781 61.910156 C 235.050781 62.511719 234.832031 63.121094 234.644531 63.746094 C 234.453125 64.367188 234.296875 65 234.167969 65.636719 C 234.042969 66.277344 233.945312 66.917969 233.882812 67.566406 C 233.820312 68.214844 233.785156 68.863281 233.785156 69.515625 C 233.785156 70.164062 233.820312 70.816406 233.882812 71.464844 C 233.945312 72.109375 234.042969 72.753906 234.167969 73.390625 C 234.296875 74.03125 234.453125 74.660156 234.644531 75.285156 C 234.832031 75.90625 235.050781 76.519531 235.300781 77.121094 C 235.546875 77.722656 235.828125 78.308594 236.132812 78.882812 C 236.441406 79.457031 236.773438 80.015625 237.136719 80.558594 C 237.496094 81.097656 237.886719 81.621094 238.296875 82.125 C 238.710938 82.625 239.148438 83.109375 239.609375 83.570312 C 240.066406 84.027344 240.550781 84.464844 241.054688 84.878906 C 241.554688 85.292969 242.078125 85.679688 242.621094 86.039062 C 243.160156 86.402344 243.71875 86.734375 244.292969 87.042969 C 244.867188 87.351562 245.453125 87.628906 246.054688 87.875 C 246.65625 88.125 247.269531 88.34375 247.890625 88.535156 C 248.515625 88.722656 249.144531 88.882812 249.785156 89.007812 C 250.421875 89.136719 251.066406 89.230469 251.714844 89.292969 C 252.363281 89.359375 253.011719 89.390625 253.660156 89.390625 C 254.3125 89.390625 254.960938 89.359375 255.609375 89.292969 C 256.257812 89.230469 256.902344 89.136719 257.539062 89.007812 C 258.175781 88.882812 258.808594 88.722656 259.429688 88.535156 C 260.054688 88.34375 260.667969 88.125 261.269531 87.875 C 261.867188 87.628906 262.457031 87.351562 263.03125 87.042969 C 263.605469 86.734375 264.164062 86.402344 264.703125 86.039062 C 265.246094 85.679688 265.765625 85.292969 266.269531 84.878906 C 266.773438 84.464844 267.253906 84.027344 267.714844 83.570312 C 268.175781 83.109375 268.613281 82.625 269.023438 82.125 C 269.4375 81.621094 269.824219 81.097656 270.1875 80.558594 C 270.550781 80.015625 270.882812 79.457031 271.191406 78.882812 C 271.496094 78.308594 271.773438 77.722656 272.023438 77.121094 C 272.273438 76.519531 272.492188 75.90625 272.679688 75.285156 C 272.871094 74.660156 273.027344 74.03125 273.15625 73.390625 C 273.28125 72.753906 273.378906 72.109375 273.441406 71.464844 C 273.503906 70.816406 273.535156 70.164062 273.535156 69.515625 C 273.535156 68.863281 273.503906 68.214844 273.441406 67.566406 C 273.378906 66.917969 273.28125 66.277344 273.15625 65.636719 C 273.027344 65 272.871094 64.367188 272.679688 63.746094 C 272.492188 63.121094 272.273438 62.511719 272.023438 61.910156 C 271.773438 61.308594 271.496094 60.71875 271.191406 60.144531 C 270.882812 59.570312 270.550781 59.015625 270.1875 58.472656 C 269.824219 57.929688 269.4375 57.410156 269.023438 56.90625 C 268.613281 56.402344 268.175781 55.921875 267.714844 55.460938 C 267.253906 55 266.773438 54.5625 266.269531 54.152344 C 265.765625 53.738281 265.246094 53.351562 264.703125 52.988281 C 264.164062 52.628906 263.605469 52.292969 263.03125 51.988281 C 262.457031 51.679688 261.867188 51.402344 261.269531 51.152344 C 260.667969 50.902344 260.054688 50.683594 259.429688 50.496094 C 258.808594 50.308594 258.175781 50.148438 257.539062 50.023438 C 256.902344 49.894531 256.257812 49.800781 255.609375 49.734375 C 254.960938 49.671875 254.3125 49.640625 253.660156 49.640625 Z M 253.660156 49.640625 "/>
    <path style=" stroke:none;fill-rule:nonzero;fill:rgb(80.389404%,64.709473%,95.289612%);fill-opacity:1;" d="M 211.386719 40.871094 C 210.453125 40.871094 209.527344 40.960938 208.609375 41.144531 C 207.691406 41.328125 206.800781 41.597656 205.933594 41.957031 C 205.070312 42.3125 204.25 42.753906 203.472656 43.273438 C 202.695312 43.792969 201.972656 44.382812 201.3125 45.042969 C 200.652344 45.707031 200.058594 46.425781 199.539062 47.203125 C 199.019531 47.980469 198.582031 48.804688 198.222656 49.667969 C 197.863281 50.53125 197.59375 51.421875 197.414062 52.339844 C 197.230469 53.257812 197.136719 54.183594 197.136719 55.121094 C 197.136719 56.054688 197.230469 56.984375 197.414062 57.902344 C 197.59375 58.816406 197.863281 59.710938 198.222656 60.574219 C 198.582031 61.4375 199.019531 62.257812 199.539062 63.039062 C 200.058594 63.816406 200.652344 64.535156 201.3125 65.195312 C 201.972656 65.859375 202.695312 66.449219 203.472656 66.96875 C 204.25 67.488281 205.070312 67.929688 205.933594 68.285156 C 206.800781 68.644531 207.691406 68.914062 208.609375 69.097656 C 209.527344 69.28125 210.453125 69.371094 211.386719 69.371094 C 212.324219 69.371094 213.25 69.28125 214.167969 69.097656 C 215.085938 68.914062 215.976562 68.644531 216.839844 68.285156 C 217.707031 67.929688 218.527344 67.488281 219.304688 66.96875 C 220.082031 66.449219 220.804688 65.859375 221.464844 65.195312 C 222.125 64.535156 222.71875 63.816406 223.238281 63.039062 C 223.757812 62.257812 224.195312 61.4375 224.554688 60.574219 C 224.910156 59.710938 225.183594 58.816406 225.363281 57.902344 C 225.546875 56.984375 225.636719 56.054688 225.636719 55.121094 C 225.636719 54.183594 225.546875 53.257812 225.363281 52.339844 C 225.183594 51.421875 224.910156 50.53125 224.554688 49.667969 C 224.195312 48.804688 223.757812 47.980469 223.238281 47.203125 C 222.71875 46.425781 222.125 45.707031 221.464844 45.042969 C 220.804688 44.382812 220.082031 43.792969 219.304688 43.273438 C 218.527344 42.753906 217.707031 42.3125 216.839844 41.957031 C 215.976562 41.597656 215.085938 41.328125 214.167969 41.144531 C 213.25 40.960938 212.324219 40.871094 211.386719 40.871094 Z M 211.386719 40.871094 "/>
    <g style="fill:rgb(22.349548%,22.349548%,22.349548%);fill-opacity:1;">
      <g transform="translate(83.446859, 282.250133)">
        <path style="stroke:none;" d="M 7.453125 -21.292969 L 7.453125 0 L 12.777344 0 L 12.777344 -21.292969 L 15.226562 -21.292969 C 20.65625 -21.292969 22.09375 -17.566406 22.09375 -14.425781 C 22.09375 -6.441406 12.988281 2.820312 10.488281 3.511719 L 11.925781 4.898438 C 18.101562 3.621094 27.574219 -2.660156 27.574219 -14.265625 C 27.574219 -22.625 22.625 -27.148438 15.226562 -27.148438 L 1.597656 -27.148438 L 1.597656 -21.292969 Z M 7.453125 -21.292969 "/>
      </g>
    </g>
    <g style="fill:rgb(22.349548%,22.349548%,22.349548%);fill-opacity:1;">
      <g transform="translate(112.615065, 282.250133)">
        <path style="stroke:none;" d="M 1.597656 -13.308594 C 1.597656 -5.375 8.039062 1.066406 15.96875 1.066406 C 23.902344 1.066406 30.34375 -5.375 30.34375 -13.308594 C 30.34375 -21.242188 23.902344 -27.683594 15.96875 -27.683594 C 8.039062 -27.683594 1.597656 -21.242188 1.597656 -13.308594 Z M 6.921875 -13.308594 C 6.921875 -17.992188 10.964844 -21.828125 15.96875 -21.828125 C 20.972656 -21.828125 25.019531 -17.992188 25.019531 -13.308594 C 25.019531 -8.625 20.972656 -4.792969 15.96875 -4.792969 C 10.964844 -4.792969 6.921875 -8.625 6.921875 -13.308594 Z M 6.921875 -13.308594 "/>
      </g>
    </g>
    <g style="fill:rgb(22.349548%,22.349548%,22.349548%);fill-opacity:1;">
      <g transform="translate(144.551049, 282.250133)">
        <path style="stroke:none;" d="M 1.597656 -27.148438 L 1.597656 -21.292969 L 7.453125 -21.292969 L 7.453125 -18.683594 C 7.453125 -7.132812 4.632812 2.023438 1.917969 5.324219 L 3.9375 5.324219 C 9.261719 -0.585938 12.777344 -9.636719 12.777344 -19.378906 L 12.777344 -21.292969 L 17.566406 -21.292969 L 17.566406 -27.148438 Z M 1.597656 -27.148438 "/>
      </g>
    </g>
    <g style="fill:rgb(22.349548%,22.349548%,22.349548%);fill-opacity:1;">
      <g transform="translate(163.712646, 282.250133)">
        <path style="stroke:none;" d="M 1.597656 -13.308594 C 1.597656 -5.375 8.039062 1.066406 15.96875 1.066406 C 23.902344 1.066406 30.34375 -5.375 30.34375 -13.308594 C 30.34375 -21.242188 23.902344 -27.683594 15.96875 -27.683594 C 8.039062 -27.683594 1.597656 -21.242188 1.597656 -13.308594 Z M 6.921875 -13.308594 C 6.921875 -17.992188 10.964844 -21.828125 15.96875 -21.828125 C 20.972656 -21.828125 25.019531 -17.992188 25.019531 -13.308594 C 25.019531 -8.625 20.972656 -4.792969 15.96875 -4.792969 C 10.964844 -4.792969 6.921875 -8.625 6.921875 -13.308594 Z M 6.921875 -13.308594 "/>
      </g>
    </g>
    <g style="fill:rgb(22.349548%,22.349548%,22.349548%);fill-opacity:1;">
      <g transform="translate(195.648629, 282.250133)">
        <path style="stroke:none;" d="M 20.867188 -21.292969 L 20.867188 -14.375 L 26.191406 -19.695312 L 26.191406 -27.148438 L 15.96875 -27.148438 C 8.144531 -27.148438 1.597656 -20.816406 1.597656 -13.308594 C 1.597656 -5.535156 8.199219 1.066406 15.96875 1.066406 C 19.644531 1.066406 23.316406 -0.320312 26.136719 -3.140625 L 22.359375 -6.921875 C 20.601562 -5.109375 18.257812 -4.257812 15.96875 -4.257812 C 11.074219 -4.257812 6.921875 -8.410156 6.921875 -13.308594 C 6.921875 -17.621094 11.074219 -21.292969 15.96875 -21.292969 Z M 20.867188 -21.292969 "/>
      </g>
    </g>
    <g style="fill:rgb(22.349548%,22.349548%,22.349548%);fill-opacity:1;">
      <g transform="translate(223.432937, 282.250133)">
        <path style="stroke:none;" d="M 12.457031 0.53125 C 11.234375 -1.171875 9.953125 -5.269531 9.636719 -10.648438 L 19.164062 -10.648438 L 19.164062 0 L 24.488281 0 L 24.488281 -21.292969 L 30.34375 -21.292969 L 30.34375 -27.148438 L 1.597656 -27.148438 L 1.597656 -21.292969 L 5.960938 -21.292969 C 4.898438 -18.898438 4.257812 -16.34375 4.257812 -13.523438 C 4.257812 -8.039062 6.707031 -2.929688 10.433594 0.53125 Z M 11.5 -21.292969 L 19.164062 -21.292969 L 19.164062 -16.503906 L 9.796875 -16.503906 C 10.0625 -18.207031 10.59375 -19.695312 11.5 -21.292969 Z M 11.5 -21.292969 "/>
      </g>
    </g>
    <g style="fill:rgb(22.349548%,22.349548%,22.349548%);fill-opacity:1;">
      <g transform="translate(255.368921, 282.250133)">
        <path style="stroke:none;" d="M 7.453125 -21.292969 L 7.453125 0 L 12.777344 0 L 12.777344 -20.230469 L 19.164062 -13.839844 L 25.554688 -20.230469 L 25.554688 0 L 30.875 0 L 30.875 -21.292969 L 36.730469 -21.292969 L 36.730469 -27.148438 L 25.554688 -27.148438 L 19.164062 -20.761719 L 12.777344 -27.148438 L 1.597656 -27.148438 L 1.597656 -21.292969 Z M 7.453125 -21.292969 "/>
      </g>
    </g>
    <path style=" stroke:none;fill-rule:nonzero;fill:rgb(22.349548%,22.349548%,22.349548%);fill-opacity:1;" d="M 112.847656 103.125 L 136.097656 103.125 L 136.097656 117.375 L 112.847656 117.375 Z M 112.847656 103.125 "/>
  </g>
</svg>