<?xml version="1.0" encoding="utf-8"?>
<svg contentscripttype="text/ecmascript" width="375pt" zoomAndPan="magnify" contentstyletype="text/css" viewBox="0 0 375 374.999991" height="374.999991pt" preserveAspectRatio="xMidYMid meet" version="1.2" xmlns="http://www.w3.org/2000/svg">
  <defs>
    <clipPath id="clip1">
      <path d="M 131.9375 147.449219 L 242.9375 147.449219 L 242.9375 235.199219 L 131.9375 235.199219 Z M 131.9375 147.449219 "/>
    </clipPath>
    <clipPath id="clip2">
      <path d="M 165.570312 177.347656 L 204.570312 177.347656 L 204.570312 220 L 165.570312 220 Z M 165.570312 177.347656 "/>
    </clipPath>
  </defs>
  <g id="surface1">
    <g clip-rule="nonzero" clip-path="url(#clip1)">
      <path style=" stroke:none;fill-rule:nonzero;fill:rgb(22.349548%,22.349548%,22.349548%);fill-opacity:1;" d="M 237.378906 162.28125 L 214.117188 162.28125 L 213.328125 156.699219 L 212.726562 152.9375 C 212.484375 151.425781 211.683594 150.167969 210.429688 149.117188 C 209.144531 148.042969 207.769531 147.480469 206.261719 147.480469 L 168.433594 147.480469 C 166.925781 147.480469 165.535156 148.027344 164.265625 149.117188 C 162.996094 150.210938 162.324219 151.492188 162.089844 152.9375 L 161.484375 156.699219 L 160.640625 162.28125 L 137.496094 162.28125 C 134.414062 162.28125 131.9375 164.765625 131.9375 167.738281 L 131.9375 229.601562 C 131.9375 232.695312 134.414062 235.179688 137.496094 235.179688 L 237.378906 235.179688 C 240.460938 235.179688 242.9375 232.695312 242.9375 229.601562 L 242.9375 167.738281 C 242.9375 164.765625 240.460938 162.28125 237.378906 162.28125 Z M 236.230469 228.449219 L 138.585938 228.449219 L 138.585938 168.953125 L 160.640625 168.953125 C 163.964844 168.953125 166.832031 166.46875 167.289062 163.25 L 168.074219 157.671875 L 168.675781 154.214844 L 206.140625 154.214844 L 206.683594 157.671875 L 207.527344 163.25 C 208.015625 166.464844 210.914062 168.953125 214.117188 168.953125 L 236.230469 168.953125 Z M 236.230469 228.449219 "/>
    </g>
    <path style=" stroke:none;fill-rule:nonzero;fill:rgb(22.349548%,22.349548%,22.349548%);fill-opacity:1;" d="M 187.347656 170.710938 C 180.519531 170.710938 174.597656 173.195312 169.703125 178.109375 C 164.808594 183.023438 162.332031 188.964844 162.332031 195.820312 C 162.332031 202.671875 164.808594 208.617188 169.703125 213.527344 C 174.597656 218.441406 180.519531 220.765625 187.347656 220.867188 C 200.882812 221.070312 212.523438 209.285156 212.363281 195.820312 C 212.28125 188.90625 209.882812 183.023438 204.992188 178.109375 C 200.097656 173.195312 194.234375 170.710938 187.347656 170.710938 Z M 200.277344 208.859375 C 196.714844 212.4375 192.421875 214.195312 187.347656 214.195312 C 182.332031 214.195312 178.042969 212.4375 174.476562 208.859375 C 170.910156 205.28125 169.160156 200.914062 169.160156 195.820312 C 169.160156 190.785156 170.910156 186.417969 174.476562 182.839844 C 178.042969 179.261719 182.332031 177.441406 187.347656 177.441406 C 192.421875 177.441406 196.714844 179.261719 200.277344 182.839844 C 203.84375 186.417969 205.65625 190.785156 205.65625 195.820312 C 205.65625 200.914062 203.84375 205.28125 200.277344 208.859375 Z M 200.277344 208.859375 "/>
    <path style=" stroke:none;fill-rule:nonzero;fill:rgb(52.549744%,45.489502%,66.668701%);fill-opacity:1;" d="M 187.371094 169.90625 C 186.539062 169.90625 185.703125 169.949219 184.871094 170.03125 C 184.042969 170.113281 183.214844 170.234375 182.398438 170.398438 C 181.578125 170.5625 180.769531 170.761719 179.96875 171.003906 C 179.171875 171.25 178.386719 171.527344 177.613281 171.847656 C 176.84375 172.167969 176.089844 172.523438 175.351562 172.917969 C 174.613281 173.3125 173.898438 173.742188 173.207031 174.207031 C 172.511719 174.667969 171.839844 175.167969 171.195312 175.695312 C 170.550781 176.226562 169.929688 176.785156 169.339844 177.375 C 168.75 177.96875 168.191406 178.585938 167.660156 179.230469 C 167.128906 179.875 166.632812 180.546875 166.167969 181.242188 C 165.707031 181.933594 165.277344 182.652344 164.882812 183.386719 C 164.488281 184.125 164.132812 184.878906 163.8125 185.648438 C 163.492188 186.421875 163.210938 187.207031 162.96875 188.003906 C 162.726562 188.804688 162.523438 189.613281 162.363281 190.433594 C 162.199219 191.253906 162.078125 192.078125 161.996094 192.910156 C 161.914062 193.738281 161.871094 194.574219 161.871094 195.40625 C 161.871094 196.242188 161.914062 197.074219 161.996094 197.90625 C 162.078125 198.738281 162.199219 199.5625 162.363281 200.382812 C 162.523438 201.203125 162.726562 202.011719 162.96875 202.808594 C 163.210938 203.609375 163.492188 204.394531 163.8125 205.167969 C 164.132812 205.9375 164.488281 206.691406 164.882812 207.429688 C 165.277344 208.164062 165.707031 208.878906 166.167969 209.574219 C 166.632812 210.269531 167.128906 210.9375 167.660156 211.585938 C 168.191406 212.230469 168.75 212.847656 169.339844 213.4375 C 169.929688 214.03125 170.550781 214.589844 171.195312 215.121094 C 171.839844 215.648438 172.511719 216.144531 173.207031 216.609375 C 173.898438 217.074219 174.613281 217.503906 175.351562 217.898438 C 176.089844 218.289062 176.84375 218.648438 177.613281 218.964844 C 178.386719 219.285156 179.171875 219.566406 179.96875 219.808594 C 180.769531 220.050781 181.578125 220.253906 182.398438 220.417969 C 183.214844 220.582031 184.042969 220.703125 184.871094 220.785156 C 185.703125 220.867188 186.539062 220.90625 187.371094 220.90625 C 188.207031 220.90625 189.039062 220.867188 189.871094 220.785156 C 190.703125 220.703125 191.527344 220.582031 192.347656 220.417969 C 193.167969 220.253906 193.976562 220.050781 194.773438 219.808594 C 195.574219 219.566406 196.359375 219.285156 197.128906 218.964844 C 197.902344 218.648438 198.65625 218.289062 199.394531 217.898438 C 200.128906 217.503906 200.84375 217.074219 201.539062 216.609375 C 202.234375 216.144531 202.902344 215.648438 203.550781 215.121094 C 204.195312 214.589844 204.8125 214.03125 205.402344 213.4375 C 205.992188 212.847656 206.554688 212.230469 207.085938 211.585938 C 207.613281 210.9375 208.109375 210.269531 208.574219 209.574219 C 209.039062 208.878906 209.46875 208.164062 209.859375 207.429688 C 210.253906 206.691406 210.613281 205.9375 210.929688 205.167969 C 211.25 204.394531 211.53125 203.609375 211.773438 202.808594 C 212.015625 202.011719 212.21875 201.203125 212.382812 200.382812 C 212.546875 199.5625 212.667969 198.738281 212.75 197.90625 C 212.832031 197.074219 212.871094 196.242188 212.871094 195.40625 C 212.871094 194.574219 212.832031 193.738281 212.75 192.910156 C 212.667969 192.078125 212.546875 191.253906 212.382812 190.433594 C 212.21875 189.613281 212.015625 188.804688 211.773438 188.003906 C 211.53125 187.207031 211.25 186.421875 210.929688 185.648438 C 210.613281 184.878906 210.253906 184.125 209.859375 183.386719 C 209.46875 182.652344 209.039062 181.933594 208.574219 181.242188 C 208.109375 180.546875 207.613281 179.875 207.085938 179.230469 C 206.554688 178.585938 205.992188 177.96875 205.402344 177.375 C 204.8125 176.785156 204.195312 176.226562 203.550781 175.695312 C 202.902344 175.167969 202.234375 174.667969 201.539062 174.207031 C 200.84375 173.742188 200.128906 173.3125 199.394531 172.917969 C 198.65625 172.523438 197.902344 172.167969 197.128906 171.847656 C 196.359375 171.527344 195.574219 171.25 194.773438 171.003906 C 193.976562 170.761719 193.167969 170.5625 192.347656 170.398438 C 191.527344 170.234375 190.703125 170.113281 189.871094 170.03125 C 189.039062 169.949219 188.207031 169.90625 187.371094 169.90625 Z M 187.371094 169.90625 "/>
    <g clip-rule="nonzero" clip-path="url(#clip2)">
      <path style=" stroke:none;fill-rule:nonzero;fill:rgb(100%,100%,100%);fill-opacity:1;" d="M 204.320312 187.898438 C 204.257812 187.738281 204.160156 187.589844 204.109375 187.425781 C 204.074219 187.300781 204.027344 187.171875 203.933594 187.078125 C 203.773438 186.902344 203.640625 186.589844 203.179688 186.148438 C 203.105469 186.085938 203.09375 185.976562 203.023438 185.910156 C 202.980469 185.863281 202.910156 185.863281 202.863281 185.824219 C 202.839844 185.808594 202.847656 185.777344 202.847656 185.75 C 202.855469 185.660156 202.851562 185.5625 202.8125 185.480469 C 202.78125 185.410156 202.753906 185.339844 202.703125 185.28125 C 202.574219 185.136719 202.605469 185.03125 202.363281 184.753906 C 202.03125 184.347656 201.984375 184.515625 202.011719 184.292969 C 202.035156 184.203125 202.019531 183.917969 202.105469 183.863281 C 202.140625 183.832031 202.179688 183.871094 202.210938 183.882812 C 202.285156 183.929688 202.371094 183.910156 202.449219 183.914062 C 202.421875 183.960938 202.390625 184.019531 202.4375 184.066406 C 202.511719 184.054688 202.578125 184.019531 202.648438 183.992188 C 202.726562 183.957031 202.769531 183.878906 202.824219 183.820312 C 202.859375 183.78125 202.917969 183.769531 202.945312 183.726562 C 202.992188 183.65625 203.050781 183.59375 203.085938 183.515625 C 203.265625 183.03125 203.308594 183.226562 203.34375 182.851562 C 203.34375 182.828125 203.414062 182.386719 203.546875 182.140625 C 203.605469 182.039062 203.628906 181.800781 203.65625 181.746094 C 203.6875 181.65625 203.75 181.578125 203.773438 181.484375 C 203.796875 181.421875 203.820312 181.359375 203.851562 181.296875 C 203.90625 181.230469 203.875 181.136719 203.898438 181.058594 C 203.941406 180.90625 203.894531 180.335938 203.863281 180.21875 C 203.824219 180.109375 203.84375 179.992188 203.8125 179.882812 C 203.792969 179.796875 203.792969 179.707031 203.769531 179.621094 C 203.742188 179.550781 203.738281 179.472656 203.730469 179.398438 C 203.71875 179.277344 203.53125 178.851562 203.390625 178.671875 C 203.332031 178.589844 203.246094 178.523438 203.203125 178.429688 C 203.109375 178.3125 203.011719 178.195312 202.882812 178.113281 C 202.578125 177.882812 201.835938 177.648438 201.527344 177.570312 C 201.429688 177.558594 201.328125 177.570312 201.230469 177.539062 C 201.15625 177.519531 201.085938 177.480469 201.007812 177.476562 C 200.699219 177.445312 200.648438 177.351562 200.101562 177.460938 C 199.945312 177.460938 199.789062 177.496094 199.632812 177.503906 C 198.964844 177.515625 199.03125 177.585938 198.890625 177.644531 C 198.796875 177.660156 198.695312 177.652344 198.617188 177.707031 C 198.632812 177.710938 198.660156 177.714844 198.675781 177.71875 C 198.652344 177.738281 198.625 177.757812 198.597656 177.769531 C 198.535156 177.804688 198.484375 177.855469 198.421875 177.890625 C 198.351562 177.933594 198.164062 178.203125 198.246094 178.574219 C 198.257812 178.644531 198.339844 178.660156 198.398438 178.679688 C 198.402344 178.742188 198.386719 178.804688 198.378906 178.871094 C 198.328125 178.992188 198.128906 179.195312 198.113281 179.257812 C 198.101562 179.316406 198.035156 179.328125 198.019531 179.382812 C 198.003906 179.433594 197.960938 179.464844 197.933594 179.507812 C 197.886719 179.59375 197.835938 179.679688 197.820312 179.777344 C 197.808594 179.847656 197.75 179.902344 197.757812 179.976562 C 197.769531 180.269531 197.46875 180.265625 197.59375 180.617188 C 197.664062 180.914062 198.03125 180.976562 197.628906 181.082031 C 197.6875 181.121094 197.746094 181.15625 197.816406 181.164062 C 197.828125 181.261719 197.792969 181.359375 197.800781 181.453125 C 197.789062 181.507812 197.746094 181.546875 197.710938 181.589844 C 197.660156 181.648438 197.277344 182.433594 197.242188 182.511719 C 197.21875 182.582031 197.121094 182.5 197 182.496094 C 196.894531 182.492188 196.792969 182.527344 196.691406 182.542969 C 196.53125 182.570312 196.503906 182.097656 196.3125 182.136719 C 196.183594 182.160156 196.058594 182.125 195.867188 182.332031 C 195.847656 182.355469 195.828125 182.378906 195.800781 182.386719 C 195.320312 182.265625 195.621094 182.03125 193.566406 182.015625 C 193.296875 182.042969 193.023438 182.058594 192.753906 182.117188 C 192.667969 182.121094 192.582031 182.113281 192.496094 182.128906 C 192.375 182.136719 192.261719 182.175781 192.144531 182.1875 C 191.859375 182.210938 191.550781 182.160156 191.257812 182.179688 C 190.792969 182.207031 190.332031 182.367188 189.601562 182.21875 C 189.097656 182.148438 188.859375 181.992188 188.648438 181.921875 C 187.875 181.601562 187.039062 181.761719 186.886719 181.722656 C 186.660156 181.679688 185.863281 181.488281 184.363281 181.613281 C 184.351562 181.613281 183.101562 181.640625 182.9375 181.671875 C 182.488281 181.726562 182.003906 181.640625 181.820312 181.582031 C 181.480469 181.464844 181.628906 181.59375 181.054688 181.5625 C 180.910156 181.542969 179.773438 181.253906 179.761719 181.25 C 179.742188 181.246094 179.382812 181.09375 179.199219 181.210938 C 179.109375 181.265625 179.03125 181.210938 178.863281 181.332031 C 178.792969 181.394531 178.574219 181.296875 178.476562 181.496094 C 178.386719 181.632812 178.46875 181.832031 178.414062 181.890625 C 178.203125 182.136719 178.265625 182.238281 178.226562 182.375 C 178.105469 182.871094 177.988281 183.171875 178.519531 183.113281 C 178.546875 183.105469 178.570312 183.121094 178.59375 183.136719 C 178.546875 183.226562 178.46875 183.316406 178.492188 183.425781 C 178.535156 183.617188 178.546875 183.714844 178.835938 183.707031 C 178.875 183.703125 179.507812 183.691406 179.585938 183.675781 C 179.6875 183.65625 179.777344 183.609375 179.867188 183.570312 C 180.15625 183.441406 180.472656 183.398438 180.703125 183.15625 C 180.804688 183.054688 180.953125 183.027344 181.085938 183.011719 C 181.363281 183.003906 181.875 182.871094 182.6875 183.082031 C 182.757812 183.09375 183.707031 183.351562 183.796875 183.394531 C 184.917969 183.867188 184.371094 183.65625 185.09375 183.859375 C 185.269531 183.90625 185.449219 183.921875 185.621094 183.976562 C 186.042969 184.097656 186.308594 184.15625 186.585938 184.160156 C 186.851562 184.160156 187.179688 184.25 187.238281 184.273438 C 187.882812 184.53125 187.816406 184.421875 188.621094 184.425781 C 188.964844 184.441406 189.300781 184.511719 189.644531 184.53125 C 189.96875 184.566406 190.292969 184.550781 190.613281 184.585938 C 191.210938 184.632812 191.191406 184.550781 191.6875 184.785156 C 191.804688 184.84375 191.929688 184.890625 192.035156 184.96875 C 192.199219 185.359375 192.09375 185.289062 192.722656 185.21875 C 192.777344 185.285156 192.851562 185.335938 192.914062 185.394531 C 192.921875 185.410156 193.089844 185.804688 193.050781 185.875 C 192.933594 186.121094 192.800781 186.285156 192.738281 186.320312 C 192.703125 186.324219 192.667969 186.316406 192.632812 186.332031 C 192.523438 186.378906 192.433594 186.484375 192.425781 186.605469 C 192.425781 186.710938 192.460938 186.8125 192.449219 186.917969 C 192.371094 186.949219 192.296875 186.980469 192.230469 187.03125 C 192.1875 187.097656 192.167969 187.179688 192.136719 187.253906 C 192.109375 187.28125 192.074219 187.296875 192.046875 187.316406 C 191.988281 187.355469 191.953125 187.414062 191.894531 187.445312 C 191.847656 187.449219 191.800781 187.425781 191.75 187.433594 C 191.667969 187.445312 191.621094 187.535156 191.539062 187.550781 C 191.460938 187.566406 191.414062 187.636719 191.34375 187.667969 C 191.316406 187.664062 190.925781 187.578125 190.457031 187.582031 C 190.183594 187.582031 190.085938 187.882812 190.050781 187.957031 C 190.042969 187.980469 189.996094 187.996094 189.984375 187.964844 C 189.898438 187.796875 189.886719 187.535156 189.722656 187.519531 C 189.679688 187.515625 189.640625 187.488281 189.597656 187.476562 C 189.460938 187.476562 189.324219 187.519531 189.1875 187.519531 C 189.007812 187.535156 188.832031 187.539062 188.652344 187.546875 C 188.597656 187.546875 188.605469 187.628906 188.550781 187.632812 C 188.484375 187.648438 188.417969 187.636719 188.351562 187.632812 C 188.226562 187.605469 188.101562 187.65625 187.976562 187.671875 C 187.585938 187.726562 187.597656 187.792969 187.5625 187.855469 C 187.457031 187.859375 187.347656 187.851562 187.242188 187.847656 C 187.042969 187.832031 186.925781 187.980469 186.765625 187.8125 C 186.714844 187.761719 186.734375 187.671875 186.671875 187.632812 C 186.621094 187.621094 186.574219 187.65625 186.53125 187.683594 C 186.480469 187.707031 186.480469 187.773438 186.460938 187.820312 C 186.433594 187.8125 186.402344 187.816406 186.390625 187.789062 C 186.339844 187.726562 186.316406 187.652344 186.300781 187.578125 C 186.21875 187.511719 186.113281 187.546875 186.019531 187.535156 C 185.847656 187.519531 185.679688 187.523438 185.511719 187.554688 C 185.425781 187.539062 185.347656 187.5 185.269531 187.476562 C 185.210938 187.457031 185.191406 187.398438 185.152344 187.363281 C 185.105469 187.324219 184.90625 187.148438 184.84375 187.175781 C 184.757812 187.1875 184.722656 187.289062 184.640625 187.3125 C 184.511719 187.328125 184.417969 187.222656 184.300781 187.1875 C 184.160156 187.128906 184.011719 187.113281 183.867188 187.074219 C 183.777344 187.050781 183.667969 187.070312 183.597656 187.003906 C 183.390625 186.8125 183.164062 186.8125 183.054688 186.78125 C 183.019531 186.769531 182.980469 186.808594 182.949219 186.78125 C 182.769531 186.675781 182.71875 186.609375 182.652344 186.625 C 182.4375 186.664062 182.222656 186.605469 182.015625 186.546875 C 181.980469 186.535156 181.949219 186.554688 181.925781 186.574219 C 181.871094 186.558594 181.820312 186.546875 181.761719 186.542969 C 181.640625 186.527344 181.53125 186.457031 181.410156 186.457031 C 180.644531 186.457031 179.09375 185.792969 178.96875 185.765625 C 178.734375 185.714844 178.199219 185.492188 178.023438 185.382812 C 177.980469 185.351562 177.949219 185.304688 177.902344 185.28125 C 177.875 185.269531 177.84375 185.28125 177.820312 185.269531 C 177.375 185.035156 176.976562 184.527344 175.480469 184.285156 C 174.867188 184.183594 173.671875 184.203125 173.6875 184.183594 C 172.617188 184.144531 171.351562 184.179688 170.988281 184.03125 C 170.839844 183.980469 170.707031 183.898438 170.5625 183.847656 C 170.507812 183.824219 170.449219 183.8125 170.402344 183.777344 C 170.371094 183.71875 170.363281 183.648438 170.316406 183.601562 C 170.148438 183.441406 169.933594 183.480469 169.546875 183.316406 C 169.476562 183.289062 169.398438 183.277344 169.339844 183.234375 C 169.15625 183.027344 169.1875 182.980469 168.574219 182.992188 C 168.511719 182.992188 168.457031 183.039062 168.394531 183.039062 C 168.242188 183.035156 168.097656 183.082031 167.949219 183.097656 C 167.894531 183.101562 167.847656 183.136719 167.796875 183.144531 C 167.753906 183.148438 167.714844 183.128906 167.675781 183.121094 C 167.585938 183.097656 167.492188 183.121094 167.398438 183.109375 C 167.324219 183.097656 167.246094 183.085938 167.167969 183.082031 C 167.09375 183.078125 167.027344 183.046875 166.953125 183.054688 C 166.890625 183.0625 166.832031 183.097656 166.769531 183.101562 C 166.691406 183.105469 166.609375 183.089844 166.539062 183.121094 C 166.496094 183.136719 166.460938 183.171875 166.414062 183.175781 C 166.347656 183.167969 166.28125 183.132812 166.210938 183.144531 C 166.109375 183.160156 166.007812 183.09375 165.910156 183.140625 C 165.855469 183.164062 165.789062 183.167969 165.734375 183.207031 C 165.695312 183.234375 165.695312 183.285156 165.6875 183.328125 C 165.664062 183.335938 165.644531 183.347656 165.625 183.355469 C 165.570312 183.796875 165.6875 184.15625 165.828125 184.746094 C 165.867188 184.992188 165.914062 185.238281 165.988281 185.472656 C 166.183594 186.109375 166.207031 186.097656 166.433594 186.113281 C 166.519531 186.105469 166.621094 186.097656 166.679688 186.027344 C 166.738281 185.96875 166.824219 185.949219 166.882812 185.894531 C 166.921875 185.859375 166.949219 185.8125 166.996094 185.792969 C 167.066406 185.765625 167.140625 185.75 167.207031 185.714844 C 167.527344 185.550781 167.640625 185.613281 167.785156 185.539062 C 167.925781 185.476562 167.742188 185.539062 168.171875 185.523438 C 168.261719 185.492188 168.332031 185.394531 168.4375 185.40625 C 168.609375 185.417969 168.796875 185.375 168.957031 185.457031 C 169.023438 185.492188 169.253906 185.5 169.308594 185.503906 C 169.316406 185.59375 169.320312 185.6875 169.328125 185.78125 C 169.347656 185.78125 169.367188 185.78125 169.386719 185.78125 C 169.382812 185.6875 169.371094 185.59375 169.378906 185.5 C 169.476562 185.488281 169.582031 185.5 169.671875 185.453125 C 169.703125 185.441406 169.734375 185.417969 169.769531 185.421875 C 169.867188 185.441406 169.96875 185.449219 170.0625 185.46875 C 170.113281 185.480469 170.148438 185.421875 170.199219 185.429688 C 170.695312 185.425781 170.65625 185.375 170.925781 185.464844 C 171.585938 185.609375 170.898438 185.203125 173.449219 186.613281 C 175.410156 187.695312 175.726562 187.460938 175.941406 187.53125 C 175.867188 187.523438 175.796875 187.503906 175.722656 187.523438 C 175.917969 187.558594 176.113281 187.546875 176.308594 187.542969 C 176.503906 187.558594 176.820312 187.722656 176.863281 187.839844 C 176.886719 187.921875 176.992188 187.921875 177.046875 187.976562 C 178.21875 189.03125 179.230469 189.074219 179.566406 189.238281 C 179.570312 189.238281 180.109375 189.421875 180.136719 189.429688 C 180.199219 189.445312 180.25 189.480469 180.308594 189.5 C 180.546875 189.578125 180.761719 189.746094 180.972656 189.882812 C 181.941406 190.503906 181.609375 190.265625 181.910156 190.71875 C 181.933594 190.761719 181.992188 190.769531 182.03125 190.792969 C 182.019531 191.003906 182.003906 190.855469 183.015625 191.261719 C 183.535156 191.421875 183.761719 191.601562 183.835938 191.652344 C 184.011719 191.78125 184.21875 191.863281 184.507812 192.113281 C 184.984375 192.515625 185.546875 192.816406 186.082031 193.304688 C 186.144531 193.363281 186.210938 193.410156 186.28125 193.460938 C 186.386719 193.546875 186.476562 193.652344 186.578125 193.746094 C 187.035156 194.160156 187.121094 194.5 187.230469 195.050781 C 187.253906 195.148438 187.265625 195.25 187.269531 195.351562 C 187.253906 195.730469 187.285156 196.109375 187.25 196.484375 C 187.246094 196.714844 187.203125 196.945312 187.230469 197.175781 C 187.28125 197.617188 187.246094 198.0625 187.234375 198.507812 C 187.222656 198.894531 187.253906 199.332031 187.136719 199.707031 C 187.046875 199.996094 187.011719 199.976562 187.007812 200.335938 C 187.074219 200.375 187.140625 200.417969 187.199219 200.46875 C 187.332031 200.589844 187.910156 200.855469 188.035156 200.949219 C 188.058594 200.972656 188.066406 201.007812 188.070312 201.039062 C 188.039062 201.378906 188.136719 201.722656 188.1875 202.054688 C 188.246094 202.4375 188.359375 205.265625 188.355469 205.175781 C 188.359375 205.261719 188.347656 205.351562 188.347656 205.433594 C 188.351562 205.5 188.398438 205.582031 188.378906 205.644531 C 188.339844 205.78125 188.15625 205.933594 188.085938 206.074219 C 187.972656 206.3125 187.84375 206.914062 187.808594 207 C 187.433594 207.96875 187.28125 208.675781 187.164062 209.550781 C 187.058594 210.347656 187.046875 210.167969 187.117188 210.953125 C 187.15625 211.363281 187.273438 211.765625 187.285156 212.175781 C 187.296875 212.585938 187.261719 213.003906 187.25 213.414062 C 187.25 213.367188 187.25 213.324219 187.246094 213.28125 C 187.132812 214.308594 187.160156 214.34375 186.882812 215.746094 C 186.828125 215.769531 186.769531 215.785156 186.714844 215.808594 C 186.65625 215.835938 186.601562 215.871094 186.539062 215.878906 C 186.4375 215.902344 186.359375 215.882812 186.25 216.160156 C 186.226562 216.210938 186.269531 216.261719 186.25 216.3125 C 186.179688 216.503906 186.097656 216.6875 186.023438 216.875 C 186.003906 216.914062 185.964844 216.941406 185.953125 216.980469 C 185.925781 217.070312 185.894531 217.160156 185.890625 217.253906 C 185.890625 217.285156 185.855469 217.769531 185.855469 217.769531 C 185.851562 217.875 185.878906 218.003906 185.796875 218.089844 C 185.796875 218.1875 185.777344 218.289062 185.734375 218.378906 C 185.652344 218.589844 185.8125 219.007812 185.960938 219.113281 C 186.082031 219.199219 186.492188 219.304688 187.011719 219.339844 C 188.707031 219.453125 188.1875 219.390625 188.542969 219.382812 C 188.578125 219.378906 188.941406 219.371094 189.058594 219.402344 C 189.765625 219.609375 189.453125 219.539062 189.746094 219.648438 C 189.832031 219.6875 189.917969 219.738281 190.015625 219.75 C 190.511719 219.808594 190.394531 219.882812 191.019531 219.898438 C 191.28125 219.902344 192.28125 220.101562 192.660156 219.839844 C 192.78125 219.753906 192.929688 219.703125 193.039062 219.597656 C 193.078125 219.5625 193.121094 219.5625 193.164062 219.539062 C 193.339844 219.425781 193.480469 219.21875 193.507812 219.011719 C 193.542969 218.734375 193.40625 218.765625 193.300781 218.691406 C 193.214844 218.625 193.117188 218.570312 193.015625 218.523438 C 192.914062 218.476562 192.828125 218.40625 192.722656 218.371094 C 192.523438 218.300781 192.332031 218.207031 192.144531 218.109375 C 192.015625 218.042969 191.539062 217.851562 191.484375 217.816406 C 191.484375 217.785156 191.507812 217.761719 191.523438 217.738281 C 191.5 217.714844 191.472656 217.683594 191.4375 217.671875 C 191.402344 217.671875 191.367188 217.683594 191.332031 217.683594 C 191.175781 217.617188 191.199219 217.582031 191.175781 217.53125 C 191.164062 217.488281 191.132812 217.460938 191.109375 217.429688 C 191.097656 217.386719 191.09375 217.339844 191.058594 217.308594 C 190.898438 217.152344 190.609375 217.222656 190.578125 217.042969 C 190.566406 216.960938 190.480469 216.925781 190.425781 216.871094 C 190.371094 216.824219 190.300781 216.800781 190.230469 216.792969 C 190.179688 216.792969 190.164062 216.734375 190.132812 216.707031 C 190.0625 216.644531 190.007812 216.570312 189.945312 216.503906 C 190.050781 216.078125 190.140625 216.109375 190.078125 215.988281 C 190.027344 216.058594 189.988281 216.132812 189.953125 216.210938 C 189.9375 216.242188 189.953125 216.300781 189.90625 216.308594 C 189.871094 216.074219 190.484375 215.464844 190.132812 215.304688 C 190.015625 215.234375 189.699219 215.421875 189.601562 215.871094 C 189.582031 215.867188 189.5625 215.867188 189.542969 215.863281 C 189.511719 215.804688 189.503906 215.742188 189.472656 215.6875 C 189.332031 215.453125 189.296875 215.59375 189.214844 215.53125 C 189.207031 215.445312 189.171875 215.359375 189.175781 215.269531 C 189.414062 212.441406 190.125 212.042969 190.648438 209.230469 C 190.863281 208.074219 190.792969 207.808594 191.175781 206.453125 C 191.226562 206.28125 191.296875 206.078125 191.246094 205.894531 C 191.222656 205.828125 191.230469 205.753906 191.253906 205.6875 C 191.265625 205.648438 191.3125 205.632812 191.335938 205.601562 C 191.582031 205.273438 191.621094 204.03125 192.171875 202.542969 C 192.265625 202.292969 192.386719 202.058594 192.417969 201.792969 C 192.449219 201.707031 192.519531 201.636719 192.546875 201.550781 C 192.632812 201.347656 192.5625 201.121094 192.613281 200.914062 C 192.636719 200.828125 192.636719 200.742188 192.664062 200.660156 C 192.757812 200.320312 192.746094 200.175781 192.808594 199.828125 C 192.839844 199.746094 192.882812 199.410156 192.867188 199.34375 C 192.84375 199.269531 192.847656 199.058594 192.917969 198.886719 C 192.945312 198.804688 192.921875 198.714844 192.945312 198.628906 C 192.996094 198.421875 192.953125 198.34375 192.929688 198.113281 C 192.992188 198.082031 193.003906 198.007812 193.035156 197.953125 C 193.066406 197.875 193.097656 197.773438 193.039062 197.699219 C 192.988281 197.632812 192.972656 197.546875 192.917969 197.484375 C 192.859375 197.425781 192.960938 197.261719 193.046875 197.226562 C 193.113281 197.238281 193.21875 197.375 193.339844 197.445312 C 193.367188 197.464844 193.40625 197.457031 193.4375 197.453125 C 193.660156 197.320312 193.636719 197.070312 193.613281 197.019531 C 193.550781 196.804688 193.832031 196.820312 193.949219 196.699219 C 194.078125 196.582031 194.0625 196.476562 194.292969 196.453125 C 194.566406 196.429688 194.527344 196.199219 194.636719 196.085938 C 194.839844 195.859375 195.195312 195.777344 195.28125 195.773438 C 195.359375 195.765625 195.433594 195.742188 195.511719 195.742188 C 195.636719 195.742188 195.75 195.695312 195.859375 195.640625 C 195.910156 195.613281 195.945312 195.5625 195.988281 195.523438 C 196.125 195.40625 196.597656 195.136719 196.761719 195.101562 C 197.339844 194.875 197.117188 194.910156 197.347656 194.800781 C 197.472656 194.734375 197.566406 194.628906 197.691406 194.566406 C 197.761719 194.523438 197.816406 194.460938 197.882812 194.421875 C 198.152344 194.261719 198.257812 194.144531 198.332031 194.042969 C 198.386719 193.976562 198.429688 193.894531 198.515625 193.863281 C 198.570312 193.976562 198.578125 194.105469 198.625 194.222656 C 198.644531 194.265625 198.679688 194.300781 198.699219 194.347656 C 198.738281 194.453125 198.699219 194.570312 198.730469 194.675781 C 198.761719 194.773438 198.859375 194.863281 198.917969 194.945312 C 199.03125 195.113281 199.398438 195.632812 199.597656 195.992188 C 199.707031 196.191406 199.769531 196.515625 199.964844 196.644531 C 199.992188 196.664062 200.019531 196.695312 200.058594 196.695312 C 200.25 196.703125 200.386719 196.730469 200.574219 196.671875 C 200.855469 196.585938 201.125 196.453125 201.3125 196.222656 C 201.347656 196.179688 201.382812 196.128906 201.441406 196.121094 C 201.5 196.039062 201.59375 195.980469 201.632812 195.886719 C 201.648438 195.816406 201.664062 195.742188 201.703125 195.679688 C 202.117188 195.078125 203.019531 193.214844 202.996094 192.851562 C 202.988281 192.785156 203.03125 192.730469 203.042969 192.667969 C 203.125 192.253906 203.179688 192.585938 203.261719 192.023438 C 203.257812 192.042969 203.257812 192.0625 203.253906 192.082031 C 203.28125 191.988281 203.320312 191.898438 203.375 191.8125 C 203.378906 191.808594 203.515625 191.585938 203.492188 191.589844 C 203.496094 191.589844 203.507812 191.585938 203.511719 191.585938 C 203.519531 191.527344 203.570312 191.476562 203.5625 191.414062 C 203.59375 191.402344 203.601562 191.367188 203.613281 191.339844 C 203.796875 190.835938 204.105469 190.289062 204.210938 189.816406 C 204.347656 189.191406 204.570312 188.519531 204.320312 187.898438 Z M 189.96875 215.480469 C 190.023438 215.410156 190 215.398438 190.132812 215.390625 C 190.136719 215.480469 190.148438 215.578125 190.101562 215.664062 C 189.84375 216.195312 189.921875 215.960938 189.835938 216.191406 C 189.816406 216.195312 189.796875 216.203125 189.777344 216.210938 C 189.71875 216.046875 189.554688 215.667969 189.96875 215.480469 Z M 189.96875 215.480469 "/>
    </g>
    <path style=" stroke:none;fill-rule:nonzero;fill:rgb(52.549744%,45.489502%,66.668701%);fill-opacity:1;" d="M 224.378906 128.589844 C 223.640625 128.589844 222.90625 128.660156 222.183594 128.804688 C 221.457031 128.949219 220.753906 129.164062 220.074219 129.445312 C 219.390625 129.730469 218.742188 130.074219 218.128906 130.484375 C 217.511719 130.894531 216.945312 131.363281 216.421875 131.882812 C 215.902344 132.40625 215.433594 132.976562 215.023438 133.589844 C 214.613281 134.203125 214.265625 134.851562 213.984375 135.535156 C 213.703125 136.21875 213.488281 136.921875 213.34375 137.644531 C 213.199219 138.371094 213.128906 139.101562 213.128906 139.839844 C 213.128906 140.578125 213.199219 141.308594 213.34375 142.035156 C 213.488281 142.757812 213.703125 143.460938 213.984375 144.144531 C 214.265625 144.828125 214.613281 145.476562 215.023438 146.089844 C 215.433594 146.703125 215.902344 147.273438 216.421875 147.792969 C 216.945312 148.316406 217.511719 148.785156 218.128906 149.195312 C 218.742188 149.605469 219.390625 149.949219 220.074219 150.234375 C 220.753906 150.515625 221.457031 150.730469 222.183594 150.875 C 222.90625 151.015625 223.640625 151.089844 224.378906 151.089844 C 225.117188 151.089844 225.847656 151.015625 226.574219 150.875 C 227.296875 150.730469 228 150.515625 228.683594 150.234375 C 229.367188 149.949219 230.011719 149.605469 230.628906 149.195312 C 231.242188 148.785156 231.808594 148.316406 232.332031 147.792969 C 232.855469 147.273438 233.320312 146.703125 233.730469 146.089844 C 234.140625 145.476562 234.488281 144.828125 234.769531 144.144531 C 235.054688 143.460938 235.265625 142.757812 235.410156 142.035156 C 235.554688 141.308594 235.628906 140.578125 235.628906 139.839844 C 235.628906 139.101562 235.554688 138.371094 235.410156 137.644531 C 235.265625 136.921875 235.054688 136.21875 234.769531 135.535156 C 234.488281 134.851562 234.140625 134.203125 233.730469 133.589844 C 233.320312 132.976562 232.855469 132.40625 232.332031 131.882812 C 231.808594 131.363281 231.242188 130.894531 230.628906 130.484375 C 230.011719 130.074219 229.367188 129.730469 228.683594 129.445312 C 228 129.164062 227.296875 128.949219 226.574219 128.804688 C 225.847656 128.660156 225.117188 128.589844 224.378906 128.589844 Z M 224.378906 128.589844 "/>
    <path style=" stroke:none;fill-rule:nonzero;fill:rgb(80.389404%,64.709473%,95.289612%);fill-opacity:1;" d="M 200.605469 123.621094 C 200.0625 123.621094 199.527344 123.671875 198.996094 123.777344 C 198.464844 123.882812 197.949219 124.039062 197.449219 124.246094 C 196.949219 124.453125 196.472656 124.707031 196.023438 125.007812 C 195.570312 125.308594 195.15625 125.652344 194.773438 126.035156 C 194.390625 126.417969 194.046875 126.835938 193.746094 127.285156 C 193.445312 127.734375 193.191406 128.210938 192.984375 128.710938 C 192.777344 129.210938 192.621094 129.726562 192.515625 130.257812 C 192.410156 130.789062 192.355469 131.328125 192.355469 131.871094 C 192.355469 132.410156 192.410156 132.949219 192.515625 133.480469 C 192.621094 134.011719 192.777344 134.527344 192.984375 135.027344 C 193.191406 135.527344 193.445312 136.003906 193.746094 136.453125 C 194.046875 136.902344 194.390625 137.320312 194.773438 137.703125 C 195.15625 138.085938 195.570312 138.429688 196.023438 138.730469 C 196.472656 139.03125 196.949219 139.285156 197.449219 139.492188 C 197.949219 139.699219 198.464844 139.855469 198.996094 139.960938 C 199.527344 140.066406 200.0625 140.121094 200.605469 140.121094 C 201.148438 140.121094 201.683594 140.066406 202.214844 139.960938 C 202.746094 139.855469 203.261719 139.699219 203.761719 139.492188 C 204.261719 139.285156 204.738281 139.03125 205.1875 138.730469 C 205.640625 138.429688 206.054688 138.085938 206.441406 137.703125 C 206.824219 137.320312 207.164062 136.902344 207.464844 136.453125 C 207.765625 136.003906 208.019531 135.527344 208.226562 135.027344 C 208.433594 134.527344 208.589844 134.011719 208.699219 133.480469 C 208.804688 132.949219 208.855469 132.410156 208.855469 131.871094 C 208.855469 131.328125 208.804688 130.789062 208.699219 130.257812 C 208.589844 129.726562 208.433594 129.210938 208.226562 128.710938 C 208.019531 128.210938 207.765625 127.734375 207.464844 127.285156 C 207.164062 126.835938 206.824219 126.417969 206.441406 126.035156 C 206.054688 125.652344 205.640625 125.308594 205.1875 125.007812 C 204.738281 124.707031 204.261719 124.453125 203.761719 124.246094 C 203.261719 124.039062 202.746094 123.882812 202.214844 123.777344 C 201.683594 123.671875 201.148438 123.621094 200.605469 123.621094 Z M 200.605469 123.621094 "/>
    <path style=" stroke:none;fill-rule:nonzero;fill:rgb(22.349548%,22.349548%,22.349548%);fill-opacity:1;" d="M 144.402344 158.628906 L 157.148438 158.628906 L 157.148438 166.878906 L 144.402344 166.878906 Z M 144.402344 158.628906 "/>
  </g>
</svg>