<?xml version="1.0" encoding="utf-8"?>
<svg contentscripttype="text/ecmascript" width="375pt" zoomAndPan="magnify" contentstyletype="text/css" viewBox="0 0 375 374.999991" height="374.999991pt" preserveAspectRatio="xMidYMid meet" version="1.2" xmlns="http://www.w3.org/2000/svg">
  <defs>
    <g/>
    <clipPath id="clip1">
      <path d="M 90.542969 82.910156 L 286.292969 82.910156 L 286.292969 237.410156 L 90.542969 237.410156 Z M 90.542969 82.910156 "/>
    </clipPath>
    <clipPath id="clip2">
      <path d="M 149.878906 135.667969 L 218 135.667969 L 218 210.667969 L 149.878906 210.667969 Z M 149.878906 135.667969 "/>
    </clipPath>
  </defs>
  <g id="surface1">
    <g clip-rule="nonzero" clip-path="url(#clip1)">
      <path style=" stroke:none;fill-rule:nonzero;fill:rgb(22.349548%,22.349548%,22.349548%);fill-opacity:1;" d="M 276.488281 109.023438 L 235.464844 109.023438 L 234.078125 99.199219 L 233.011719 92.578125 C 232.582031 89.910156 231.171875 87.699219 228.960938 85.851562 C 226.699219 83.960938 224.273438 82.96875 221.609375 82.96875 L 154.90625 82.96875 C 152.242188 82.96875 149.789062 83.925781 147.550781 85.851562 C 145.3125 87.773438 144.125 90.027344 143.714844 92.578125 L 142.648438 99.199219 L 141.15625 109.023438 L 100.34375 109.023438 C 94.910156 109.023438 90.539062 113.402344 90.539062 118.636719 L 90.539062 227.5625 C 90.539062 233.003906 94.910156 237.382812 100.34375 237.382812 L 276.484375 237.382812 C 281.921875 237.382812 286.289062 233.003906 286.289062 227.5625 L 286.289062 118.636719 C 286.289062 113.402344 281.921875 109.023438 276.484375 109.023438 Z M 274.464844 225.53125 L 102.265625 225.53125 L 102.265625 120.773438 L 141.160156 120.773438 C 147.019531 120.773438 152.082031 116.402344 152.878906 110.734375 L 154.265625 100.910156 L 155.332031 94.824219 L 221.398438 94.824219 L 222.355469 100.910156 L 223.847656 110.734375 C 224.707031 116.394531 229.816406 120.773438 235.464844 120.773438 L 274.464844 120.773438 Z M 274.464844 225.53125 "/>
    </g>
    <path style=" stroke:none;fill-rule:nonzero;fill:rgb(22.349548%,22.349548%,22.349548%);fill-opacity:1;" d="M 188.257812 123.867188 C 176.21875 123.867188 165.773438 128.246094 157.140625 136.894531 C 148.511719 145.546875 144.140625 156.011719 144.140625 168.078125 C 144.140625 180.144531 148.511719 190.609375 157.140625 199.261719 C 165.773438 207.910156 176.21875 212.003906 188.257812 212.183594 C 212.128906 212.535156 232.652344 191.789062 232.371094 168.078125 C 232.226562 155.90625 228 145.546875 219.371094 136.894531 C 210.742188 128.246094 200.402344 123.867188 188.253906 123.867188 Z M 211.058594 191.039062 C 204.773438 197.339844 197.207031 200.433594 188.257812 200.433594 C 179.414062 200.433594 171.847656 197.339844 165.558594 191.039062 C 159.273438 184.738281 156.183594 177.046875 156.183594 168.078125 C 156.183594 159.214844 159.273438 151.527344 165.558594 145.222656 C 171.847656 138.925781 179.414062 135.722656 188.257812 135.722656 C 197.207031 135.722656 204.773438 138.925781 211.058594 145.222656 C 217.347656 151.527344 220.542969 159.214844 220.542969 168.078125 C 220.542969 177.050781 217.347656 184.738281 211.058594 191.039062 Z M 211.058594 191.039062 "/>
    <path style=" stroke:none;fill-rule:nonzero;fill:rgb(52.549744%,45.489502%,66.668701%);fill-opacity:1;" d="M 188.730469 122.539062 C 187.246094 122.539062 185.761719 122.613281 184.28125 122.757812 C 182.804688 122.902344 181.335938 123.121094 179.878906 123.410156 C 178.421875 123.699219 176.980469 124.0625 175.558594 124.492188 C 174.136719 124.925781 172.738281 125.425781 171.367188 125.992188 C 169.992188 126.5625 168.652344 127.195312 167.339844 127.898438 C 166.03125 128.597656 164.757812 129.359375 163.519531 130.1875 C 162.285156 131.011719 161.09375 131.894531 159.945312 132.839844 C 158.796875 133.78125 157.695312 134.777344 156.644531 135.828125 C 155.59375 136.878906 154.597656 137.980469 153.65625 139.128906 C 152.710938 140.277344 151.828125 141.46875 151.003906 142.703125 C 150.175781 143.941406 149.414062 145.214844 148.714844 146.523438 C 148.011719 147.835938 147.378906 149.175781 146.808594 150.550781 C 146.242188 151.921875 145.742188 153.320312 145.308594 154.742188 C 144.878906 156.164062 144.515625 157.605469 144.226562 159.0625 C 143.9375 160.519531 143.71875 161.988281 143.574219 163.464844 C 143.429688 164.945312 143.355469 166.425781 143.355469 167.914062 C 143.355469 169.398438 143.429688 170.882812 143.574219 172.359375 C 143.71875 173.839844 143.9375 175.308594 144.226562 176.765625 C 144.515625 178.222656 144.878906 179.664062 145.308594 181.085938 C 145.742188 182.507812 146.242188 183.90625 146.808594 185.277344 C 147.378906 186.652344 148.011719 187.992188 148.714844 189.304688 C 149.414062 190.613281 150.175781 191.886719 151.003906 193.121094 C 151.828125 194.359375 152.710938 195.550781 153.65625 196.699219 C 154.597656 197.847656 155.59375 198.949219 156.644531 200 C 157.695312 201.050781 158.796875 202.046875 159.945312 202.988281 C 161.09375 203.933594 162.285156 204.816406 163.519531 205.640625 C 164.757812 206.46875 166.03125 207.230469 167.339844 207.929688 C 168.652344 208.632812 169.992188 209.265625 171.367188 209.835938 C 172.738281 210.402344 174.136719 210.902344 175.558594 211.335938 C 176.980469 211.765625 178.421875 212.125 179.878906 212.417969 C 181.335938 212.707031 182.804688 212.925781 184.28125 213.070312 C 185.761719 213.214844 187.246094 213.289062 188.730469 213.289062 C 190.214844 213.289062 191.699219 213.214844 193.179688 213.070312 C 194.65625 212.925781 196.125 212.707031 197.582031 212.417969 C 199.039062 212.125 200.480469 211.765625 201.902344 211.335938 C 203.324219 210.902344 204.722656 210.402344 206.09375 209.835938 C 207.46875 209.265625 208.808594 208.632812 210.121094 207.929688 C 211.429688 207.230469 212.703125 206.46875 213.9375 205.640625 C 215.175781 204.816406 216.367188 203.933594 217.515625 202.988281 C 218.664062 202.046875 219.765625 201.050781 220.816406 200 C 221.867188 198.949219 222.863281 197.847656 223.804688 196.699219 C 224.75 195.550781 225.632812 194.359375 226.457031 193.121094 C 227.285156 191.886719 228.046875 190.613281 228.746094 189.304688 C 229.449219 187.992188 230.082031 186.652344 230.652344 185.277344 C 231.21875 183.90625 231.71875 182.507812 232.152344 181.085938 C 232.582031 179.664062 232.945312 178.222656 233.234375 176.765625 C 233.523438 175.308594 233.742188 173.839844 233.886719 172.359375 C 234.03125 170.882812 234.105469 169.398438 234.105469 167.914062 C 234.105469 166.425781 234.03125 164.945312 233.886719 163.464844 C 233.742188 161.988281 233.523438 160.519531 233.234375 159.0625 C 232.945312 157.605469 232.582031 156.164062 232.152344 154.742188 C 231.71875 153.320312 231.21875 151.921875 230.652344 150.550781 C 230.082031 149.175781 229.449219 147.835938 228.746094 146.523438 C 228.046875 145.214844 227.285156 143.941406 226.457031 142.703125 C 225.632812 141.46875 224.75 140.277344 223.804688 139.128906 C 222.863281 137.980469 221.867188 136.878906 220.816406 135.828125 C 219.765625 134.777344 218.664062 133.78125 217.515625 132.839844 C 216.367188 131.894531 215.175781 131.011719 213.9375 130.1875 C 212.703125 129.359375 211.429688 128.597656 210.121094 127.898438 C 208.808594 127.195312 207.46875 126.5625 206.09375 125.992188 C 204.722656 125.425781 203.324219 124.925781 201.902344 124.492188 C 200.480469 124.0625 199.039062 123.699219 197.582031 123.410156 C 196.125 123.121094 194.65625 122.902344 193.179688 122.757812 C 191.699219 122.613281 190.214844 122.539062 188.730469 122.539062 Z M 188.730469 122.539062 "/>
    <g clip-rule="nonzero" clip-path="url(#clip2)">
      <path style=" stroke:none;fill-rule:nonzero;fill:rgb(100%,100%,100%);fill-opacity:1;" d="M 217.683594 154.175781 C 217.578125 153.890625 217.402344 153.636719 217.3125 153.34375 C 217.25 153.125 217.167969 152.902344 217.011719 152.734375 C 216.726562 152.425781 216.496094 151.875 215.691406 151.105469 C 215.5625 150.992188 215.539062 150.804688 215.414062 150.6875 C 215.34375 150.601562 215.21875 150.609375 215.136719 150.539062 C 215.09375 150.507812 215.109375 150.449219 215.109375 150.40625 C 215.117188 150.246094 215.113281 150.082031 215.046875 149.933594 C 214.988281 149.8125 214.945312 149.683594 214.855469 149.585938 C 214.632812 149.328125 214.683594 149.144531 214.257812 148.65625 C 213.679688 147.949219 213.59375 148.242188 213.648438 147.851562 C 213.6875 147.691406 213.660156 147.191406 213.808594 147.09375 C 213.867188 147.039062 213.933594 147.109375 213.996094 147.128906 C 214.121094 147.210938 214.273438 147.175781 214.414062 147.183594 C 214.359375 147.265625 214.308594 147.367188 214.390625 147.453125 C 214.519531 147.433594 214.636719 147.371094 214.757812 147.324219 C 214.894531 147.257812 214.972656 147.125 215.070312 147.019531 C 215.128906 146.953125 215.230469 146.933594 215.277344 146.855469 C 215.359375 146.730469 215.460938 146.621094 215.523438 146.488281 C 215.835938 145.636719 215.910156 145.980469 215.976562 145.320312 C 215.976562 145.28125 216.097656 144.503906 216.332031 144.078125 C 216.4375 143.898438 216.472656 143.476562 216.523438 143.382812 C 216.578125 143.222656 216.683594 143.085938 216.730469 142.921875 C 216.769531 142.8125 216.808594 142.699219 216.863281 142.597656 C 216.960938 142.476562 216.90625 142.316406 216.949219 142.175781 C 217.019531 141.910156 216.941406 140.910156 216.882812 140.703125 C 216.820312 140.511719 216.851562 140.304688 216.796875 140.113281 C 216.757812 139.960938 216.761719 139.800781 216.722656 139.652344 C 216.675781 139.527344 216.664062 139.394531 216.652344 139.261719 C 216.632812 139.054688 216.304688 138.304688 216.058594 137.988281 C 215.953125 137.84375 215.808594 137.730469 215.730469 137.566406 C 215.5625 137.359375 215.390625 137.148438 215.167969 137.003906 C 214.636719 136.601562 213.339844 136.195312 212.796875 136.058594 C 212.625 136.039062 212.449219 136.054688 212.28125 136.003906 C 212.148438 135.96875 212.027344 135.898438 211.890625 135.886719 C 211.347656 135.835938 211.257812 135.667969 210.300781 135.867188 C 210.027344 135.867188 209.753906 135.929688 209.480469 135.9375 C 208.3125 135.957031 208.429688 136.085938 208.179688 136.1875 C 208.023438 136.210938 207.84375 136.199219 207.707031 136.296875 C 207.730469 136.300781 207.78125 136.308594 207.808594 136.3125 C 207.765625 136.351562 207.722656 136.382812 207.675781 136.40625 C 207.5625 136.464844 207.472656 136.554688 207.367188 136.617188 C 207.238281 136.691406 206.914062 137.164062 207.054688 137.8125 C 207.082031 137.9375 207.21875 137.964844 207.324219 138 C 207.328125 138.113281 207.304688 138.222656 207.289062 138.335938 C 207.199219 138.550781 206.851562 138.910156 206.824219 139.019531 C 206.808594 139.117188 206.6875 139.140625 206.664062 139.238281 C 206.632812 139.324219 206.554688 139.378906 206.507812 139.453125 C 206.429688 139.605469 206.339844 139.757812 206.308594 139.929688 C 206.292969 140.054688 206.1875 140.148438 206.199219 140.277344 C 206.222656 140.792969 205.699219 140.785156 205.917969 141.402344 C 206.042969 141.921875 206.683594 142.03125 205.976562 142.214844 C 206.078125 142.28125 206.183594 142.34375 206.304688 142.363281 C 206.328125 142.535156 206.265625 142.699219 206.277344 142.871094 C 206.257812 142.964844 206.179688 143.035156 206.125 143.109375 C 206.027344 143.210938 205.363281 144.589844 205.304688 144.726562 C 205.261719 144.851562 205.089844 144.703125 204.875 144.699219 C 204.6875 144.6875 204.511719 144.753906 204.332031 144.777344 C 204.058594 144.828125 204.011719 144 203.675781 144.066406 C 203.449219 144.105469 203.234375 144.046875 202.898438 144.414062 C 202.859375 144.449219 202.828125 144.488281 202.777344 144.507812 C 201.9375 144.292969 202.464844 143.882812 198.871094 143.851562 C 198.394531 143.898438 197.917969 143.929688 197.449219 144.03125 C 197.296875 144.039062 197.144531 144.027344 196.996094 144.054688 C 196.785156 144.066406 196.585938 144.136719 196.378906 144.15625 C 195.882812 144.195312 195.339844 144.109375 194.828125 144.140625 C 194.015625 144.1875 193.210938 144.472656 191.933594 144.214844 C 191.054688 144.085938 190.632812 143.808594 190.261719 143.6875 C 188.910156 143.128906 187.449219 143.40625 187.183594 143.34375 C 186.789062 143.265625 185.394531 142.925781 182.769531 143.144531 C 182.75 143.148438 180.558594 143.195312 180.273438 143.25 C 179.488281 143.351562 178.636719 143.199219 178.320312 143.09375 C 177.722656 142.886719 177.984375 143.113281 176.980469 143.0625 C 176.726562 143.027344 174.738281 142.519531 174.71875 142.515625 C 174.683594 142.503906 174.050781 142.238281 173.734375 142.441406 C 173.578125 142.542969 173.4375 142.445312 173.144531 142.65625 C 173.023438 142.761719 172.640625 142.59375 172.46875 142.945312 C 172.3125 143.183594 172.453125 143.535156 172.355469 143.636719 C 171.988281 144.066406 172.097656 144.246094 172.03125 144.488281 C 171.820312 145.359375 171.617188 145.878906 172.546875 145.777344 C 172.59375 145.765625 172.632812 145.796875 172.671875 145.824219 C 172.589844 145.980469 172.453125 146.136719 172.492188 146.328125 C 172.570312 146.667969 172.589844 146.835938 173.097656 146.820312 C 173.164062 146.816406 174.269531 146.796875 174.414062 146.765625 C 174.585938 146.734375 174.742188 146.648438 174.902344 146.585938 C 175.410156 146.351562 175.957031 146.277344 176.367188 145.851562 C 176.542969 145.675781 176.800781 145.632812 177.035156 145.601562 C 177.519531 145.589844 178.414062 145.359375 179.835938 145.726562 C 179.960938 145.746094 181.617188 146.195312 181.78125 146.277344 C 183.738281 147.101562 182.785156 146.734375 184.046875 147.09375 C 184.351562 147.171875 184.667969 147.199219 184.96875 147.292969 C 185.703125 147.503906 186.171875 147.613281 186.652344 147.617188 C 187.117188 147.617188 187.695312 147.773438 187.796875 147.816406 C 188.921875 148.269531 188.808594 148.078125 190.21875 148.082031 C 190.816406 148.113281 191.410156 148.230469 192.007812 148.269531 C 192.570312 148.328125 193.140625 148.300781 193.707031 148.359375 C 194.75 148.445312 194.710938 148.300781 195.582031 148.714844 C 195.789062 148.816406 196.007812 148.902344 196.195312 149.039062 C 196.480469 149.722656 196.292969 149.601562 197.390625 149.472656 C 197.488281 149.589844 197.617188 149.675781 197.726562 149.78125 C 197.738281 149.8125 198.03125 150.503906 197.964844 150.625 C 197.757812 151.058594 197.53125 151.347656 197.421875 151.40625 C 197.359375 151.414062 197.292969 151.398438 197.238281 151.429688 C 197.046875 151.507812 196.886719 151.691406 196.875 151.90625 C 196.875 152.089844 196.9375 152.269531 196.910156 152.457031 C 196.78125 152.511719 196.644531 152.566406 196.53125 152.652344 C 196.457031 152.773438 196.421875 152.914062 196.367188 153.042969 C 196.324219 153.09375 196.257812 153.117188 196.207031 153.15625 C 196.109375 153.21875 196.046875 153.328125 195.945312 153.378906 C 195.859375 153.386719 195.777344 153.347656 195.691406 153.359375 C 195.542969 153.378906 195.46875 153.535156 195.324219 153.5625 C 195.1875 153.59375 195.105469 153.71875 194.980469 153.769531 C 194.933594 153.765625 194.25 153.609375 193.429688 153.621094 C 192.953125 153.617188 192.78125 154.148438 192.722656 154.277344 C 192.703125 154.320312 192.621094 154.347656 192.605469 154.289062 C 192.453125 153.996094 192.429688 153.535156 192.144531 153.511719 C 192.066406 153.503906 192.003906 153.457031 191.929688 153.4375 C 191.683594 153.433594 191.449219 153.507812 191.207031 153.515625 C 190.894531 153.539062 190.582031 153.546875 190.273438 153.5625 C 190.175781 153.558594 190.1875 153.703125 190.09375 153.710938 C 189.980469 153.734375 189.863281 153.71875 189.746094 153.710938 C 189.527344 153.660156 189.308594 153.75 189.09375 153.777344 C 188.40625 153.871094 188.429688 153.992188 188.363281 154.101562 C 188.179688 154.105469 187.992188 154.09375 187.804688 154.082031 C 187.453125 154.0625 187.25 154.320312 186.972656 154.027344 C 186.886719 153.9375 186.914062 153.78125 186.804688 153.707031 C 186.714844 153.691406 186.636719 153.753906 186.5625 153.796875 C 186.472656 153.84375 186.46875 153.953125 186.4375 154.035156 C 186.394531 154.027344 186.335938 154.03125 186.3125 153.984375 C 186.226562 153.878906 186.183594 153.742188 186.15625 153.609375 C 186.015625 153.496094 185.828125 153.558594 185.664062 153.539062 C 185.367188 153.511719 185.066406 153.515625 184.777344 153.570312 C 184.628906 153.546875 184.492188 153.476562 184.351562 153.433594 C 184.253906 153.402344 184.21875 153.296875 184.144531 153.234375 C 184.066406 153.167969 183.71875 152.859375 183.609375 152.90625 C 183.457031 152.929688 183.394531 153.105469 183.25 153.144531 C 183.027344 153.175781 182.859375 152.988281 182.660156 152.929688 C 182.414062 152.824219 182.152344 152.796875 181.898438 152.726562 C 181.742188 152.6875 181.550781 152.726562 181.425781 152.605469 C 181.0625 152.273438 180.671875 152.269531 180.480469 152.214844 C 180.417969 152.199219 180.351562 152.261719 180.292969 152.214844 C 179.976562 152.027344 179.886719 151.917969 179.773438 151.941406 C 179.398438 152.007812 179.023438 151.902344 178.664062 151.804688 C 178.601562 151.78125 178.546875 151.820312 178.503906 151.855469 C 178.410156 151.824219 178.316406 151.804688 178.21875 151.796875 C 178.007812 151.769531 177.816406 151.648438 177.597656 151.648438 C 176.261719 151.644531 173.546875 150.484375 173.332031 150.433594 C 172.921875 150.347656 171.980469 149.953125 171.679688 149.761719 C 171.601562 149.707031 171.546875 149.625 171.464844 149.582031 C 171.417969 149.5625 171.363281 149.582031 171.316406 149.5625 C 170.542969 149.15625 169.84375 148.261719 167.226562 147.835938 C 166.152344 147.660156 164.0625 147.6875 164.09375 147.660156 C 162.21875 147.585938 160 147.648438 159.367188 147.394531 C 159.109375 147.300781 158.878906 147.15625 158.621094 147.066406 C 158.527344 147.027344 158.421875 147.007812 158.339844 146.945312 C 158.289062 146.84375 158.277344 146.722656 158.191406 146.640625 C 157.898438 146.355469 157.523438 146.421875 156.84375 146.136719 C 156.722656 146.089844 156.589844 146.066406 156.480469 145.992188 C 156.164062 145.632812 156.21875 145.550781 155.144531 145.566406 C 155.03125 145.566406 154.941406 145.652344 154.828125 145.652344 C 154.5625 145.644531 154.3125 145.726562 154.050781 145.753906 C 153.957031 145.761719 153.875 145.816406 153.78125 145.835938 C 153.707031 145.84375 153.640625 145.808594 153.570312 145.792969 C 153.410156 145.753906 153.25 145.796875 153.089844 145.769531 C 152.953125 145.75 152.820312 145.730469 152.683594 145.722656 C 152.554688 145.71875 152.433594 145.664062 152.308594 145.675781 C 152.199219 145.695312 152.097656 145.753906 151.984375 145.757812 C 151.851562 145.769531 151.710938 145.738281 151.582031 145.796875 C 151.507812 145.824219 151.445312 145.882812 151.367188 145.894531 C 151.246094 145.875 151.128906 145.816406 151.007812 145.835938 C 150.832031 145.863281 150.652344 145.746094 150.484375 145.828125 C 150.382812 145.871094 150.269531 145.878906 150.175781 145.945312 C 150.109375 145.992188 150.109375 146.082031 150.089844 146.15625 C 150.054688 146.171875 150.019531 146.191406 149.980469 146.207031 C 149.890625 146.976562 150.089844 147.609375 150.339844 148.648438 C 150.40625 149.078125 150.492188 149.503906 150.621094 149.921875 C 150.964844 151.039062 151 151.015625 151.394531 151.046875 C 151.546875 151.027344 151.722656 151.015625 151.832031 150.894531 C 151.929688 150.789062 152.082031 150.757812 152.183594 150.65625 C 152.25 150.597656 152.300781 150.515625 152.386719 150.484375 C 152.507812 150.433594 152.636719 150.40625 152.753906 150.34375 C 153.308594 150.058594 153.511719 150.164062 153.761719 150.035156 C 154.007812 149.929688 153.6875 150.035156 154.4375 150.007812 C 154.597656 149.953125 154.71875 149.78125 154.90625 149.800781 C 155.207031 149.824219 155.535156 149.75 155.816406 149.894531 C 155.929688 149.957031 156.332031 149.96875 156.433594 149.972656 C 156.445312 150.132812 156.449219 150.296875 156.460938 150.460938 C 156.496094 150.457031 156.53125 150.457031 156.566406 150.457031 C 156.5625 150.296875 156.539062 150.132812 156.554688 149.96875 C 156.726562 149.945312 156.910156 149.96875 157.066406 149.886719 C 157.121094 149.867188 157.175781 149.824219 157.238281 149.832031 C 157.40625 149.863281 157.582031 149.875 157.75 149.914062 C 157.839844 149.9375 157.898438 149.832031 157.984375 149.84375 C 158.851562 149.835938 158.789062 149.746094 159.257812 149.90625 C 160.414062 150.160156 159.210938 149.445312 163.675781 151.917969 C 167.101562 153.816406 167.65625 153.410156 168.03125 153.53125 C 167.90625 153.515625 167.777344 153.484375 167.652344 153.515625 C 167.992188 153.574219 168.335938 153.558594 168.675781 153.550781 C 169.015625 153.582031 169.574219 153.867188 169.644531 154.074219 C 169.6875 154.21875 169.871094 154.21875 169.96875 154.3125 C 172.019531 156.160156 173.789062 156.238281 174.375 156.523438 C 174.382812 156.527344 175.324219 156.847656 175.375 156.863281 C 175.480469 156.886719 175.570312 156.953125 175.671875 156.984375 C 176.09375 157.121094 176.46875 157.417969 176.835938 157.65625 C 178.527344 158.746094 177.945312 158.328125 178.476562 159.121094 C 178.515625 159.203125 178.617188 159.210938 178.691406 159.25 C 178.667969 159.625 178.640625 159.367188 180.410156 160.078125 C 181.324219 160.355469 181.714844 160.667969 181.847656 160.757812 C 182.152344 160.988281 182.511719 161.132812 183.019531 161.570312 C 183.851562 162.277344 184.839844 162.800781 185.777344 163.660156 C 185.882812 163.757812 186.003906 163.847656 186.121094 163.933594 C 186.304688 164.085938 186.464844 164.269531 186.640625 164.433594 C 187.445312 165.160156 187.589844 165.753906 187.78125 166.722656 C 187.824219 166.894531 187.84375 167.074219 187.855469 167.253906 C 187.824219 167.914062 187.878906 168.578125 187.820312 169.238281 C 187.808594 169.644531 187.734375 170.046875 187.785156 170.453125 C 187.875 171.226562 187.808594 172.007812 187.789062 172.785156 C 187.773438 173.46875 187.824219 174.234375 187.621094 174.894531 C 187.464844 175.398438 187.398438 175.363281 187.398438 176 C 187.515625 176.066406 187.628906 176.140625 187.730469 176.230469 C 187.960938 176.4375 188.976562 176.90625 189.195312 177.070312 C 189.234375 177.109375 189.246094 177.171875 189.253906 177.230469 C 189.199219 177.824219 189.367188 178.429688 189.457031 179.011719 C 189.558594 179.679688 189.757812 184.640625 189.753906 184.484375 C 189.757812 184.632812 189.738281 184.796875 189.742188 184.9375 C 189.746094 185.050781 189.828125 185.199219 189.792969 185.308594 C 189.722656 185.550781 189.402344 185.8125 189.285156 186.0625 C 189.082031 186.484375 188.855469 187.535156 188.792969 187.6875 C 188.136719 189.382812 187.875 190.628906 187.667969 192.160156 C 187.480469 193.558594 187.464844 193.242188 187.589844 194.625 C 187.652344 195.339844 187.859375 196.046875 187.878906 196.769531 C 187.898438 197.488281 187.839844 198.21875 187.816406 198.9375 C 187.816406 198.859375 187.816406 198.78125 187.816406 198.703125 C 187.613281 200.511719 187.660156 200.570312 187.171875 203.03125 C 187.078125 203.074219 186.976562 203.097656 186.878906 203.140625 C 186.78125 203.1875 186.6875 203.25 186.578125 203.265625 C 186.398438 203.304688 186.261719 203.269531 186.070312 203.753906 C 186.03125 203.84375 186.105469 203.9375 186.070312 204.027344 C 185.945312 204.355469 185.800781 204.683594 185.671875 205.011719 C 185.636719 205.078125 185.570312 205.125 185.546875 205.199219 C 185.503906 205.355469 185.449219 205.511719 185.441406 205.675781 C 185.441406 205.734375 185.378906 206.582031 185.378906 206.582031 C 185.375 206.769531 185.421875 206.996094 185.277344 207.140625 C 185.277344 207.3125 185.238281 207.492188 185.167969 207.644531 C 185.023438 208.019531 185.304688 208.75 185.5625 208.933594 C 185.777344 209.089844 186.492188 209.273438 187.40625 209.335938 C 190.371094 209.535156 189.457031 209.421875 190.082031 209.410156 C 190.144531 209.40625 190.78125 209.386719 190.980469 209.445312 C 192.214844 209.8125 191.675781 209.6875 192.183594 209.875 C 192.335938 209.941406 192.484375 210.035156 192.65625 210.054688 C 193.523438 210.15625 193.320312 210.289062 194.414062 210.316406 C 194.867188 210.320312 196.625 210.667969 197.28125 210.214844 C 197.5 210.0625 197.753906 209.972656 197.945312 209.789062 C 198.011719 209.722656 198.09375 209.730469 198.164062 209.683594 C 198.472656 209.484375 198.714844 209.121094 198.765625 208.757812 C 198.828125 208.273438 198.585938 208.328125 198.40625 208.199219 C 198.253906 208.078125 198.082031 207.984375 197.90625 207.902344 C 197.730469 207.824219 197.578125 207.699219 197.394531 207.632812 C 197.042969 207.511719 196.710938 207.347656 196.382812 207.175781 C 196.152344 207.058594 195.324219 206.722656 195.226562 206.660156 C 195.230469 206.605469 195.269531 206.570312 195.296875 206.527344 C 195.25 206.480469 195.210938 206.429688 195.148438 206.410156 C 195.082031 206.410156 195.023438 206.433594 194.960938 206.433594 C 194.683594 206.316406 194.730469 206.25 194.6875 206.160156 C 194.667969 206.089844 194.613281 206.039062 194.570312 205.984375 C 194.546875 205.910156 194.542969 205.828125 194.484375 205.773438 C 194.199219 205.5 193.695312 205.617188 193.640625 205.304688 C 193.621094 205.160156 193.472656 205.097656 193.375 205.007812 C 193.28125 204.921875 193.160156 204.882812 193.03125 204.871094 C 192.945312 204.863281 192.917969 204.765625 192.859375 204.71875 C 192.738281 204.609375 192.644531 204.476562 192.53125 204.363281 C 192.714844 203.617188 192.878906 203.667969 192.765625 203.457031 C 192.679688 203.578125 192.609375 203.710938 192.546875 203.847656 C 192.519531 203.902344 192.546875 204.003906 192.464844 204.015625 C 192.40625 203.601562 193.476562 202.539062 192.859375 202.253906 C 192.65625 202.128906 192.101562 202.460938 191.933594 203.25 C 191.898438 203.246094 191.867188 203.242188 191.832031 203.234375 C 191.777344 203.136719 191.761719 203.023438 191.707031 202.925781 C 191.457031 202.519531 191.398438 202.761719 191.257812 202.65625 C 191.242188 202.5 191.175781 202.351562 191.191406 202.191406 C 191.601562 197.230469 192.847656 196.535156 193.765625 191.597656 C 194.140625 189.570312 194.015625 189.105469 194.6875 186.730469 C 194.773438 186.425781 194.902344 186.066406 194.804688 185.746094 C 194.769531 185.628906 194.78125 185.5 194.820312 185.382812 C 194.84375 185.3125 194.929688 185.289062 194.96875 185.234375 C 195.394531 184.65625 195.460938 182.476562 196.429688 179.867188 C 196.589844 179.429688 196.800781 179.015625 196.859375 178.550781 C 196.917969 178.402344 197.035156 178.28125 197.085938 178.125 C 197.238281 177.769531 197.109375 177.375 197.199219 177.007812 C 197.242188 176.863281 197.246094 176.707031 197.289062 176.5625 C 197.453125 175.96875 197.429688 175.710938 197.542969 175.105469 C 197.597656 174.960938 197.675781 174.371094 197.644531 174.25 C 197.605469 174.128906 197.613281 173.757812 197.734375 173.453125 C 197.785156 173.308594 197.746094 173.148438 197.78125 173 C 197.871094 172.636719 197.796875 172.5 197.757812 172.097656 C 197.867188 172.042969 197.882812 171.910156 197.9375 171.8125 C 197.996094 171.675781 198.046875 171.5 197.945312 171.371094 C 197.855469 171.253906 197.832031 171.101562 197.734375 170.992188 C 197.636719 170.890625 197.8125 170.601562 197.960938 170.539062 C 198.078125 170.558594 198.261719 170.800781 198.46875 170.925781 C 198.519531 170.960938 198.585938 170.945312 198.644531 170.9375 C 199.035156 170.707031 198.988281 170.265625 198.953125 170.179688 C 198.84375 169.800781 199.332031 169.828125 199.542969 169.617188 C 199.761719 169.414062 199.738281 169.226562 200.144531 169.179688 C 200.621094 169.144531 200.550781 168.734375 200.742188 168.539062 C 201.097656 168.140625 201.71875 168 201.871094 167.988281 C 202.007812 167.976562 202.136719 167.933594 202.273438 167.9375 C 202.488281 167.9375 202.691406 167.855469 202.882812 167.757812 C 202.972656 167.710938 203.027344 167.617188 203.105469 167.554688 C 203.347656 167.347656 204.175781 166.875 204.460938 166.808594 C 205.46875 166.417969 205.085938 166.476562 205.484375 166.28125 C 205.699219 166.171875 205.867188 165.980469 206.082031 165.871094 C 206.207031 165.800781 206.300781 165.691406 206.421875 165.621094 C 206.894531 165.335938 207.074219 165.136719 207.207031 164.953125 C 207.300781 164.839844 207.378906 164.695312 207.527344 164.636719 C 207.625 164.839844 207.636719 165.066406 207.71875 165.269531 C 207.757812 165.347656 207.816406 165.410156 207.847656 165.488281 C 207.921875 165.675781 207.847656 165.878906 207.902344 166.066406 C 207.957031 166.238281 208.128906 166.390625 208.230469 166.539062 C 208.429688 166.832031 209.070312 167.746094 209.417969 168.375 C 209.609375 168.722656 209.71875 169.296875 210.0625 169.519531 C 210.113281 169.554688 210.164062 169.609375 210.230469 169.609375 C 210.5625 169.625 210.804688 169.667969 211.128906 169.570312 C 211.625 169.417969 212.089844 169.183594 212.421875 168.777344 C 212.480469 168.703125 212.546875 168.613281 212.648438 168.601562 C 212.75 168.457031 212.914062 168.355469 212.984375 168.191406 C 213.011719 168.0625 213.035156 167.933594 213.109375 167.824219 C 213.832031 166.769531 215.410156 163.5 215.367188 162.863281 C 215.355469 162.746094 215.429688 162.648438 215.449219 162.539062 C 215.59375 161.816406 215.691406 162.402344 215.828125 161.414062 C 215.824219 161.449219 215.824219 161.480469 215.820312 161.515625 C 215.867188 161.351562 215.9375 161.191406 216.027344 161.046875 C 216.035156 161.035156 216.277344 160.648438 216.238281 160.648438 C 216.246094 160.648438 216.261719 160.648438 216.269531 160.648438 C 216.28125 160.539062 216.371094 160.453125 216.355469 160.34375 C 216.410156 160.324219 216.421875 160.257812 216.449219 160.210938 C 216.765625 159.328125 217.308594 158.367188 217.492188 157.539062 C 217.734375 156.441406 218.117188 155.261719 217.683594 154.175781 Z M 192.574219 202.566406 C 192.671875 202.4375 192.628906 202.421875 192.863281 202.40625 C 192.867188 202.566406 192.890625 202.738281 192.808594 202.882812 C 192.355469 203.820312 192.492188 203.40625 192.34375 203.808594 C 192.308594 203.820312 192.273438 203.835938 192.238281 203.847656 C 192.140625 203.558594 191.847656 202.894531 192.574219 202.566406 Z M 192.574219 202.566406 "/>
    </g>
    <path style=" stroke:none;fill-rule:nonzero;fill:rgb(52.549744%,45.489502%,66.668701%);fill-opacity:1;" d="M 253.660156 49.640625 C 253.011719 49.640625 252.363281 49.671875 251.714844 49.734375 C 251.066406 49.800781 250.421875 49.894531 249.785156 50.023438 C 249.144531 50.148438 248.515625 50.308594 247.890625 50.496094 C 247.269531 50.683594 246.65625 50.902344 246.054688 51.152344 C 245.453125 51.402344 244.867188 51.679688 244.292969 51.988281 C 243.71875 52.292969 243.160156 52.628906 242.621094 52.988281 C 242.078125 53.351562 241.554688 53.738281 241.054688 54.152344 C 240.550781 54.5625 240.066406 55 239.609375 55.460938 C 239.148438 55.921875 238.710938 56.402344 238.296875 56.90625 C 237.886719 57.410156 237.496094 57.929688 237.136719 58.472656 C 236.773438 59.015625 236.441406 59.570312 236.132812 60.144531 C 235.828125 60.71875 235.546875 61.308594 235.300781 61.910156 C 235.050781 62.511719 234.832031 63.121094 234.644531 63.746094 C 234.453125 64.367188 234.296875 65 234.167969 65.636719 C 234.042969 66.277344 233.945312 66.917969 233.882812 67.566406 C 233.820312 68.214844 233.785156 68.863281 233.785156 69.515625 C 233.785156 70.164062 233.820312 70.816406 233.882812 71.464844 C 233.945312 72.109375 234.042969 72.753906 234.167969 73.390625 C 234.296875 74.03125 234.453125 74.660156 234.644531 75.285156 C 234.832031 75.90625 235.050781 76.519531 235.300781 77.121094 C 235.546875 77.722656 235.828125 78.308594 236.132812 78.882812 C 236.441406 79.457031 236.773438 80.015625 237.136719 80.558594 C 237.496094 81.097656 237.886719 81.621094 238.296875 82.125 C 238.710938 82.625 239.148438 83.109375 239.609375 83.570312 C 240.066406 84.027344 240.550781 84.464844 241.054688 84.878906 C 241.554688 85.292969 242.078125 85.679688 242.621094 86.039062 C 243.160156 86.402344 243.71875 86.734375 244.292969 87.042969 C 244.867188 87.351562 245.453125 87.628906 246.054688 87.875 C 246.65625 88.125 247.269531 88.34375 247.890625 88.535156 C 248.515625 88.722656 249.144531 88.882812 249.785156 89.007812 C 250.421875 89.136719 251.066406 89.230469 251.714844 89.292969 C 252.363281 89.359375 253.011719 89.390625 253.660156 89.390625 C 254.3125 89.390625 254.960938 89.359375 255.609375 89.292969 C 256.257812 89.230469 256.902344 89.136719 257.539062 89.007812 C 258.175781 88.882812 258.808594 88.722656 259.429688 88.535156 C 260.054688 88.34375 260.667969 88.125 261.269531 87.875 C 261.867188 87.628906 262.457031 87.351562 263.03125 87.042969 C 263.605469 86.734375 264.164062 86.402344 264.703125 86.039062 C 265.246094 85.679688 265.765625 85.292969 266.269531 84.878906 C 266.773438 84.464844 267.253906 84.027344 267.714844 83.570312 C 268.175781 83.109375 268.613281 82.625 269.023438 82.125 C 269.4375 81.621094 269.824219 81.097656 270.1875 80.558594 C 270.550781 80.015625 270.882812 79.457031 271.191406 78.882812 C 271.496094 78.308594 271.773438 77.722656 272.023438 77.121094 C 272.273438 76.519531 272.492188 75.90625 272.679688 75.285156 C 272.871094 74.660156 273.027344 74.03125 273.15625 73.390625 C 273.28125 72.753906 273.378906 72.109375 273.441406 71.464844 C 273.503906 70.816406 273.535156 70.164062 273.535156 69.515625 C 273.535156 68.863281 273.503906 68.214844 273.441406 67.566406 C 273.378906 66.917969 273.28125 66.277344 273.15625 65.636719 C 273.027344 65 272.871094 64.367188 272.679688 63.746094 C 272.492188 63.121094 272.273438 62.511719 272.023438 61.910156 C 271.773438 61.308594 271.496094 60.71875 271.191406 60.144531 C 270.882812 59.570312 270.550781 59.015625 270.1875 58.472656 C 269.824219 57.929688 269.4375 57.410156 269.023438 56.90625 C 268.613281 56.402344 268.175781 55.921875 267.714844 55.460938 C 267.253906 55 266.773438 54.5625 266.269531 54.152344 C 265.765625 53.738281 265.246094 53.351562 264.703125 52.988281 C 264.164062 52.628906 263.605469 52.292969 263.03125 51.988281 C 262.457031 51.679688 261.867188 51.402344 261.269531 51.152344 C 260.667969 50.902344 260.054688 50.683594 259.429688 50.496094 C 258.808594 50.308594 258.175781 50.148438 257.539062 50.023438 C 256.902344 49.894531 256.257812 49.800781 255.609375 49.734375 C 254.960938 49.671875 254.3125 49.640625 253.660156 49.640625 Z M 253.660156 49.640625 "/>
    <path style=" stroke:none;fill-rule:nonzero;fill:rgb(80.389404%,64.709473%,95.289612%);fill-opacity:1;" d="M 211.386719 40.871094 C 210.453125 40.871094 209.527344 40.960938 208.609375 41.144531 C 207.691406 41.328125 206.800781 41.597656 205.933594 41.957031 C 205.070312 42.3125 204.25 42.753906 203.472656 43.273438 C 202.695312 43.792969 201.972656 44.382812 201.3125 45.042969 C 200.652344 45.707031 200.058594 46.425781 199.539062 47.203125 C 199.019531 47.980469 198.582031 48.804688 198.222656 49.667969 C 197.863281 50.53125 197.59375 51.421875 197.414062 52.339844 C 197.230469 53.257812 197.136719 54.183594 197.136719 55.121094 C 197.136719 56.054688 197.230469 56.984375 197.414062 57.902344 C 197.59375 58.816406 197.863281 59.710938 198.222656 60.574219 C 198.582031 61.4375 199.019531 62.257812 199.539062 63.039062 C 200.058594 63.816406 200.652344 64.535156 201.3125 65.195312 C 201.972656 65.859375 202.695312 66.449219 203.472656 66.96875 C 204.25 67.488281 205.070312 67.929688 205.933594 68.285156 C 206.800781 68.644531 207.691406 68.914062 208.609375 69.097656 C 209.527344 69.28125 210.453125 69.371094 211.386719 69.371094 C 212.324219 69.371094 213.25 69.28125 214.167969 69.097656 C 215.085938 68.914062 215.976562 68.644531 216.839844 68.285156 C 217.707031 67.929688 218.527344 67.488281 219.304688 66.96875 C 220.082031 66.449219 220.804688 65.859375 221.464844 65.195312 C 222.125 64.535156 222.71875 63.816406 223.238281 63.039062 C 223.757812 62.257812 224.195312 61.4375 224.554688 60.574219 C 224.910156 59.710938 225.183594 58.816406 225.363281 57.902344 C 225.546875 56.984375 225.636719 56.054688 225.636719 55.121094 C 225.636719 54.183594 225.546875 53.257812 225.363281 52.339844 C 225.183594 51.421875 224.910156 50.53125 224.554688 49.667969 C 224.195312 48.804688 223.757812 47.980469 223.238281 47.203125 C 222.71875 46.425781 222.125 45.707031 221.464844 45.042969 C 220.804688 44.382812 220.082031 43.792969 219.304688 43.273438 C 218.527344 42.753906 217.707031 42.3125 216.839844 41.957031 C 215.976562 41.597656 215.085938 41.328125 214.167969 41.144531 C 213.25 40.960938 212.324219 40.871094 211.386719 40.871094 Z M 211.386719 40.871094 "/>
    <g style="fill:rgb(22.349548%,22.349548%,22.349548%);fill-opacity:1;">
      <g transform="translate(83.446859, 282.250133)">
        <path style="stroke:none;" d="M 7.453125 -21.292969 L 7.453125 0 L 12.777344 0 L 12.777344 -21.292969 L 15.226562 -21.292969 C 20.65625 -21.292969 22.09375 -17.566406 22.09375 -14.425781 C 22.09375 -6.441406 12.988281 2.820312 10.488281 3.511719 L 11.925781 4.898438 C 18.101562 3.621094 27.574219 -2.660156 27.574219 -14.265625 C 27.574219 -22.625 22.625 -27.148438 15.226562 -27.148438 L 1.597656 -27.148438 L 1.597656 -21.292969 Z M 7.453125 -21.292969 "/>
      </g>
    </g>
    <g style="fill:rgb(22.349548%,22.349548%,22.349548%);fill-opacity:1;">
      <g transform="translate(112.615065, 282.250133)">
        <path style="stroke:none;" d="M 1.597656 -13.308594 C 1.597656 -5.375 8.039062 1.066406 15.96875 1.066406 C 23.902344 1.066406 30.34375 -5.375 30.34375 -13.308594 C 30.34375 -21.242188 23.902344 -27.683594 15.96875 -27.683594 C 8.039062 -27.683594 1.597656 -21.242188 1.597656 -13.308594 Z M 6.921875 -13.308594 C 6.921875 -17.992188 10.964844 -21.828125 15.96875 -21.828125 C 20.972656 -21.828125 25.019531 -17.992188 25.019531 -13.308594 C 25.019531 -8.625 20.972656 -4.792969 15.96875 -4.792969 C 10.964844 -4.792969 6.921875 -8.625 6.921875 -13.308594 Z M 6.921875 -13.308594 "/>
      </g>
    </g>
    <g style="fill:rgb(22.349548%,22.349548%,22.349548%);fill-opacity:1;">
      <g transform="translate(144.551049, 282.250133)">
        <path style="stroke:none;" d="M 1.597656 -27.148438 L 1.597656 -21.292969 L 7.453125 -21.292969 L 7.453125 -18.683594 C 7.453125 -7.132812 4.632812 2.023438 1.917969 5.324219 L 3.9375 5.324219 C 9.261719 -0.585938 12.777344 -9.636719 12.777344 -19.378906 L 12.777344 -21.292969 L 17.566406 -21.292969 L 17.566406 -27.148438 Z M 1.597656 -27.148438 "/>
      </g>
    </g>
    <g style="fill:rgb(22.349548%,22.349548%,22.349548%);fill-opacity:1;">
      <g transform="translate(163.712646, 282.250133)">
        <path style="stroke:none;" d="M 1.597656 -13.308594 C 1.597656 -5.375 8.039062 1.066406 15.96875 1.066406 C 23.902344 1.066406 30.34375 -5.375 30.34375 -13.308594 C 30.34375 -21.242188 23.902344 -27.683594 15.96875 -27.683594 C 8.039062 -27.683594 1.597656 -21.242188 1.597656 -13.308594 Z M 6.921875 -13.308594 C 6.921875 -17.992188 10.964844 -21.828125 15.96875 -21.828125 C 20.972656 -21.828125 25.019531 -17.992188 25.019531 -13.308594 C 25.019531 -8.625 20.972656 -4.792969 15.96875 -4.792969 C 10.964844 -4.792969 6.921875 -8.625 6.921875 -13.308594 Z M 6.921875 -13.308594 "/>
      </g>
    </g>
    <g style="fill:rgb(22.349548%,22.349548%,22.349548%);fill-opacity:1;">
      <g transform="translate(195.648629, 282.250133)">
        <path style="stroke:none;" d="M 20.867188 -21.292969 L 20.867188 -14.375 L 26.191406 -19.695312 L 26.191406 -27.148438 L 15.96875 -27.148438 C 8.144531 -27.148438 1.597656 -20.816406 1.597656 -13.308594 C 1.597656 -5.535156 8.199219 1.066406 15.96875 1.066406 C 19.644531 1.066406 23.316406 -0.320312 26.136719 -3.140625 L 22.359375 -6.921875 C 20.601562 -5.109375 18.257812 -4.257812 15.96875 -4.257812 C 11.074219 -4.257812 6.921875 -8.410156 6.921875 -13.308594 C 6.921875 -17.621094 11.074219 -21.292969 15.96875 -21.292969 Z M 20.867188 -21.292969 "/>
      </g>
    </g>
    <g style="fill:rgb(22.349548%,22.349548%,22.349548%);fill-opacity:1;">
      <g transform="translate(223.432937, 282.250133)">
        <path style="stroke:none;" d="M 12.457031 0.53125 C 11.234375 -1.171875 9.953125 -5.269531 9.636719 -10.648438 L 19.164062 -10.648438 L 19.164062 0 L 24.488281 0 L 24.488281 -21.292969 L 30.34375 -21.292969 L 30.34375 -27.148438 L 1.597656 -27.148438 L 1.597656 -21.292969 L 5.960938 -21.292969 C 4.898438 -18.898438 4.257812 -16.34375 4.257812 -13.523438 C 4.257812 -8.039062 6.707031 -2.929688 10.433594 0.53125 Z M 11.5 -21.292969 L 19.164062 -21.292969 L 19.164062 -16.503906 L 9.796875 -16.503906 C 10.0625 -18.207031 10.59375 -19.695312 11.5 -21.292969 Z M 11.5 -21.292969 "/>
      </g>
    </g>
    <g style="fill:rgb(22.349548%,22.349548%,22.349548%);fill-opacity:1;">
      <g transform="translate(255.368921, 282.250133)">
        <path style="stroke:none;" d="M 7.453125 -21.292969 L 7.453125 0 L 12.777344 0 L 12.777344 -20.230469 L 19.164062 -13.839844 L 25.554688 -20.230469 L 25.554688 0 L 30.875 0 L 30.875 -21.292969 L 36.730469 -21.292969 L 36.730469 -27.148438 L 25.554688 -27.148438 L 19.164062 -20.761719 L 12.777344 -27.148438 L 1.597656 -27.148438 L 1.597656 -21.292969 Z M 7.453125 -21.292969 "/>
      </g>
    </g>
    <path style=" stroke:none;fill-rule:nonzero;fill:rgb(22.349548%,22.349548%,22.349548%);fill-opacity:1;" d="M 112.847656 103.125 L 136.097656 103.125 L 136.097656 117.375 L 112.847656 117.375 Z M 112.847656 103.125 "/>
  </g>
</svg>