<?xml version="1.0" encoding="utf-8"?>
<svg contentscripttype="text/ecmascript" width="375pt" zoomAndPan="magnify" contentstyletype="text/css" viewBox="0 0 375 374.999991" height="374.999991pt" preserveAspectRatio="xMidYMid meet" version="1.2" xmlns="http://www.w3.org/2000/svg">
  <defs>
    <clipPath id="clip1">
      <path d="M 89.46875 131.3125 L 285.21875 131.3125 L 285.21875 285.8125 L 89.46875 285.8125 Z M 89.46875 131.3125 "/>
    </clipPath>
    <clipPath id="clip2">
      <path d="M 148.808594 184.070312 L 217 184.070312 L 217 259 L 148.808594 259 Z M 148.808594 184.070312 "/>
    </clipPath>
  </defs>
  <g id="surface1">
    <g clip-rule="nonzero" clip-path="url(#clip1)">
      <path style=" stroke:none;fill-rule:nonzero;fill:rgb(22.349548%,22.349548%,22.349548%);fill-opacity:1;" d="M 275.417969 157.425781 L 234.390625 157.425781 L 233.003906 147.605469 L 231.941406 140.980469 C 231.511719 138.3125 230.101562 136.101562 227.890625 134.253906 C 225.625 132.363281 223.203125 131.371094 220.539062 131.371094 L 153.832031 131.371094 C 151.167969 131.371094 148.71875 132.332031 146.480469 134.253906 C 144.242188 136.175781 143.054688 138.433594 142.644531 140.980469 L 141.578125 147.605469 L 140.085938 157.425781 L 99.273438 157.425781 C 93.839844 157.425781 89.46875 161.804688 89.46875 167.039062 L 89.46875 275.964844 C 89.46875 281.410156 93.839844 285.789062 99.273438 285.789062 L 275.414062 285.789062 C 280.847656 285.789062 285.21875 281.410156 285.21875 275.964844 L 285.21875 167.039062 C 285.21875 161.804688 280.847656 157.425781 275.414062 157.425781 Z M 273.394531 273.9375 L 101.195312 273.9375 L 101.195312 169.175781 L 140.089844 169.175781 C 145.949219 169.175781 151.007812 164.804688 151.808594 159.136719 L 153.195312 149.3125 L 154.261719 143.226562 L 220.324219 143.226562 L 221.285156 149.3125 L 222.777344 159.136719 C 223.636719 164.796875 228.742188 169.175781 234.394531 169.175781 L 273.390625 169.175781 L 273.390625 273.9375 Z M 273.394531 273.9375 "/>
    </g>
    <path style=" stroke:none;fill-rule:nonzero;fill:rgb(22.349548%,22.349548%,22.349548%);fill-opacity:1;" d="M 187.183594 172.273438 C 175.144531 172.273438 164.703125 176.648438 156.070312 185.296875 C 147.441406 193.949219 143.070312 204.414062 143.070312 216.484375 C 143.070312 228.546875 147.441406 239.015625 156.070312 247.664062 C 164.703125 256.316406 175.144531 260.40625 187.183594 260.585938 C 211.058594 260.9375 231.582031 240.191406 231.300781 216.480469 C 231.15625 204.308594 226.929688 193.949219 218.300781 185.296875 C 209.667969 176.648438 199.332031 172.273438 187.183594 172.273438 Z M 209.988281 239.441406 C 203.703125 245.742188 196.136719 248.835938 187.183594 248.835938 C 178.34375 248.835938 170.777344 245.742188 164.488281 239.441406 C 158.199219 233.140625 155.113281 225.453125 155.113281 216.480469 C 155.113281 207.617188 158.203125 199.929688 164.488281 193.628906 C 170.777344 187.328125 178.34375 184.125 187.183594 184.125 C 196.136719 184.125 203.703125 187.328125 209.988281 193.628906 C 216.277344 199.929688 219.472656 207.617188 219.472656 216.480469 C 219.472656 225.453125 216.277344 233.140625 209.988281 239.441406 Z M 209.988281 239.441406 "/>
    <path style=" stroke:none;fill-rule:nonzero;fill:rgb(52.549744%,45.489502%,66.668701%);fill-opacity:1;" d="M 187.660156 170.941406 C 186.171875 170.941406 184.691406 171.015625 183.210938 171.160156 C 181.734375 171.304688 180.265625 171.523438 178.808594 171.8125 C 177.347656 172.101562 175.910156 172.464844 174.488281 172.894531 C 173.066406 173.328125 171.667969 173.828125 170.296875 174.394531 C 168.921875 174.964844 167.582031 175.597656 166.269531 176.300781 C 164.960938 177 163.6875 177.761719 162.449219 178.589844 C 161.214844 179.414062 160.023438 180.296875 158.875 181.242188 C 157.726562 182.183594 156.625 183.179688 155.574219 184.230469 C 154.523438 185.28125 153.527344 186.382812 152.582031 187.53125 C 151.640625 188.679688 150.757812 189.871094 149.929688 191.109375 C 149.105469 192.34375 148.34375 193.617188 147.640625 194.925781 C 146.941406 196.238281 146.308594 197.578125 145.738281 198.953125 C 145.167969 200.324219 144.667969 201.722656 144.238281 203.144531 C 143.808594 204.566406 143.445312 206.007812 143.15625 207.464844 C 142.867188 208.921875 142.648438 210.390625 142.503906 211.867188 C 142.355469 213.347656 142.285156 214.832031 142.285156 216.316406 C 142.285156 217.800781 142.355469 219.285156 142.503906 220.765625 C 142.648438 222.242188 142.867188 223.710938 143.15625 225.167969 C 143.445312 226.625 143.808594 228.066406 144.238281 229.488281 C 144.667969 230.910156 145.167969 232.308594 145.738281 233.679688 C 146.308594 235.054688 146.941406 236.394531 147.640625 237.707031 C 148.34375 239.015625 149.105469 240.289062 149.929688 241.527344 C 150.757812 242.761719 151.640625 243.953125 152.582031 245.101562 C 153.527344 246.25 154.523438 247.351562 155.574219 248.402344 C 156.625 249.453125 157.726562 250.449219 158.875 251.390625 C 160.023438 252.335938 161.214844 253.21875 162.449219 254.042969 C 163.6875 254.871094 164.960938 255.632812 166.269531 256.332031 C 167.582031 257.035156 168.921875 257.667969 170.296875 258.238281 C 171.667969 258.804688 173.066406 259.304688 174.488281 259.738281 C 175.910156 260.167969 177.347656 260.53125 178.808594 260.820312 C 180.265625 261.109375 181.734375 261.328125 183.210938 261.472656 C 184.691406 261.617188 186.171875 261.691406 187.660156 261.691406 C 189.144531 261.691406 190.628906 261.617188 192.105469 261.472656 C 193.585938 261.328125 195.054688 261.109375 196.511719 260.820312 C 197.96875 260.53125 199.410156 260.167969 200.832031 259.738281 C 202.253906 259.304688 203.652344 258.804688 205.023438 258.238281 C 206.398438 257.667969 207.738281 257.035156 209.050781 256.332031 C 210.359375 255.632812 211.632812 254.871094 212.867188 254.042969 C 214.105469 253.21875 215.296875 252.335938 216.445312 251.390625 C 217.59375 250.449219 218.695312 249.453125 219.746094 248.402344 C 220.796875 247.351562 221.792969 246.25 222.734375 245.101562 C 223.675781 243.953125 224.5625 242.761719 225.386719 241.527344 C 226.210938 240.289062 226.976562 239.015625 227.675781 237.707031 C 228.378906 236.394531 229.011719 235.054688 229.582031 233.679688 C 230.148438 232.308594 230.648438 230.910156 231.082031 229.488281 C 231.511719 228.066406 231.871094 226.625 232.164062 225.167969 C 232.453125 223.710938 232.671875 222.242188 232.816406 220.765625 C 232.960938 219.285156 233.035156 217.800781 233.035156 216.316406 C 233.035156 214.832031 232.960938 213.347656 232.816406 211.867188 C 232.671875 210.390625 232.453125 208.921875 232.164062 207.464844 C 231.871094 206.007812 231.511719 204.566406 231.082031 203.144531 C 230.648438 201.722656 230.148438 200.324219 229.582031 198.953125 C 229.011719 197.578125 228.378906 196.238281 227.675781 194.925781 C 226.976562 193.617188 226.210938 192.34375 225.386719 191.109375 C 224.5625 189.871094 223.675781 188.679688 222.734375 187.53125 C 221.792969 186.382812 220.796875 185.28125 219.746094 184.230469 C 218.695312 183.179688 217.59375 182.183594 216.445312 181.242188 C 215.296875 180.296875 214.105469 179.414062 212.867188 178.589844 C 211.632812 177.761719 210.359375 177 209.050781 176.300781 C 207.738281 175.597656 206.398438 174.964844 205.023438 174.394531 C 203.652344 173.828125 202.253906 173.328125 200.832031 172.894531 C 199.410156 172.464844 197.96875 172.101562 196.511719 171.8125 C 195.054688 171.523438 193.585938 171.304688 192.105469 171.160156 C 190.628906 171.015625 189.144531 170.941406 187.660156 170.941406 Z M 187.660156 170.941406 "/>
    <g clip-rule="nonzero" clip-path="url(#clip2)">
      <path style=" stroke:none;fill-rule:nonzero;fill:rgb(100%,100%,100%);fill-opacity:1;" d="M 216.613281 202.578125 C 216.503906 202.292969 216.332031 202.039062 216.242188 201.746094 C 216.179688 201.527344 216.097656 201.304688 215.941406 201.136719 C 215.65625 200.828125 215.425781 200.28125 214.621094 199.507812 C 214.492188 199.394531 214.46875 199.207031 214.34375 199.089844 C 214.269531 199.003906 214.144531 199.011719 214.0625 198.941406 C 214.023438 198.910156 214.039062 198.855469 214.039062 198.808594 C 214.046875 198.648438 214.042969 198.484375 213.972656 198.335938 C 213.917969 198.214844 213.875 198.085938 213.785156 197.988281 C 213.5625 197.730469 213.613281 197.546875 213.1875 197.058594 C 212.609375 196.351562 212.523438 196.644531 212.574219 196.253906 C 212.613281 196.09375 212.589844 195.59375 212.738281 195.5 C 212.796875 195.441406 212.863281 195.515625 212.925781 195.535156 C 213.050781 195.613281 213.199219 195.578125 213.339844 195.585938 C 213.289062 195.667969 213.238281 195.769531 213.320312 195.855469 C 213.449219 195.835938 213.566406 195.773438 213.6875 195.726562 C 213.824219 195.664062 213.902344 195.53125 214 195.421875 C 214.058594 195.355469 214.15625 195.335938 214.207031 195.257812 C 214.285156 195.132812 214.390625 195.023438 214.453125 194.890625 C 214.765625 194.039062 214.839844 194.382812 214.902344 193.722656 C 214.90625 193.683594 215.027344 192.90625 215.261719 192.480469 C 215.363281 192.300781 215.402344 191.878906 215.449219 191.789062 C 215.507812 191.628906 215.613281 191.488281 215.65625 191.324219 C 215.699219 191.214844 215.738281 191.101562 215.792969 191 C 215.890625 190.878906 215.835938 190.71875 215.878906 190.578125 C 215.949219 190.3125 215.871094 189.3125 215.808594 189.105469 C 215.746094 188.914062 215.777344 188.710938 215.726562 188.515625 C 215.6875 188.363281 215.6875 188.207031 215.652344 188.054688 C 215.605469 187.929688 215.59375 187.796875 215.582031 187.667969 C 215.5625 187.457031 215.230469 186.707031 214.984375 186.394531 C 214.882812 186.246094 214.738281 186.132812 214.660156 185.96875 C 214.492188 185.761719 214.320312 185.554688 214.09375 185.40625 C 213.5625 185.003906 212.269531 184.597656 211.726562 184.460938 C 211.554688 184.441406 211.375 184.457031 211.210938 184.40625 C 211.078125 184.371094 210.957031 184.300781 210.820312 184.292969 C 210.277344 184.238281 210.1875 184.070312 209.230469 184.269531 C 208.957031 184.269531 208.683594 184.332031 208.410156 184.339844 C 207.242188 184.359375 207.359375 184.488281 207.109375 184.589844 C 206.949219 184.613281 206.773438 184.601562 206.636719 184.699219 C 206.660156 184.703125 206.710938 184.710938 206.734375 184.714844 C 206.695312 184.753906 206.652344 184.785156 206.601562 184.8125 C 206.492188 184.867188 206.402344 184.957031 206.296875 185.019531 C 206.167969 185.09375 205.84375 185.566406 205.984375 186.21875 C 206.007812 186.339844 206.148438 186.367188 206.25 186.402344 C 206.257812 186.515625 206.230469 186.625 206.214844 186.738281 C 206.128906 186.953125 205.777344 187.3125 205.753906 187.421875 C 205.734375 187.519531 205.617188 187.546875 205.59375 187.640625 C 205.5625 187.726562 205.484375 187.78125 205.4375 187.855469 C 205.359375 188.011719 205.265625 188.160156 205.238281 188.332031 C 205.222656 188.457031 205.113281 188.550781 205.128906 188.683594 C 205.152344 189.195312 204.625 189.1875 204.847656 189.804688 C 204.96875 190.324219 205.613281 190.433594 204.90625 190.617188 C 205.007812 190.6875 205.113281 190.746094 205.234375 190.765625 C 205.257812 190.9375 205.195312 191.101562 205.207031 191.273438 C 205.1875 191.371094 205.109375 191.4375 205.050781 191.511719 C 204.957031 191.613281 204.289062 192.992188 204.230469 193.128906 C 204.191406 193.253906 204.015625 193.105469 203.800781 193.101562 C 203.617188 193.089844 203.441406 193.15625 203.261719 193.179688 C 202.988281 193.230469 202.941406 192.40625 202.601562 192.46875 C 202.378906 192.507812 202.160156 192.449219 201.828125 192.816406 C 201.789062 192.851562 201.757812 192.890625 201.707031 192.910156 C 200.863281 192.695312 201.390625 192.285156 197.800781 192.253906 C 197.324219 192.300781 196.847656 192.335938 196.378906 192.433594 C 196.226562 192.445312 196.074219 192.429688 195.921875 192.457031 C 195.714844 192.46875 195.515625 192.542969 195.308594 192.558594 C 194.8125 192.597656 194.269531 192.511719 193.757812 192.542969 C 192.941406 192.589844 192.140625 192.875 190.863281 192.617188 C 189.984375 192.488281 189.558594 192.214844 189.191406 192.089844 C 187.835938 191.53125 186.378906 191.808594 186.109375 191.746094 C 185.71875 191.667969 184.324219 191.328125 181.699219 191.550781 C 181.679688 191.550781 179.484375 191.597656 179.203125 191.652344 C 178.417969 191.753906 177.566406 191.601562 177.25 191.496094 C 176.652344 191.292969 176.914062 191.515625 175.910156 191.464844 C 175.65625 191.429688 173.667969 190.921875 173.648438 190.917969 C 173.613281 190.90625 172.980469 190.640625 172.660156 190.847656 C 172.507812 190.945312 172.367188 190.847656 172.074219 191.0625 C 171.949219 191.164062 171.570312 190.996094 171.398438 191.347656 C 171.242188 191.585938 171.382812 191.9375 171.285156 192.039062 C 170.917969 192.46875 171.027344 192.648438 170.957031 192.890625 C 170.746094 193.761719 170.546875 194.28125 171.476562 194.183594 C 171.523438 194.167969 171.5625 194.199219 171.601562 194.226562 C 171.515625 194.382812 171.382812 194.539062 171.421875 194.730469 C 171.5 195.070312 171.519531 195.242188 172.027344 195.222656 C 172.09375 195.21875 173.199219 195.199219 173.339844 195.167969 C 173.515625 195.136719 173.671875 195.050781 173.832031 194.988281 C 174.339844 194.757812 174.886719 194.679688 175.296875 194.257812 C 175.472656 194.078125 175.730469 194.035156 175.964844 194.003906 C 176.449219 193.992188 177.34375 193.761719 178.765625 194.128906 C 178.890625 194.148438 180.546875 194.597656 180.707031 194.679688 C 182.667969 195.503906 181.710938 195.136719 182.976562 195.496094 C 183.28125 195.578125 183.597656 195.605469 183.898438 195.695312 C 184.632812 195.910156 185.101562 196.015625 185.582031 196.019531 C 186.046875 196.019531 186.625 196.175781 186.722656 196.21875 C 187.851562 196.671875 187.734375 196.480469 189.148438 196.484375 C 189.746094 196.515625 190.339844 196.632812 190.9375 196.671875 C 191.5 196.730469 192.070312 196.703125 192.632812 196.765625 C 193.679688 196.847656 193.640625 196.703125 194.511719 197.117188 C 194.71875 197.21875 194.933594 197.304688 195.121094 197.441406 C 195.410156 198.125 195.21875 198.003906 196.320312 197.875 C 196.417969 197.992188 196.546875 198.078125 196.65625 198.183594 C 196.667969 198.214844 196.960938 198.90625 196.894531 199.027344 C 196.6875 199.460938 196.460938 199.75 196.351562 199.808594 C 196.289062 199.816406 196.222656 199.800781 196.167969 199.832031 C 195.976562 199.914062 195.8125 200.09375 195.800781 200.308594 C 195.804688 200.492188 195.867188 200.675781 195.839844 200.859375 C 195.710938 200.914062 195.574219 200.96875 195.460938 201.054688 C 195.386719 201.175781 195.351562 201.316406 195.292969 201.445312 C 195.25 201.496094 195.1875 201.519531 195.136719 201.558594 C 195.039062 201.621094 194.976562 201.730469 194.875 201.78125 C 194.789062 201.789062 194.707031 201.75 194.621094 201.761719 C 194.472656 201.78125 194.398438 201.9375 194.253906 201.964844 C 194.117188 201.996094 194.035156 202.121094 193.910156 202.171875 C 193.863281 202.167969 193.175781 202.011719 192.359375 202.023438 C 191.882812 202.019531 191.710938 202.550781 191.648438 202.679688 C 191.632812 202.722656 191.550781 202.75 191.53125 202.695312 C 191.382812 202.402344 191.359375 201.941406 191.074219 201.917969 C 190.996094 201.910156 190.929688 201.863281 190.855469 201.839844 C 190.613281 201.835938 190.378906 201.914062 190.136719 201.917969 C 189.824219 201.941406 189.511719 201.949219 189.199219 201.964844 C 189.105469 201.960938 189.117188 202.105469 189.023438 202.113281 C 188.910156 202.136719 188.789062 202.121094 188.675781 202.113281 C 188.457031 202.0625 188.238281 202.152344 188.019531 202.183594 C 187.335938 202.273438 187.355469 202.394531 187.292969 202.503906 C 187.105469 202.507812 186.917969 202.5 186.734375 202.484375 C 186.382812 202.464844 186.179688 202.722656 185.902344 202.429688 C 185.8125 202.339844 185.84375 202.183594 185.734375 202.109375 C 185.644531 202.09375 185.5625 202.15625 185.492188 202.199219 C 185.402344 202.246094 185.398438 202.355469 185.367188 202.4375 C 185.320312 202.429688 185.265625 202.4375 185.242188 202.386719 C 185.15625 202.28125 185.113281 202.148438 185.082031 202.015625 C 184.941406 201.898438 184.753906 201.960938 184.589844 201.941406 C 184.296875 201.914062 183.996094 201.917969 183.707031 201.972656 C 183.558594 201.949219 183.421875 201.882812 183.28125 201.835938 C 183.183594 201.808594 183.148438 201.699219 183.074219 201.640625 C 182.996094 201.570312 182.644531 201.261719 182.539062 201.308594 C 182.386719 201.332031 182.324219 201.507812 182.179688 201.550781 C 181.957031 201.578125 181.789062 201.390625 181.585938 201.332031 C 181.34375 201.226562 181.078125 201.199219 180.824219 201.128906 C 180.667969 201.089844 180.480469 201.128906 180.355469 201.007812 C 179.992188 200.675781 179.601562 200.675781 179.410156 200.617188 C 179.347656 200.601562 179.277344 200.664062 179.222656 200.617188 C 178.90625 200.429688 178.816406 200.320312 178.699219 200.34375 C 178.328125 200.414062 177.949219 200.308594 177.59375 200.207031 C 177.53125 200.183594 177.476562 200.222656 177.429688 200.257812 C 177.339844 200.226562 177.246094 200.207031 177.148438 200.199219 C 176.9375 200.171875 176.746094 200.050781 176.527344 200.050781 C 175.191406 200.046875 172.476562 198.886719 172.261719 198.839844 C 171.851562 198.75 170.910156 198.355469 170.605469 198.164062 C 170.53125 198.113281 170.476562 198.027344 170.394531 197.984375 C 170.347656 197.964844 170.292969 197.984375 170.246094 197.964844 C 169.472656 197.558594 168.773438 196.664062 166.15625 196.238281 C 165.082031 196.0625 162.992188 196.089844 163.023438 196.0625 C 161.144531 195.988281 158.929688 196.050781 158.292969 195.796875 C 158.039062 195.703125 157.808594 195.558594 157.550781 195.46875 C 157.457031 195.429688 157.351562 195.414062 157.269531 195.351562 C 157.21875 195.246094 157.207031 195.125 157.121094 195.042969 C 156.828125 194.757812 156.453125 194.824219 155.773438 194.542969 C 155.652344 194.492188 155.519531 194.46875 155.410156 194.394531 C 155.09375 194.035156 155.148438 193.953125 154.074219 193.96875 C 153.960938 193.96875 153.871094 194.054688 153.757812 194.054688 C 153.492188 194.046875 153.238281 194.128906 152.980469 194.15625 C 152.886719 194.164062 152.804688 194.222656 152.710938 194.238281 C 152.636719 194.246094 152.566406 194.210938 152.496094 194.199219 C 152.339844 194.15625 152.175781 194.199219 152.019531 194.175781 C 151.882812 194.15625 151.75 194.132812 151.613281 194.128906 C 151.484375 194.121094 151.363281 194.070312 151.238281 194.078125 C 151.128906 194.097656 151.027344 194.15625 150.914062 194.160156 C 150.78125 194.171875 150.636719 194.140625 150.511719 194.199219 C 150.4375 194.226562 150.375 194.285156 150.296875 194.296875 C 150.175781 194.277344 150.058594 194.21875 149.9375 194.242188 C 149.761719 194.265625 149.582031 194.148438 149.414062 194.230469 C 149.3125 194.273438 149.195312 194.28125 149.105469 194.347656 C 149.039062 194.394531 149.039062 194.484375 149.019531 194.558594 C 148.984375 194.574219 148.945312 194.59375 148.910156 194.609375 C 148.816406 195.378906 149.019531 196.011719 149.269531 197.050781 C 149.335938 197.480469 149.421875 197.90625 149.550781 198.324219 C 149.894531 199.441406 149.929688 199.421875 150.324219 199.449219 C 150.476562 199.429688 150.652344 199.417969 150.761719 199.296875 C 150.859375 199.191406 151.011719 199.160156 151.113281 199.0625 C 151.179688 199.003906 151.230469 198.917969 151.316406 198.886719 C 151.4375 198.835938 151.566406 198.808594 151.683594 198.75 C 152.238281 198.460938 152.441406 198.566406 152.691406 198.4375 C 152.9375 198.332031 152.617188 198.441406 153.367188 198.410156 C 153.527344 198.355469 153.648438 198.183594 153.832031 198.203125 C 154.136719 198.226562 154.464844 198.152344 154.746094 198.296875 C 154.859375 198.359375 155.261719 198.371094 155.359375 198.375 C 155.375 198.535156 155.378906 198.699219 155.390625 198.863281 C 155.425781 198.863281 155.460938 198.859375 155.496094 198.859375 C 155.492188 198.699219 155.46875 198.535156 155.484375 198.371094 C 155.65625 198.347656 155.835938 198.371094 155.996094 198.289062 C 156.050781 198.269531 156.105469 198.226562 156.164062 198.238281 C 156.335938 198.265625 156.511719 198.277344 156.679688 198.316406 C 156.769531 198.339844 156.828125 198.234375 156.914062 198.246094 C 157.78125 198.238281 157.71875 198.148438 158.1875 198.308594 C 159.339844 198.5625 158.140625 197.847656 162.605469 200.320312 C 166.03125 202.21875 166.585938 201.8125 166.960938 201.933594 C 166.835938 201.917969 166.707031 201.886719 166.582031 201.917969 C 166.917969 201.976562 167.265625 201.960938 167.605469 201.957031 C 167.945312 201.984375 168.5 202.269531 168.574219 202.476562 C 168.617188 202.621094 168.800781 202.621094 168.898438 202.714844 C 170.949219 204.5625 172.71875 204.640625 173.304688 204.925781 C 173.3125 204.929688 174.25 205.25 174.304688 205.265625 C 174.410156 205.289062 174.5 205.355469 174.601562 205.386719 C 175.023438 205.523438 175.394531 205.820312 175.765625 206.058594 C 177.457031 207.148438 176.875 206.730469 177.40625 207.523438 C 177.445312 207.605469 177.546875 207.613281 177.617188 207.65625 C 177.597656 208.03125 177.570312 207.769531 179.335938 208.480469 C 180.25 208.757812 180.644531 209.074219 180.777344 209.160156 C 181.082031 209.394531 181.441406 209.535156 181.945312 209.972656 C 182.78125 210.679688 183.769531 211.203125 184.707031 212.0625 C 184.8125 212.164062 184.929688 212.25 185.050781 212.335938 C 185.234375 212.488281 185.394531 212.671875 185.570312 212.835938 C 186.371094 213.5625 186.519531 214.15625 186.710938 215.125 C 186.753906 215.296875 186.769531 215.476562 186.78125 215.65625 C 186.75 216.316406 186.808594 216.980469 186.75 217.640625 C 186.738281 218.046875 186.664062 218.453125 186.710938 218.855469 C 186.804688 219.632812 186.738281 220.414062 186.71875 221.1875 C 186.699219 221.871094 186.753906 222.636719 186.550781 223.296875 C 186.394531 223.800781 186.328125 223.765625 186.324219 224.402344 C 186.441406 224.46875 186.554688 224.542969 186.65625 224.632812 C 186.890625 224.839844 187.902344 225.308594 188.121094 225.472656 C 188.164062 225.511719 188.175781 225.578125 188.183594 225.632812 C 188.128906 226.226562 188.296875 226.832031 188.386719 227.417969 C 188.488281 228.082031 188.6875 233.042969 188.683594 232.886719 C 188.6875 233.035156 188.664062 233.199219 188.671875 233.339844 C 188.675781 233.453125 188.757812 233.601562 188.722656 233.710938 C 188.652344 233.953125 188.332031 234.21875 188.210938 234.464844 C 188.007812 234.886719 187.785156 235.9375 187.722656 236.09375 C 187.066406 237.785156 186.800781 239.03125 186.597656 240.5625 C 186.410156 241.960938 186.394531 241.644531 186.515625 243.027344 C 186.582031 243.742188 186.789062 244.449219 186.808594 245.171875 C 186.828125 245.890625 186.765625 246.621094 186.746094 247.339844 C 186.746094 247.261719 186.746094 247.183594 186.742188 247.105469 C 186.542969 248.914062 186.589844 248.972656 186.101562 251.4375 C 186.007812 251.476562 185.902344 251.5 185.808594 251.546875 C 185.707031 251.589844 185.613281 251.652344 185.503906 251.667969 C 185.328125 251.707031 185.191406 251.675781 185 252.15625 C 184.960938 252.246094 185.035156 252.339844 185 252.429688 C 184.875 252.761719 184.730469 253.085938 184.597656 253.414062 C 184.5625 253.480469 184.496094 253.527344 184.476562 253.601562 C 184.429688 253.757812 184.378906 253.914062 184.371094 254.078125 C 184.371094 254.136719 184.308594 254.984375 184.308594 254.984375 C 184.300781 255.171875 184.347656 255.398438 184.207031 255.546875 C 184.207031 255.714844 184.167969 255.894531 184.097656 256.050781 C 183.953125 256.421875 184.230469 257.152344 184.492188 257.339844 C 184.703125 257.492188 185.421875 257.679688 186.332031 257.738281 C 189.300781 257.9375 188.386719 257.824219 189.011719 257.8125 C 189.074219 257.808594 189.707031 257.792969 189.90625 257.851562 C 191.144531 258.214844 190.605469 258.089844 191.113281 258.277344 C 191.265625 258.347656 191.414062 258.4375 191.585938 258.457031 C 192.453125 258.558594 192.25 258.691406 193.339844 258.722656 C 193.796875 258.722656 195.550781 259.070312 196.210938 258.617188 C 196.425781 258.46875 196.683594 258.378906 196.875 258.191406 C 196.941406 258.125 197.023438 258.132812 197.089844 258.085938 C 197.402344 257.886719 197.644531 257.523438 197.691406 257.160156 C 197.757812 256.675781 197.515625 256.730469 197.335938 256.601562 C 197.183594 256.480469 197.011719 256.386719 196.835938 256.304688 C 196.660156 256.226562 196.503906 256.101562 196.324219 256.039062 C 195.972656 255.914062 195.640625 255.75 195.308594 255.578125 C 195.082031 255.460938 194.253906 255.125 194.15625 255.0625 C 194.160156 255.011719 194.199219 254.972656 194.226562 254.929688 C 194.179688 254.886719 194.136719 254.832031 194.074219 254.8125 C 194.011719 254.8125 193.953125 254.835938 193.890625 254.835938 C 193.613281 254.71875 193.660156 254.652344 193.617188 254.5625 C 193.59375 254.492188 193.539062 254.441406 193.5 254.386719 C 193.476562 254.3125 193.472656 254.230469 193.414062 254.175781 C 193.128906 253.902344 192.625 254.019531 192.570312 253.707031 C 192.550781 253.5625 192.402344 253.5 192.304688 253.410156 C 192.210938 253.324219 192.085938 253.285156 191.960938 253.273438 C 191.875 253.265625 191.847656 253.171875 191.789062 253.121094 C 191.667969 253.011719 191.574219 252.878906 191.460938 252.765625 C 191.644531 252.019531 191.808594 252.070312 191.691406 251.859375 C 191.609375 251.980469 191.539062 252.113281 191.476562 252.25 C 191.449219 252.304688 191.476562 252.40625 191.394531 252.417969 C 191.335938 252.007812 192.402344 250.941406 191.789062 250.65625 C 191.585938 250.535156 191.03125 250.863281 190.863281 251.652344 C 190.828125 251.648438 190.792969 251.644531 190.761719 251.636719 C 190.707031 251.539062 190.691406 251.425781 190.632812 251.328125 C 190.386719 250.921875 190.328125 251.164062 190.1875 251.058594 C 190.171875 250.902344 190.105469 250.753906 190.121094 250.59375 C 190.53125 245.632812 191.777344 244.9375 192.691406 240 C 193.066406 237.972656 192.941406 237.507812 193.617188 235.132812 C 193.703125 234.828125 193.828125 234.472656 193.734375 234.152344 C 193.699219 234.03125 193.710938 233.902344 193.75 233.785156 C 193.773438 233.714844 193.855469 233.691406 193.894531 233.636719 C 194.324219 233.058594 194.390625 230.878906 195.359375 228.269531 C 195.519531 227.832031 195.730469 227.417969 195.789062 226.953125 C 195.847656 226.804688 195.964844 226.683594 196.015625 226.527344 C 196.167969 226.171875 196.039062 225.777344 196.128906 225.410156 C 196.171875 225.265625 196.175781 225.109375 196.21875 224.964844 C 196.382812 224.371094 196.359375 224.113281 196.472656 223.511719 C 196.527344 223.363281 196.601562 222.773438 196.570312 222.65625 C 196.535156 222.53125 196.539062 222.160156 196.664062 221.855469 C 196.714844 221.710938 196.671875 221.550781 196.710938 221.402344 C 196.800781 221.039062 196.726562 220.902344 196.6875 220.5 C 196.796875 220.445312 196.8125 220.316406 196.867188 220.214844 C 196.925781 220.078125 196.976562 219.902344 196.875 219.773438 C 196.785156 219.660156 196.761719 219.507812 196.664062 219.394531 C 196.5625 219.292969 196.742188 219.003906 196.890625 218.945312 C 197.007812 218.960938 197.191406 219.203125 197.398438 219.328125 C 197.449219 219.363281 197.515625 219.351562 197.570312 219.339844 C 197.960938 219.109375 197.917969 218.667969 197.882812 218.582031 C 197.773438 218.203125 198.261719 218.230469 198.46875 218.019531 C 198.691406 217.816406 198.664062 217.628906 199.070312 217.585938 C 199.550781 217.546875 199.476562 217.140625 199.671875 216.941406 C 200.027344 216.542969 200.648438 216.402344 200.800781 216.390625 C 200.933594 216.378906 201.066406 216.335938 201.203125 216.339844 C 201.417969 216.339844 201.621094 216.257812 201.808594 216.160156 C 201.902344 216.113281 201.957031 216.019531 202.035156 215.957031 C 202.277344 215.75 203.105469 215.277344 203.390625 215.210938 C 204.398438 214.820312 204.011719 214.878906 204.410156 214.683594 C 204.628906 214.574219 204.796875 214.386719 205.011719 214.273438 C 205.136719 214.203125 205.230469 214.09375 205.351562 214.023438 C 205.820312 213.742188 206.003906 213.539062 206.132812 213.355469 C 206.230469 213.242188 206.308594 213.097656 206.457031 213.042969 C 206.554688 213.242188 206.566406 213.46875 206.648438 213.675781 C 206.6875 213.75 206.746094 213.8125 206.773438 213.894531 C 206.847656 214.078125 206.777344 214.28125 206.832031 214.46875 C 206.882812 214.640625 207.058594 214.792969 207.160156 214.941406 C 207.359375 215.234375 208 216.152344 208.347656 216.777344 C 208.539062 217.125 208.648438 217.699219 208.992188 217.921875 C 209.042969 217.957031 209.089844 218.011719 209.160156 218.011719 C 209.492188 218.027344 209.734375 218.070312 210.058594 217.972656 C 210.554688 217.820312 211.019531 217.585938 211.351562 217.179688 C 211.410156 217.105469 211.476562 217.015625 211.578125 217.003906 C 211.679688 216.859375 211.839844 216.757812 211.914062 216.59375 C 211.941406 216.464844 211.960938 216.335938 212.035156 216.226562 C 212.761719 215.171875 214.335938 211.902344 214.292969 211.265625 C 214.28125 211.148438 214.355469 211.054688 214.378906 210.945312 C 214.523438 210.21875 214.621094 210.804688 214.757812 209.816406 C 214.753906 209.851562 214.753906 209.886719 214.75 209.917969 C 214.796875 209.753906 214.867188 209.59375 214.957031 209.449219 C 214.964844 209.4375 215.207031 209.050781 215.164062 209.050781 C 215.171875 209.050781 215.191406 209.050781 215.199219 209.050781 C 215.207031 208.941406 215.300781 208.855469 215.285156 208.746094 C 215.339844 208.726562 215.351562 208.660156 215.375 208.613281 C 215.695312 207.730469 216.238281 206.769531 216.421875 205.941406 C 216.664062 204.84375 217.046875 203.664062 216.613281 202.578125 Z M 191.503906 250.96875 C 191.597656 250.84375 191.554688 250.824219 191.792969 250.808594 C 191.796875 250.96875 191.816406 251.140625 191.738281 251.285156 C 191.285156 252.222656 191.421875 251.808594 191.273438 252.210938 C 191.234375 252.222656 191.203125 252.238281 191.167969 252.25 C 191.066406 251.960938 190.777344 251.296875 191.503906 250.96875 Z M 191.503906 250.96875 "/>
    </g>
    <path style=" stroke:none;fill-rule:nonzero;fill:rgb(52.549744%,45.489502%,66.668701%);fill-opacity:1;" d="M 252.589844 98.042969 C 251.941406 98.042969 251.289062 98.074219 250.644531 98.136719 C 249.996094 98.203125 249.351562 98.296875 248.714844 98.425781 C 248.074219 98.550781 247.445312 98.710938 246.820312 98.898438 C 246.199219 99.085938 245.585938 99.304688 244.984375 99.554688 C 244.382812 99.804688 243.796875 100.082031 243.222656 100.390625 C 242.648438 100.695312 242.089844 101.03125 241.546875 101.390625 C 241.007812 101.753906 240.484375 102.140625 239.980469 102.554688 C 239.480469 102.96875 238.996094 103.402344 238.535156 103.863281 C 238.078125 104.324219 237.640625 104.804688 237.226562 105.308594 C 236.8125 105.8125 236.425781 106.335938 236.066406 106.875 C 235.703125 107.417969 235.371094 107.972656 235.0625 108.546875 C 234.753906 109.121094 234.476562 109.710938 234.230469 110.3125 C 233.980469 110.914062 233.761719 111.523438 233.570312 112.148438 C 233.382812 112.769531 233.222656 113.402344 233.097656 114.039062 C 232.96875 114.679688 232.875 115.320312 232.8125 115.96875 C 232.746094 116.617188 232.714844 117.265625 232.714844 117.917969 C 232.714844 118.570312 232.746094 119.21875 232.8125 119.867188 C 232.875 120.511719 232.96875 121.15625 233.097656 121.796875 C 233.222656 122.433594 233.382812 123.0625 233.570312 123.6875 C 233.761719 124.308594 233.980469 124.921875 234.230469 125.523438 C 234.476562 126.125 234.753906 126.710938 235.0625 127.285156 C 235.371094 127.859375 235.703125 128.417969 236.066406 128.960938 C 236.425781 129.5 236.8125 130.023438 237.226562 130.527344 C 237.640625 131.03125 238.078125 131.511719 238.535156 131.972656 C 238.996094 132.433594 239.480469 132.867188 239.980469 133.28125 C 240.484375 133.695312 241.007812 134.082031 241.546875 134.441406 C 242.089844 134.804688 242.648438 135.140625 243.222656 135.445312 C 243.796875 135.753906 244.382812 136.03125 244.984375 136.28125 C 245.585938 136.527344 246.199219 136.746094 246.820312 136.9375 C 247.445312 137.125 248.074219 137.285156 248.714844 137.410156 C 249.351562 137.539062 249.996094 137.632812 250.644531 137.695312 C 251.289062 137.761719 251.941406 137.792969 252.589844 137.792969 C 253.242188 137.792969 253.890625 137.761719 254.539062 137.695312 C 255.1875 137.632812 255.828125 137.539062 256.46875 137.410156 C 257.105469 137.285156 257.738281 137.125 258.359375 136.9375 C 258.984375 136.746094 259.59375 136.527344 260.195312 136.28125 C 260.796875 136.03125 261.386719 135.753906 261.960938 135.445312 C 262.535156 135.140625 263.089844 134.804688 263.632812 134.441406 C 264.175781 134.082031 264.695312 133.695312 265.199219 133.28125 C 265.703125 132.867188 266.183594 132.433594 266.644531 131.972656 C 267.105469 131.511719 267.542969 131.03125 267.953125 130.527344 C 268.367188 130.023438 268.753906 129.5 269.117188 128.960938 C 269.476562 128.417969 269.8125 127.859375 270.117188 127.285156 C 270.425781 126.710938 270.703125 126.125 270.953125 125.523438 C 271.203125 124.921875 271.421875 124.308594 271.609375 123.6875 C 271.796875 123.0625 271.957031 122.433594 272.082031 121.796875 C 272.210938 121.15625 272.304688 120.511719 272.371094 119.867188 C 272.433594 119.21875 272.464844 118.570312 272.464844 117.917969 C 272.464844 117.265625 272.433594 116.617188 272.371094 115.96875 C 272.304688 115.320312 272.210938 114.679688 272.082031 114.039062 C 271.957031 113.402344 271.796875 112.769531 271.609375 112.148438 C 271.421875 111.523438 271.203125 110.914062 270.953125 110.3125 C 270.703125 109.710938 270.425781 109.121094 270.117188 108.546875 C 269.8125 107.972656 269.476562 107.417969 269.117188 106.875 C 268.753906 106.335938 268.367188 105.8125 267.953125 105.308594 C 267.542969 104.804688 267.105469 104.324219 266.644531 103.863281 C 266.183594 103.402344 265.703125 102.96875 265.199219 102.554688 C 264.695312 102.140625 264.175781 101.753906 263.632812 101.390625 C 263.089844 101.03125 262.535156 100.695312 261.960938 100.390625 C 261.386719 100.082031 260.796875 99.804688 260.195312 99.554688 C 259.59375 99.304688 258.984375 99.085938 258.359375 98.898438 C 257.738281 98.710938 257.105469 98.550781 256.46875 98.425781 C 255.828125 98.296875 255.1875 98.203125 254.539062 98.136719 C 253.890625 98.074219 253.242188 98.042969 252.589844 98.042969 Z M 252.589844 98.042969 "/>
    <path style=" stroke:none;fill-rule:nonzero;fill:rgb(80.389404%,64.709473%,95.289612%);fill-opacity:1;" d="M 210.316406 89.273438 C 209.382812 89.273438 208.457031 89.363281 207.539062 89.546875 C 206.621094 89.730469 205.730469 90 204.863281 90.359375 C 204 90.714844 203.179688 91.15625 202.402344 91.675781 C 201.621094 92.195312 200.902344 92.785156 200.242188 93.445312 C 199.578125 94.109375 198.988281 94.828125 198.46875 95.605469 C 197.949219 96.382812 197.511719 97.207031 197.152344 98.070312 C 196.792969 98.933594 196.523438 99.824219 196.339844 100.742188 C 196.160156 101.660156 196.066406 102.585938 196.066406 103.523438 C 196.066406 104.460938 196.160156 105.386719 196.339844 106.304688 C 196.523438 107.222656 196.792969 108.113281 197.152344 108.976562 C 197.511719 109.839844 197.949219 110.664062 198.46875 111.441406 C 198.988281 112.21875 199.578125 112.9375 200.242188 113.601562 C 200.902344 114.261719 201.621094 114.851562 202.402344 115.371094 C 203.179688 115.890625 204 116.332031 204.863281 116.6875 C 205.730469 117.046875 206.621094 117.316406 207.539062 117.5 C 208.457031 117.683594 209.382812 117.773438 210.316406 117.773438 C 211.253906 117.773438 212.179688 117.683594 213.097656 117.5 C 214.015625 117.316406 214.90625 117.046875 215.769531 116.6875 C 216.636719 116.332031 217.457031 115.890625 218.234375 115.371094 C 219.011719 114.851562 219.730469 114.261719 220.394531 113.601562 C 221.054688 112.9375 221.644531 112.21875 222.164062 111.441406 C 222.6875 110.664062 223.125 109.839844 223.484375 108.976562 C 223.839844 108.113281 224.109375 107.222656 224.292969 106.304688 C 224.476562 105.386719 224.566406 104.460938 224.566406 103.523438 C 224.566406 102.585938 224.476562 101.660156 224.292969 100.742188 C 224.109375 99.824219 223.839844 98.933594 223.484375 98.070312 C 223.125 97.207031 222.6875 96.382812 222.164062 95.605469 C 221.644531 94.828125 221.054688 94.109375 220.394531 93.445312 C 219.730469 92.785156 219.011719 92.195312 218.234375 91.675781 C 217.457031 91.15625 216.636719 90.714844 215.769531 90.359375 C 214.90625 90 214.015625 89.730469 213.097656 89.546875 C 212.179688 89.363281 211.253906 89.273438 210.316406 89.273438 Z M 210.316406 89.273438 "/>
    <path style=" stroke:none;fill-rule:nonzero;fill:rgb(22.349548%,22.349548%,22.349548%);fill-opacity:1;" d="M 111.777344 151.527344 L 135.023438 151.527344 L 135.023438 165.777344 L 111.777344 165.777344 Z M 111.777344 151.527344 "/>
  </g>
</svg>